<svg xmlns:xlink="http://www.w3.org/1999/xlink" xmlns="http://www.w3.org/2000/svg" x="0px" y="0px" width="65" height="65" viewBox="0 0 75 75" enable-background="new 0 0 75 75" xml:space="preserve"><defs><linearGradient id="NAV-S-AMP-DAC-1" gradientUnits="userSpaceOnUse" x1="5.1399" y1="55.8141" x2="13.1769" y2="55.8141"><stop offset="0" style="stop-color: #ADA8F0;"></stop><stop offset="1" style="stop-color: #90F5F2;"></stop></linearGradient><linearGradient id="NAV-S-AMP-DAC-1" gradientUnits="userSpaceOnUse" x1="5.1399" y1="55.8141" x2="13.1769" y2="55.8141"><stop offset="0" style="stop-color: #ADA8F0;"></stop><stop offset="1" style="stop-color: #90F5F2;"></stop></linearGradient><linearGradient id="NAV-S-AMP-DAC-2" gradientUnits="userSpaceOnUse" x1="19.7729" y1="61.1143" x2="27.8099" y2="61.1143"><stop offset="0" style="stop-color: #ADA8F0;"></stop><stop offset="1" style="stop-color: #90F5F2;"></stop></linearGradient><linearGradient id="NAV-S-AMP-DAC-3" gradientUnits="userSpaceOnUse" x1="58.9238" y1="57.0244" x2="65.3465" y2="57.0244"><stop offset="0" style="stop-color: #ADA8F0;"></stop><stop offset="1" style="stop-color: #90F5F2;"></stop></linearGradient><linearGradient id="NAV-S-AMP-DAC-4" gradientUnits="userSpaceOnUse" x1="19.2722" y1="50.4659" x2="71.454" y2="50.4659"><stop offset="0" style="stop-color: #90F5F2;"></stop><stop offset="1" style="stop-color: #ADA8F0;"></stop></linearGradient><linearGradient id="NAV-S-AMP-DAC-5" gradientUnits="userSpaceOnUse" x1="27.3683" y1="49.7504" x2="27.3683" y2="53.595"><stop offset="0" style="stop-color: #90F5F2;"></stop><stop offset="1" style="stop-color: #ADA8F0;"></stop></linearGradient><linearGradient id="NAV-S-AMP-DAC-6" gradientUnits="userSpaceOnUse" x1="26.5741" y1="52.3003" x2="31.0272" y2="52.3003"><stop offset="0" style="stop-color: #DCFAEA;"></stop><stop offset="1" style="stop-color: #DFEEF7;"></stop></linearGradient><linearGradient id="NAV-S-AMP-DAC-7" gradientUnits="userSpaceOnUse" x1="65.0621" y1="46.907" x2="65.0038" y2="50.8099"><stop offset="0" style="stop-color: #90F5F2;"></stop><stop offset="1" style="stop-color: #ADA8F0;"></stop></linearGradient><linearGradient id="NAV-S-AMP-DAC-8" gradientUnits="userSpaceOnUse" x1="64.2398" y1="49.1456" x2="68.6916" y2="49.1456"><stop offset="0" style="stop-color: #DCFAEA;"></stop><stop offset="1" style="stop-color: #DFEEF7;"></stop></linearGradient><linearGradient id="NAV-S-AMP-DAC-9" gradientUnits="userSpaceOnUse" x1="19.2722" y1="38.0252" x2="71.454" y2="38.0252"><stop offset="0" style="stop-color: #90F5F2;"></stop><stop offset="1" style="stop-color: #ADA8F0;"></stop></linearGradient><linearGradient id="NAV-S-AMP-DAC-10" gradientUnits="userSpaceOnUse" x1="4.2285" y1="30.9821" x2="70.8492" y2="30.9821"><stop offset="0" style="stop-color: #DCFAEA;"></stop><stop offset="1" style="stop-color: #DFEEF7;"></stop></linearGradient><linearGradient id="NAV-S-AMP-DAC-11" gradientUnits="userSpaceOnUse" x1="27.3683" y1="37.5756" x2="27.3683" y2="41.129"><stop offset="0" style="stop-color: #90F5F2;"></stop><stop offset="1" style="stop-color: #ADA8F0;"></stop></linearGradient><linearGradient id="NAV-S-AMP-DAC-12" gradientUnits="userSpaceOnUse" x1="26.5741" y1="39.8591" x2="31.0272" y2="39.8591"><stop offset="0" style="stop-color: #DCFAEA;"></stop><stop offset="1" style="stop-color: #DFEEF7;"></stop></linearGradient><linearGradient id="NAV-S-AMP-DAC-13" gradientUnits="userSpaceOnUse" x1="65.0335" y1="34.43" x2="65.0335" y2="38.3912"><stop offset="0" style="stop-color: #90F5F2;"></stop><stop offset="1" style="stop-color: #ADA8F0;"></stop></linearGradient><linearGradient id="NAV-S-AMP-DAC-14" gradientUnits="userSpaceOnUse" x1="64.2398" y1="36.7048" x2="68.6916" y2="36.7048"><stop offset="0" style="stop-color: #DCFAEA;"></stop><stop offset="1" style="stop-color: #DFEEF7;"></stop></linearGradient><linearGradient id="NAV-S-AMP-DAC-15" gradientUnits="userSpaceOnUse" x1="23.5845" y1="22.4647" x2="28.7329" y2="22.4647"><stop offset="0" style="stop-color: #ADA8F0;"></stop><stop offset="1" style="stop-color: #90F5F2;"></stop></linearGradient><linearGradient id="NAV-S-AMP-DAC-16" gradientUnits="userSpaceOnUse" x1="23.7942" y1="28.0759" x2="28.2924" y2="28.0759"><stop offset="0" style="stop-color: #ADA8F0;"></stop><stop offset="1" style="stop-color: #90F5F2;"></stop></linearGradient><linearGradient id="NAV-S-AMP-DAC-17" gradientUnits="userSpaceOnUse" x1="32.5675" y1="22.1856" x2="37.7162" y2="22.1856"><stop offset="0" style="stop-color: #ADA8F0;"></stop><stop offset="1" style="stop-color: #90F5F2;"></stop></linearGradient><linearGradient id="NAV-S-AMP-DAC-18" gradientUnits="userSpaceOnUse" x1="32.7775" y1="27.797" x2="37.2757" y2="27.797"><stop offset="0" style="stop-color: #ADA8F0;"></stop><stop offset="1" style="stop-color: #90F5F2;"></stop></linearGradient><linearGradient id="NAV-S-AMP-DAC-19" gradientUnits="userSpaceOnUse" x1="41.551" y1="21.9064" x2="46.6994" y2="21.9064"><stop offset="0" style="stop-color: #ADA8F0;"></stop><stop offset="1" style="stop-color: #90F5F2;"></stop></linearGradient><linearGradient id="NAV-S-AMP-DAC-20" gradientUnits="userSpaceOnUse" x1="41.7607" y1="27.5175" x2="46.2589" y2="27.5175"><stop offset="0" style="stop-color: #ADA8F0;"></stop><stop offset="1" style="stop-color: #90F5F2;"></stop></linearGradient><linearGradient id="NAV-S-AMP-DAC-21" gradientUnits="userSpaceOnUse" x1="50.5346" y1="21.6269" x2="55.6826" y2="21.6269"><stop offset="0" style="stop-color: #ADA8F0;"></stop><stop offset="1" style="stop-color: #90F5F2;"></stop></linearGradient><linearGradient id="NAV-S-AMP-DAC-22" gradientUnits="userSpaceOnUse" x1="50.7446" y1="27.238" x2="55.2421" y2="27.238"><stop offset="0" style="stop-color: #ADA8F0;"></stop><stop offset="1" style="stop-color: #90F5F2;"></stop></linearGradient></defs><linearGradient id="NAV-S-AMP-DAC-1" gradientUnits="userSpaceOnUse" x1="5.1399" y1="55.8141" x2="13.1769" y2="55.8141"><stop offset="0" style="stop-color: #ADA8F0;"></stop><stop offset="1" style="stop-color: #90F5F2;"></stop></linearGradient><path fill="url(&quot;#NAV-S-AMP-DAC-1&quot;)" d="M5.1,56c0,0.6,1.8,1.2,4,1.2c2.2,0,4-0.5,4-1.2v-1.5l-8-0.1L5.1,56z"></path><path fill="#ADA8F0" d="M13.2,54.5c0,0.6-1.8,1.2-4,1.2c-2.2,0-4-0.5-4-1.2c0-0.6,1.8-1.2,4-1.2C11.4,53.4,13.2,53.9,13.2,54.5"></path><path fill="#80DDED" d="M71.5,39.4v-7c0-0.8-0.5-1.4-1.3-1.6l-16.6-3.5c-16.2,1-32.4,2.1-48.6,3.1c-0.8,0.1-1.5,0.7-1.5,1.6v6.8c0,0.7,0.4,1.3,1.1,1.5l6.7,2.2L5,42.9c-0.8,0.1-1.5,0.7-1.5,1.6v6.8c0,0.7,0.4,1.3,1.1,1.5L19,57.3c0.2,0.1,0.4,0.1,0.6,0.1l50.4-4c0.8-0.1,1.5-0.8,1.5-1.6v-7c0-0.8-0.5-1.4-1.3-1.6l-7.9-1.7l7.7-0.6C70.8,40.9,71.5,40.2,71.5,39.4z"></path><linearGradient id="NAV-S-AMP-DAC-2" gradientUnits="userSpaceOnUse" x1="19.7729" y1="61.1143" x2="27.8099" y2="61.1143"><stop offset="0" style="stop-color: #ADA8F0;"></stop><stop offset="1" style="stop-color: #90F5F2;"></stop></linearGradient><path fill="url(&quot;#NAV-S-AMP-DAC-2&quot;)" d="M19.8,61.3c0,0.6,1.8,1.2,4,1.2c2.2,0,4-0.5,4-1.2v-1.5l-8-0.1L19.8,61.3z"></path><path fill="#ADA8F0" d="M27.8,59.8c0,0.6-1.8,1.2-4,1.2c-2.2,0-4-0.5-4-1.2c0-0.6,1.8-1.2,4-1.2C26,58.7,27.8,59.2,27.8,59.8"></path><linearGradient id="NAV-S-AMP-DAC-3" gradientUnits="userSpaceOnUse" x1="58.9238" y1="57.0244" x2="65.3465" y2="57.0244"><stop offset="0" style="stop-color: #ADA8F0;"></stop><stop offset="1" style="stop-color: #90F5F2;"></stop></linearGradient><path fill="url(&quot;#NAV-S-AMP-DAC-3&quot;)" d="M58.9,57.2c0,0.5,1.4,0.9,3.2,0.9c1.8,0,3.2-0.4,3.2-0.9V56l-6.4-0.1L58.9,57.2z"></path><path fill="#ADA8F0" d="M65.3,56c0,0.5-1.4,0.9-3.2,0.9c-1.8,0-3.2-0.4-3.2-0.9c0-0.5,1.4-0.9,3.2-0.9C63.9,55.1,65.3,55.5,65.3,56"></path><linearGradient id="NAV-S-AMP-DAC-4" gradientUnits="userSpaceOnUse" x1="19.2722" y1="50.4659" x2="71.454" y2="50.4659"><stop offset="0" style="stop-color: #90F5F2;"></stop><stop offset="1" style="stop-color: #ADA8F0;"></stop></linearGradient><path fill="url(&quot;#NAV-S-AMP-DAC-4&quot;)" d="M19.3,47.2v10.3c0.1,0,0.2,0,0.3,0l50.4-4c0.8-0.1,1.5-0.8,1.5-1.6v-7c0-0.5-0.2-1-0.6-1.2L19.3,47.2z"></path><path d="M29.4,50.5c-0.1-0.2-0.2-0.4-0.4-0.6c0-0.1-0.1-0.1-0.1-0.2c-0.5-0.6-1.1-0.9-1.9-0.9c-1.5,0-2.7,1.4-2.7,3.2c0,1.7,1.2,3.1,2.7,3.1c0.5,0,1-0.2,1.4-0.5c-0.4,0-0.9,0-1.3,0H27c-0.1,0-0.1,0-0.2,0c-0.1,0-0.2,0-0.3,0c0,0-0.1,0-0.1,0c-1-0.3-1.7-1.4-1.7-2.6c0-1.5,1-2.7,2.2-2.7c0.5,0,1,0.2,1.4,0.6c0.4,0.4,0.7,1,0.8,1.7c0,0.1,0,0.2,0,0.3c0,0.4-0.1,0.8-0.2,1.2c-0.2,0.6-0.6,1-1.1,1.3c0.2,0.1,0.3,0.2,0.5,0.2c0.1-0.1,0.3-0.2,0.4-0.4c0.5-0.6,0.8-1.4,0.8-2.3C29.7,51.5,29.6,51,29.4,50.5"></path><linearGradient id="NAV-S-AMP-DAC-5" gradientUnits="userSpaceOnUse" x1="27.3683" y1="49.7504" x2="27.3683" y2="53.595"><stop offset="0" style="stop-color: #90F5F2;"></stop><stop offset="1" style="stop-color: #ADA8F0;"></stop></linearGradient><path fill="url(&quot;#NAV-S-AMP-DAC-5&quot;)" d="M25.7,49.7c-0.6,0.5-0.8,1.3-0.9,1.7c-0.1,0.3-0.2,1.2,0.3,2.2c0.1,0.2,0.5,0.8,1.2,1.1c0.3,0.1,0.6,0.1,0.8,0.1c0.6,0,1.2,0,1.8,0c1.4-1.7,1.3-3.8,0.3-4.8c-0.7-0.3-1.2-0.4-1.8-0.6c-0.1,0-0.2,0-0.4,0C26.7,49.3,26.1,49.4,25.7,49.7"></path><linearGradient id="NAV-S-AMP-DAC-6" gradientUnits="userSpaceOnUse" x1="26.5741" y1="52.3003" x2="31.0272" y2="52.3003"><stop offset="0" style="stop-color: #DCFAEA;"></stop><stop offset="1" style="stop-color: #DFEEF7;"></stop></linearGradient><path fill="url(&quot;#NAV-S-AMP-DAC-6&quot;)" d="M28.4,49.9c-1.1,0.2-1.9,1.2-1.9,2.4c0,1,0.5,1.8,1.3,2.2c0.2,0.1,0.4,0.2,0.5,0.2c0.1,0,0.2,0,0.3,0c1.2,0,2.2-1.1,2.2-2.4c0-1.1-0.7-2-1.6-2.3c-0.1-0.1-0.3-0.1-0.4-0.1c-0.1,0-0.1,0-0.2,0C28.7,49.9,28.6,49.9,28.4,49.9"></path><path d="M67,47.4c-0.1-0.2-0.2-0.4-0.4-0.6c0-0.1-0.1-0.1-0.1-0.2c-0.5-0.6-1.1-0.9-1.9-0.9c-1.5,0-2.7,1.4-2.7,3.2c0,1.7,1.2,3.1,2.7,3.1c0.5,0,1-0.2,1.4-0.5c-0.4,0-0.9,0-1.3,0h-0.1c-0.1,0-0.1,0-0.2,0c-0.1,0-0.2,0-0.3,0c0,0-0.1,0-0.1,0 c-1-0.3-1.7-1.4-1.7-2.6c0-1.5,1-2.7,2.2-2.7c0.5,0,1,0.2,1.4,0.6c0.4,0.4,0.7,1,0.8,1.7c0,0.1,0,0.2,0,0.3c0,0.4-0.1,0.8-0.2,1.2c-0.2,0.6-0.6,1-1.1,1.3c0.2,0.1,0.3,0.2,0.5,0.2c0.1-0.1,0.3-0.2,0.4-0.4c0.5-0.6,0.8-1.4,0.8-2.3C67.3,48.3,67.2,47.8,67,47.4"></path><linearGradient id="NAV-S-AMP-DAC-7" gradientUnits="userSpaceOnUse" x1="65.0621" y1="46.907" x2="65.0038" y2="50.8099"><stop offset="0" style="stop-color: #90F5F2;"></stop><stop offset="1" style="stop-color: #ADA8F0;"></stop></linearGradient><path fill="url(&quot;#NAV-S-AMP-DAC-7&quot;)" d="M63.4,46.6c-0.6,0.5-0.8,1.3-0.9,1.7c-0.1,0.3-0.2,1.2,0.3,2.2c0.1,0.2,0.5,0.8,1.2,1.1c0.3,0.1,0.6,0.1,0.8,0.1l1.8,0c1.4-1.7,1.3-3.8,0.3-4.8c-0.7-0.3-1.2-0.4-1.8-0.6c-0.1,0-0.2,0-0.4,0C64.3,46.1,63.8,46.2,63.4,46.6"></path><linearGradient id="NAV-S-AMP-DAC-8" gradientUnits="userSpaceOnUse" x1="64.2398" y1="49.1456" x2="68.6916" y2="49.1456"><stop offset="0" style="stop-color: #DCFAEA;"></stop><stop offset="1" style="stop-color: #DFEEF7;"></stop></linearGradient><path fill="url(&quot;#NAV-S-AMP-DAC-8&quot;)" d="M66.1,46.8c-1.1,0.2-1.9,1.2-1.9,2.4c0,1,0.5,1.8,1.3,2.2c0.2,0.1,0.3,0.2,0.5,0.2c0.1,0,0.2,0,0.3,0c1.2,0,2.2-1.1,2.2-2.4c0-1.1-0.7-2-1.6-2.3c-0.1-0.1-0.3-0.1-0.4-0.1c-0.1,0-0.1,0-0.2,0C66.4,46.7,66.2,46.7,66.1,46.8"></path><linearGradient id="NAV-S-AMP-DAC-9" gradientUnits="userSpaceOnUse" x1="19.2722" y1="38.0252" x2="71.454" y2="38.0252"><stop offset="0" style="stop-color: #90F5F2;"></stop><stop offset="1" style="stop-color: #ADA8F0;"></stop></linearGradient><path fill="url(&quot;#NAV-S-AMP-DAC-9&quot;)" d="M19.3,34.7V45c0.1,0,0.2,0,0.3,0l50.5-4c0.8-0.1,1.4-0.8,1.4-1.6v-7c0-0.5-0.2-1-0.6-1.2L19.3,34.7z"></path><linearGradient id="NAV-S-AMP-DAC-10" gradientUnits="userSpaceOnUse" x1="4.2285" y1="30.9821" x2="70.8492" y2="30.9821"><stop offset="0" style="stop-color: #DCFAEA;"></stop><stop offset="1" style="stop-color: #DFEEF7;"></stop></linearGradient><path fill="url(&quot;#NAV-S-AMP-DAC-10&quot;)" d="M53.2,27.3l-18,1.2L5,30.4c-0.3,0-0.5,0.1-0.8,0.3l15,4l51.6-3.6c-0.2-0.1-0.4-0.3-0.7-0.3l-1.1-0.2l-15.5-3.3c-0.1,0-0.2,0-0.3,0C53.2,27.3,53.2,27.3,53.2,27.3"></path><linearGradient id="NAV-S-AMP-DAC-11" gradientUnits="userSpaceOnUse" x1="27.3683" y1="37.5756" x2="27.3683" y2="41.129"><stop offset="0" style="stop-color: #90F5F2;"></stop><stop offset="1" style="stop-color: #ADA8F0;"></stop></linearGradient><path fill="url(&quot;#NAV-S-AMP-DAC-11&quot;)" d="M25.7,37.3c-0.6,0.5-0.8,1.3-0.9,1.7c-0.1,0.3-0.2,1.2,0.3,2.2c0.1,0.2,0.5,0.8,1.2,1.1c0.3,0.1,0.6,0.1,0.8,0.1c0.6,0,1.2,0,1.8,0c1.4-1.7,1.3-3.8,0.3-4.8c-0.7-0.3-1.2-0.4-1.8-0.6c-0.1,0-0.2,0-0.4,0C26.7,36.8,26.1,36.9,25.7,37.3"></path><linearGradient id="NAV-S-AMP-DAC-12" gradientUnits="userSpaceOnUse" x1="26.5741" y1="39.8591" x2="31.0272" y2="39.8591"><stop offset="0" style="stop-color: #DCFAEA;"></stop><stop offset="1" style="stop-color: #DFEEF7;"></stop></linearGradient><path fill="url(&quot;#NAV-S-AMP-DAC-12&quot;)" d="M28.4,37.5c-1.1,0.2-1.9,1.2-1.9,2.4c0,1,0.5,1.8,1.3,2.2c0.2,0.1,0.4,0.2,0.5,0.2c0.1,0,0.2,0,0.3,0c1.2,0,2.2-1.1,2.2-2.4c0-1.1-0.7-2-1.6-2.3c-0.1-0.1-0.3-0.1-0.4-0.1c-0.1,0-0.1,0-0.2,0C28.7,37.4,28.6,37.5,28.4,37.5"></path><path d="M67,34.9c-0.1-0.2-0.2-0.4-0.4-0.6c0-0.1-0.1-0.1-0.1-0.2c-0.5-0.6-1.1-0.9-1.9-0.9c-1.5,0-2.7,1.4-2.7,3.2c0,1.7,1.2,3.2,2.7,3.2c0.5,0,1-0.2,1.4-0.5c-0.4,0-0.9,0-1.3,0h-0.1c-0.1,0-0.1,0-0.2,0c-0.1,0-0.2,0-0.3,0c0,0-0.1,0-0.1,0c-1-0.3-1.7-1.4-1.7-2.6c0-1.5,1-2.7,2.2-2.7c0.5,0,1,0.2,1.4,0.6c0.4,0.4,0.7,1,0.8,1.7c0,0.1,0,0.2,0,0.3c0,0.4-0.1,0.8-0.2,1.2c-0.2,0.6-0.6,1-1.1,1.3c0.2,0.1,0.3,0.2,0.5,0.2c0.1-0.1,0.3-0.2,0.4-0.4c0.5-0.6,0.8-1.4,0.8-2.3C67.3,35.9,67.2,35.4,67,34.9"></path><linearGradient id="NAV-S-AMP-DAC-13" gradientUnits="userSpaceOnUse" x1="65.0335" y1="34.43" x2="65.0335" y2="38.3912"><stop offset="0" style="stop-color: #90F5F2;"></stop><stop offset="1" style="stop-color: #ADA8F0;"></stop></linearGradient><path fill="url(&quot;#NAV-S-AMP-DAC-13&quot;)" d="M63.4,34.1c-0.6,0.5-0.8,1.3-0.9,1.7c-0.1,0.3-0.2,1.2,0.3,2.2c0.1,0.2,0.5,0.8,1.2,1.1c0.3,0.1,0.6,0.1,0.8,0.1l1.8,0c1.4-1.7,1.3-3.8,0.3-4.8c-0.7-0.3-1.2-0.4-1.8-0.6c-0.1,0-0.2,0-0.4,0C64.3,33.7,63.8,33.8,63.4,34.1"></path><linearGradient id="NAV-S-AMP-DAC-14" gradientUnits="userSpaceOnUse" x1="64.2398" y1="36.7048" x2="68.6916" y2="36.7048"><stop offset="0" style="stop-color: #DCFAEA;"></stop><stop offset="1" style="stop-color: #DFEEF7;"></stop></linearGradient><path fill="url(&quot;#NAV-S-AMP-DAC-14&quot;)" d="M66.1,34.3c-1.1,0.2-1.9,1.2-1.9,2.4c0,1,0.5,1.8,1.3,2.2c0.2,0.1,0.3,0.2,0.5,0.2c0.1,0,0.2,0,0.3,0c1.2,0,2.2-1.1,2.2-2.4c0-1.1-0.7-2-1.6-2.3c-0.1-0.1-0.3-0.1-0.4-0.1c-0.1,0-0.1,0-0.2,0C66.4,34.3,66.2,34.3,66.1,34.3"></path><linearGradient id="NAV-S-AMP-DAC-15" gradientUnits="userSpaceOnUse" x1="23.5845" y1="22.4647" x2="28.7329" y2="22.4647"><stop offset="0" style="stop-color: #ADA8F0;"></stop><stop offset="1" style="stop-color: #90F5F2;"></stop></linearGradient><path fill="url(&quot;#NAV-S-AMP-DAC-15&quot;)" d="M23.6,22.3c-0.1,0.4,0,1.3,0,1.3h5c0,0,0.4-1.6-0.7-1.9c-0.5-0.2-1.2-0.3-2-0.3C24.8,21.4,23.7,21.6,23.6,22.3"></path><linearGradient id="NAV-S-AMP-DAC-16" gradientUnits="userSpaceOnUse" x1="23.7942" y1="28.0759" x2="28.2924" y2="28.0759"><stop offset="0" style="stop-color: #ADA8F0;"></stop><stop offset="1" style="stop-color: #90F5F2;"></stop></linearGradient><path fill="url(&quot;#NAV-S-AMP-DAC-16&quot;)" d="M26,24.8c-1.2,0-2.2-0.3-2.2,0.8v4.6c0,0.1,0,0.1,0,0.2c0,0,0,0.1,0,0.1c0,0.5,1,0.9,2.2,0.9c1.2,0,2.2-0.4,2.2-0.9c0,0,0-0.1,0-0.1c0-0.1,0-0.1,0-0.2l0.2-4.7c0-0.6-0.4-0.8-0.9-0.8C27,24.7,26.5,24.8,26,24.8"></path><linearGradient id="NAV-S-AMP-DAC-17" gradientUnits="userSpaceOnUse" x1="32.5675" y1="22.1856" x2="37.7162" y2="22.1856"><stop offset="0" style="stop-color: #ADA8F0;"></stop><stop offset="1" style="stop-color: #90F5F2;"></stop></linearGradient><path fill="url(&quot;#NAV-S-AMP-DAC-17&quot;)" d="M32.6,22c-0.1,0.4,0,1.3,0,1.3h5c0,0,0.4-1.6-0.7-1.9c-0.5-0.2-1.2-0.3-2-0.3C33.8,21.1,32.7,21.3,32.6,22"></path><linearGradient id="NAV-S-AMP-DAC-18" gradientUnits="userSpaceOnUse" x1="32.7775" y1="27.797" x2="37.2757" y2="27.797"><stop offset="0" style="stop-color: #ADA8F0;"></stop><stop offset="1" style="stop-color: #90F5F2;"></stop></linearGradient><path fill="url(&quot;#NAV-S-AMP-DAC-18&quot;)" d="M34.9,24.5c-1.2,0-2.2-0.3-2.2,0.8v4.6c0,0.1,0,0.1,0,0.2c0,0,0,0.1,0,0.1c0,0.5,1,0.9,2.2,0.9c1.2,0,2.2-0.4,2.2-0.9c0,0,0-0.1,0-0.1c0-0.1,0-0.1,0-0.2l0.2-4.7c0-0.6-0.4-0.8-0.9-0.8C35.9,24.5,35.4,24.5,34.9,24.5"></path><linearGradient id="NAV-S-AMP-DAC-19" gradientUnits="userSpaceOnUse" x1="41.551" y1="21.9064" x2="46.6994" y2="21.9064"><stop offset="0" style="stop-color: #ADA8F0;"></stop><stop offset="1" style="stop-color: #90F5F2;"></stop></linearGradient><path fill="url(&quot;#NAV-S-AMP-DAC-19&quot;)" d="M41.6,21.7c-0.1,0.4,0,1.3,0,1.3h5c0,0,0.4-1.6-0.7-1.9c-0.5-0.2-1.2-0.3-2-0.3 C42.8,20.8,41.7,21,41.6,21.7"></path><linearGradient id="NAV-S-AMP-DAC-20" gradientUnits="userSpaceOnUse" x1="41.7607" y1="27.5175" x2="46.2589" y2="27.5175"><stop offset="0" style="stop-color: #ADA8F0;"></stop><stop offset="1" style="stop-color: #90F5F2;"></stop></linearGradient><path fill="url(&quot;#NAV-S-AMP-DAC-20&quot;)" d="M43.9,24.3c-1.2,0-2.2-0.3-2.2,0.8v4.6c0,0.1,0,0.1,0,0.2c0,0,0,0.1,0,0.1c0,0.5,1,0.9,2.2,0.9c1.2,0,2.2-0.4,2.2-0.9c0,0,0-0.1,0-0.1c0-0.1,0-0.1,0-0.2l0.2-4.7c0-0.6-0.4-0.8-0.9-0.8C44.9,24.2,44.4,24.3,43.9,24.3"></path><linearGradient id="NAV-S-AMP-DAC-21" gradientUnits="userSpaceOnUse" x1="50.5346" y1="21.6269" x2="55.6826" y2="21.6269"><stop offset="0" style="stop-color: #ADA8F0;"></stop><stop offset="1" style="stop-color: #90F5F2;"></stop></linearGradient><path fill="url(&quot;#NAV-S-AMP-DAC-21&quot;)" d="M50.6,21.4c-0.1,0.4,0,1.3,0,1.3h5c0,0,0.4-1.6-0.7-1.9c-0.5-0.2-1.2-0.3-2-0.3C51.8,20.5,50.7,20.8,50.6,21.4"></path><linearGradient id="NAV-S-AMP-DAC-22" gradientUnits="userSpaceOnUse" x1="50.7446" y1="27.238" x2="55.2421" y2="27.238"><stop offset="0" style="stop-color: #ADA8F0;"></stop><stop offset="1" style="stop-color: #90F5F2;"></stop></linearGradient><path fill="url(&quot;#NAV-S-AMP-DAC-22&quot;)" d="M52.9,24c-1.2,0-2.2-0.3-2.2,0.8v4.6c0,0.1,0,0.1,0,0.2c0,0,0,0.1,0,0.1c0,0.5,1,0.9,2.2,0.9c1.2,0,2.2-0.4,2.2-0.9c0,0,0-0.1,0-0.1c0-0.1,0-0.1,0-0.2l0.2-4.7c0-0.6-0.4-0.8-0.9-0.8C53.9,23.9,53.4,24,52.9,24"></path><polygon fill="#444444" points="23.8,59.8 25.5,56.8 22,56.8"></polygon><polygon fill="#444444" points="62.1,56 63.5,53.6 60.7,53.6"></polygon><rect x="24.7" y="23.4" fill="#444444" width="2.8" height="1.4"></rect><rect x="33.7" y="23.2" fill="#444444" width="2.8" height="1.4"></rect><rect x="42.7" y="22.9" fill="#444444" width="2.8" height="1.4"></rect><rect x="51.7" y="22.6" fill="#444444" width="2.8" height="1.4"></rect><polygon fill="#444444" points="35.9,33.5 35.9,39.1 36.5,40.8 37.3,40.8 54.8,39.1 55.2,38 55.2,32.2"></polygon><polygon fill="#444444" points="35.9,45.9 35.9,51.5 36.5,53.2 37.3,53.2 54.8,51.5 55.2,50.4 55.2,44.5"></polygon><g id="NAV-SH-DAD-O" opacity="0"><rect x="0" y="0" width="100" height="100" fill="#fff"></rect><linearGradient id="NAV-S-AMP-DAC-23" gradientUnits="userSpaceOnUse" x1="5.1399" y1="55.8141" x2="13.1769" y2="55.8141"><stop offset="0" style="stop-color: #FFDF97;"></stop><stop offset="1" style="stop-color: #F7A39F;"></stop></linearGradient><path fill="url(#NAV-S-AMP-DAC-23)" d="M5.1,56c0,0.6,1.8,1.2,4,1.2c2.2,0,4-0.5,4-1.2v-1.5l-8-0.1L5.1,56z"></path><path fill="#F7A39F" d="M13.2,54.5c0,0.6-1.8,1.2-4,1.2c-2.2,0-4-0.5-4-1.2c0-0.6,1.8-1.2,4-1.2C11.4,53.4,13.2,53.9,13.2,54.5"></path><path fill="#FFDF97" d="M71.5,39.4v-7c0-0.8-0.5-1.4-1.3-1.6l-16.6-3.5c-16.2,1-32.4,2.1-48.6,3.1c-0.8,0.1-1.5,0.7-1.5,1.6v6.8c0,0.7,0.4,1.3,1.1,1.5l6.7,2.2L5,42.9c-0.8,0.1-1.5,0.7-1.5,1.6v6.8c0,0.7,0.4,1.3,1.1,1.5L19,57.3c0.2,0.1,0.4,0.1,0.6,0.1l50.4-4c0.8-0.1,1.5-0.8,1.5-1.6v-7c0-0.8-0.5-1.4-1.3-1.6l-7.9-1.7l7.7-0.6C70.8,40.9,71.5,40.2,71.5,39.4z"></path><linearGradient id="NAV-S-AMP-DAC-24" gradientUnits="userSpaceOnUse" x1="19.7729" y1="61.1143" x2="27.8099" y2="61.1143"><stop offset="0" style="stop-color: #FFDF97;"></stop><stop offset="1" style="stop-color: #F7A39F;"></stop></linearGradient><path fill="url(#NAV-S-AMP-DAC-24)" d="M19.8,61.3c0,0.6,1.8,1.2,4,1.2c2.2,0,4-0.5,4-1.2v-1.5l-8-0.1L19.8,61.3z"></path><path fill="#F7A39F" d="M27.8,59.8c0,0.6-1.8,1.2-4,1.2c-2.2,0-4-0.5-4-1.2c0-0.6,1.8-1.2,4-1.2C26,58.7,27.8,59.2,27.8,59.8"></path><linearGradient id="NAV-S-AMP-DAC-25" gradientUnits="userSpaceOnUse" x1="58.9238" y1="57.0244" x2="65.3465" y2="57.0244"><stop offset="0" style="stop-color: #FFDF97;"></stop><stop offset="1" style="stop-color: #F7A39F;"></stop></linearGradient><path fill="url(#NAV-S-AMP-DAC-25)" d="M58.9,57.2c0,0.5,1.4,0.9,3.2,0.9c1.8,0,3.2-0.4,3.2-0.9V56l-6.4-0.1L58.9,57.2z"></path><path fill="#F7A39F" d="M65.3,56c0,0.5-1.4,0.9-3.2,0.9c-1.8,0-3.2-0.4-3.2-0.9c0-0.5,1.4-0.9,3.2-0.9C63.9,55.1,65.3,55.5,65.3,56"></path><linearGradient id="NAV-S-AMP-DAC-26" gradientUnits="userSpaceOnUse" x1="21.6232" y1="55.687" x2="75.0988" y2="43.1045"><stop offset="0" style="stop-color: #FCEFBB;"></stop><stop offset="1" style="stop-color: #F7A39F;"></stop></linearGradient><path fill="url(#NAV-S-AMP-DAC-26)" d="M19.3,47.2v10.3c0.1,0,0.2,0,0.3,0l50.4-4c0.8-0.1,1.5-0.8,1.5-1.6v-7c0-0.5-0.2-1-0.6-1.2L19.3,47.2z"></path><path d="M29.4,50.5c-0.1-0.2-0.2-0.4-0.4-0.6c0-0.1-0.1-0.1-0.1-0.2c-0.5-0.6-1.1-0.9-1.9-0.9c-1.5,0-2.7,1.4-2.7,3.2c0,1.7,1.2,3.1,2.7,3.1c0.5,0,1-0.2,1.4-0.5c-0.4,0-0.9,0-1.3,0H27c-0.1,0-0.1,0-0.2,0c-0.1,0-0.2,0-0.3,0c0,0-0.1,0-0.1,0c-1-0.3-1.7-1.4-1.7-2.6c0-1.5,1-2.7,2.2-2.7c0.5,0,1,0.2,1.4,0.6c0.4,0.4,0.7,1,0.8,1.7c0,0.1,0,0.2,0,0.3c0,0.4-0.1,0.8-0.2,1.2c-0.2,0.6-0.6,1-1.1,1.3c0.2,0.1,0.3,0.2,0.5,0.2c0.1-0.1,0.3-0.2,0.4-0.4c0.5-0.6,0.8-1.4,0.8-2.3C29.7,51.5,29.6,51,29.4,50.5"></path><linearGradient id="NAV-S-AMP-DAC-27" gradientUnits="userSpaceOnUse" x1="27.3683" y1="49.7504" x2="27.3683" y2="53.595"><stop offset="0" style="stop-color: #FFDF97;"></stop><stop offset="1" style="stop-color: #F7A39F;"></stop></linearGradient><path fill="url(#NAV-S-AMP-DAC-27)" d="M25.7,49.7c-0.6,0.5-0.8,1.3-0.9,1.7c-0.1,0.3-0.2,1.2,0.3,2.2c0.1,0.2,0.5,0.8,1.2,1.1c0.3,0.1,0.6,0.1,0.8,0.1c0.6,0,1.2,0,1.8,0c1.4-1.7,1.3-3.8,0.3-4.8c-0.7-0.3-1.2-0.4-1.8-0.6c-0.1,0-0.2,0-0.4,0C26.7,49.3,26.1,49.4,25.7,49.7"></path><path fill="#FFF6D2" d="M28.4,49.9c-1.1,0.2-1.9,1.2-1.9,2.4c0,1,0.5,1.8,1.3,2.2c0.2,0.1,0.4,0.2,0.5,0.2c0.1,0,0.2,0,0.3,0c1.2,0,2.2-1.1,2.2-2.4c0-1.1-0.7-2-1.6-2.3c-0.1-0.1-0.3-0.1-0.4-0.1c-0.1,0-0.1,0-0.2,0C28.7,49.9,28.6,49.9,28.4,49.9"></path><path d="M67,47.4c-0.1-0.2-0.2-0.4-0.4-0.6c0-0.1-0.1-0.1-0.1-0.2c-0.5-0.6-1.1-0.9-1.9-0.9c-1.5,0-2.7,1.4-2.7,3.2c0,1.7,1.2,3.1,2.7,3.1c0.5,0,1-0.2,1.4-0.5c-0.4,0-0.9,0-1.3,0h-0.1c-0.1,0-0.1,0-0.2,0c-0.1,0-0.2,0-0.3,0c0,0-0.1,0-0.1,0c-1-0.3-1.7-1.4-1.7-2.6c0-1.5,1-2.7,2.2-2.7c0.5,0,1,0.2,1.4,0.6c0.4,0.4,0.7,1,0.8,1.7c0,0.1,0,0.2,0,0.3c0,0.4-0.1,0.8-0.2,1.2c-0.2,0.6-0.6,1-1.1,1.3c0.2,0.1,0.3,0.2,0.5,0.2c0.1-0.1,0.3-0.2,0.4-0.4c0.5-0.6,0.8-1.4,0.8-2.3C67.3,48.3,67.2,47.8,67,47.4"></path><linearGradient id="NAV-S-AMP-DAC-28" gradientUnits="userSpaceOnUse" x1="65.0621" y1="46.907" x2="65.0038" y2="50.8099"><stop offset="0" style="stop-color: #FFDF97;"></stop><stop offset="1" style="stop-color: #F7A39F;"></stop></linearGradient><path fill="url(#NAV-S-AMP-DAC-28)" d="M63.4,46.6c-0.6,0.5-0.8,1.3-0.9,1.7c-0.1,0.3-0.2,1.2,0.3,2.2c0.1,0.2,0.5,0.8,1.2,1.1c0.3,0.1,0.6,0.1,0.8,0.1l1.8,0c1.4-1.7,1.3-3.8,0.3-4.8c-0.7-0.3-1.2-0.4-1.8-0.6c-0.1,0-0.2,0-0.4,0C64.3,46.1,63.8,46.2,63.4,46.6"></path><path fill="#FFF6D2" d="M66.1,46.8c-1.1,0.2-1.9,1.2-1.9,2.4c0,1,0.5,1.8,1.3,2.2c0.2,0.1,0.3,0.2,0.5,0.2c0.1,0,0.2,0,0.3,0c1.2,0,2.2-1.1,2.2-2.4c0-1.1-0.7-2-1.6-2.3c-0.1-0.1-0.3-0.1-0.4-0.1c-0.1,0-0.1,0-0.2,0C66.4,46.7,66.2,46.7,66.1,46.8"></path><linearGradient id="NAV-S-AMP-DAC-29" gradientUnits="userSpaceOnUse" x1="19.2722" y1="38.0252" x2="71.454" y2="38.0252"><stop offset="0" style="stop-color: #FCEFBB;"></stop><stop offset="1" style="stop-color: #F7A39F;"></stop></linearGradient><path fill="url(#NAV-S-AMP-DAC-29)" d="M19.3,34.7V45c0.1,0,0.2,0,0.3,0l50.5-4c0.8-0.1,1.4-0.8,1.4-1.6v-7c0-0.5-0.2-1-0.6-1.2L19.3,34.7z"></path><path fill="#FFF6D2" d="M53.2,27.3l-18,1.2L5,30.4c-0.3,0-0.5,0.1-0.8,0.3l15,4l51.6-3.6c-0.2-0.1-0.4-0.3-0.7-0.3l-1.1-0.2l-15.5-3.3c-0.1,0-0.2,0-0.3,0C53.2,27.3,53.2,27.3,53.2,27.3"></path><path d="M29.4,38.1c-0.1-0.2-0.2-0.4-0.4-0.6c0-0.1-0.1-0.1-0.1-0.2c-0.5-0.6-1.1-0.9-1.9-0.9c-1.5,0-2.7,1.4-2.7,3.2c0,1.7,1.2,3.1,2.7,3.1c0.5,0,1-0.2,1.4-0.5c-0.4,0-0.9,0-1.3,0H27c-0.1,0-0.1,0-0.2,0c-0.1,0-0.2,0-0.3,0c0,0-0.1,0-0.1,0c-1-0.3-1.7-1.4-1.7-2.6c0-1.5,1-2.7,2.2-2.7c0.5,0,1,0.2,1.4,0.6c0.4,0.4,0.7,1,0.8,1.7c0,0.1,0,0.2,0,0.3c0,0.4-0.1,0.8-0.2,1.2c-0.2,0.6-0.6,1-1.1,1.3c0.2,0.1,0.3,0.2,0.5,0.2c0.1-0.1,0.3-0.2,0.4-0.4c0.5-0.6,0.8-1.4,0.8-2.3C29.7,39,29.6,38.5,29.4,38.1"></path><linearGradient id="NAV-S-AMP-DAC-30" gradientUnits="userSpaceOnUse" x1="27.3683" y1="37.5756" x2="27.3683" y2="41.129"><stop offset="0" style="stop-color: #FFDF97;"></stop><stop offset="1" style="stop-color: #F7A39F;"></stop></linearGradient><path fill="url(#NAV-S-AMP-DAC-30)" d="M25.7,37.3c-0.6,0.5-0.8,1.3-0.9,1.7c-0.1,0.3-0.2,1.2,0.3,2.2c0.1,0.2,0.5,0.8,1.2,1.1c0.3,0.1,0.6,0.1,0.8,0.1c0.6,0,1.2,0,1.8,0c1.4-1.7,1.3-3.8,0.3-4.8c-0.7-0.3-1.2-0.4-1.8-0.6c-0.1,0-0.2,0-0.4,0C26.7,36.8,26.1,36.9,25.7,37.3"></path><path fill="#FFF6D2" d="M28.4,37.5c-1.1,0.2-1.9,1.2-1.9,2.4c0,1,0.5,1.8,1.3,2.2c0.2,0.1,0.4,0.2,0.5,0.2c0.1,0,0.2,0,0.3,0c1.2,0,2.2-1.1,2.2-2.4c0-1.1-0.7-2-1.6-2.3c-0.1-0.1-0.3-0.1-0.4-0.1c-0.1,0-0.1,0-0.2,0C28.7,37.4,28.6,37.5,28.4,37.5"></path><path d="M67,34.9c-0.1-0.2-0.2-0.4-0.4-0.6c0-0.1-0.1-0.1-0.1-0.2c-0.5-0.6-1.1-0.9-1.9-0.9c-1.5,0-2.7,1.4-2.7,3.2c0,1.7,1.2,3.2,2.7,3.2c0.5,0,1-0.2,1.4-0.5c-0.4,0-0.9,0-1.3,0h-0.1c-0.1,0-0.1,0-0.2,0c-0.1,0-0.2,0-0.3,0c0,0-0.1,0-0.1,0c-1-0.3-1.7-1.4-1.7-2.6c0-1.5,1-2.7,2.2-2.7c0.5,0,1,0.2,1.4,0.6c0.4,0.4,0.7,1,0.8,1.7c0,0.1,0,0.2,0,0.3c0,0.4-0.1,0.8-0.2,1.2c-0.2,0.6-0.6,1-1.1,1.3c0.2,0.1,0.3,0.2,0.5,0.2c0.1-0.1,0.3-0.2,0.4-0.4c0.5-0.6,0.8-1.4,0.8-2.3C67.3,35.9,67.2,35.4,67,34.9"></path><linearGradient id="NAV-S-AMP-DAC-31" gradientUnits="userSpaceOnUse" x1="65.0335" y1="34.43" x2="65.0335" y2="38.3912"><stop offset="0" style="stop-color: #FFDF97;"></stop><stop offset="1" style="stop-color: #F7A39F;"></stop></linearGradient><path fill="url(#NAV-S-AMP-DAC-31)" d="M63.4,34.1c-0.6,0.5-0.8,1.3-0.9,1.7c-0.1,0.3-0.2,1.2,0.3,2.2c0.1,0.2,0.5,0.8,1.2,1.1c0.3,0.1,0.6,0.1,0.8,0.1l1.8,0c1.4-1.7,1.3-3.8,0.3-4.8c-0.7-0.3-1.2-0.4-1.8-0.6c-0.1,0-0.2,0-0.4,0C64.3,33.7,63.8,33.8,63.4,34.1"></path><path fill="#FFF6D2" d="M66.1,34.3c-1.1,0.2-1.9,1.2-1.9,2.4c0,1,0.5,1.8,1.3,2.2c0.2,0.1,0.3,0.2,0.5,0.2c0.1,0,0.2,0,0.3,0c1.2,0,2.2-1.1,2.2-2.4c0-1.1-0.7-2-1.6-2.3c-0.1-0.1-0.3-0.1-0.4-0.1c-0.1,0-0.1,0-0.2,0C66.4,34.3,66.2,34.3,66.1,34.3"></path><linearGradient id="NAV-S-AMP-DAC-32" gradientUnits="userSpaceOnUse" x1="23.5845" y1="22.4647" x2="28.7329" y2="22.4647"><stop offset="0" style="stop-color: #FFDF97;"></stop><stop offset="1" style="stop-color: #F7A39F;"></stop></linearGradient><path fill="url(#NAV-S-AMP-DAC-32)" d="M23.6,22.3c-0.1,0.4,0,1.3,0,1.3h5c0,0,0.4-1.6-0.7-1.9c-0.5-0.2-1.2-0.3-2-0.3C24.8,21.4,23.7,21.6,23.6,22.3"></path><linearGradient id="NAV-S-AMP-DAC-33" gradientUnits="userSpaceOnUse" x1="23.7942" y1="28.0759" x2="28.2924" y2="28.0759"><stop offset="0" style="stop-color: #FFDF97;"></stop><stop offset="1" style="stop-color: #F7A39F;"></stop></linearGradient><path fill="url(#NAV-S-AMP-DAC-33)" d="M26,24.8c-1.2,0-2.2-0.3-2.2,0.8v4.6c0,0.1,0,0.1,0,0.2c0,0,0,0.1,0,0.1c0,0.5,1,0.9,2.2,0.9c1.2,0,2.2-0.4,2.2-0.9c0,0,0-0.1,0-0.1c0-0.1,0-0.1,0-0.2l0.2-4.7c0-0.6-0.4-0.8-0.9-0.8C27,24.7,26.5,24.8,26,24.8"></path><linearGradient id="NAV-S-AMP-DAC-34" gradientUnits="userSpaceOnUse" x1="32.5675" y1="22.1856" x2="37.7162" y2="22.1856"><stop offset="0" style="stop-color: #FFDF97;"></stop><stop offset="1" style="stop-color: #F7A39F;"></stop></linearGradient><path fill="url(#NAV-S-AMP-DAC-34)" d="M32.6,22c-0.1,0.4,0,1.3,0,1.3h5c0,0,0.4-1.6-0.7-1.9c-0.5-0.2-1.2-0.3-2-0.3C33.8,21.1,32.7,21.3,32.6,22"></path><linearGradient id="NAV-S-AMP-DAC-35" gradientUnits="userSpaceOnUse" x1="32.7775" y1="27.797" x2="37.2757" y2="27.797"><stop offset="0" style="stop-color: #FFDF97;"></stop><stop offset="1" style="stop-color: #F7A39F;"></stop></linearGradient><path fill="url(#NAV-S-AMP-DAC-35)" d="M34.9,24.5c-1.2,0-2.2-0.3-2.2,0.8v4.6c0,0.1,0,0.1,0,0.2c0,0,0,0.1,0,0.1c0,0.5,1,0.9,2.2,0.9c1.2,0,2.2-0.4,2.2-0.9c0,0,0-0.1,0-0.1c0-0.1,0-0.1,0-0.2l0.2-4.7c0-0.6-0.4-0.8-0.9-0.8C35.9,24.5,35.4,24.5,34.9,24.5"></path><linearGradient id="NAV-S-AMP-DAC-36" gradientUnits="userSpaceOnUse" x1="41.551" y1="21.9064" x2="46.6994" y2="21.9064"><stop offset="0" style="stop-color: #FFDF97;"></stop><stop offset="1" style="stop-color: #F7A39F;"></stop></linearGradient><path fill="url(#NAV-S-AMP-DAC-36)" d="M41.6,21.7c-0.1,0.4,0,1.3,0,1.3h5c0,0,0.4-1.6-0.7-1.9c-0.5-0.2-1.2-0.3-2-0.3C42.8,20.8,41.7,21,41.6,21.7"></path><linearGradient id="NAV-S-AMP-DAC-37" gradientUnits="userSpaceOnUse" x1="41.7607" y1="27.5175" x2="46.2589" y2="27.5175"><stop offset="0" style="stop-color: #FFDF97;"></stop><stop offset="1" style="stop-color: #F7A39F;"></stop></linearGradient><path fill="url(#NAV-S-AMP-DAC-37)" d="M43.9,24.3c-1.2,0-2.2-0.3-2.2,0.8v4.6c0,0.1,0,0.1,0,0.2c0,0,0,0.1,0,0.1c0,0.5,1,0.9,2.2,0.9c1.2,0,2.2-0.4,2.2-0.9c0,0,0-0.1,0-0.1c0-0.1,0-0.1,0-0.2l0.2-4.7c0-0.6-0.4-0.8-0.9-0.8C44.9,24.2,44.4,24.3,43.9,24.3"></path><linearGradient id="NAV-S-AMP-DAC-38" gradientUnits="userSpaceOnUse" x1="50.5346" y1="21.6269" x2="55.6826" y2="21.6269"><stop offset="0" style="stop-color: #FFDF97;"></stop><stop offset="1" style="stop-color: #F7A39F;"></stop></linearGradient><path fill="url(#NAV-S-AMP-DAC-38)" d="M50.6,21.4c-0.1,0.4,0,1.3,0,1.3h5c0,0,0.4-1.6-0.7-1.9c-0.5-0.2-1.2-0.3-2-0.3C51.8,20.5,50.7,20.8,50.6,21.4"></path><linearGradient id="NAV-S-AMP-DAC-39" gradientUnits="userSpaceOnUse" x1="50.7446" y1="27.238" x2="55.2421" y2="27.238"><stop offset="0" style="stop-color: #FFDF97;"></stop><stop offset="1" style="stop-color: #F7A39F;"></stop></linearGradient><path fill="url(#NAV-S-AMP-DAC-39)" d="M52.9,24c-1.2,0-2.2-0.3-2.2,0.8v4.6c0,0.1,0,0.1,0,0.2c0,0,0,0.1,0,0.1c0,0.5,1,0.9,2.2,0.9c1.2,0,2.2-0.4,2.2-0.9c0,0,0-0.1,0-0.1c0-0.1,0-0.1,0-0.2l0.2-4.7c0-0.6-0.4-0.8-0.9-0.8C53.9,23.9,53.4,24,52.9,24"></path><polygon fill="#444" points="23.8,59.8 25.5,56.8 22,56.8"></polygon><polygon fill="#444" points="62.1,56 63.5,53.6 60.7,53.6"></polygon><rect x="24.7" y="23.4" fill="#444" width="2.8" height="1.4"></rect><rect x="33.7" y="23.2" fill="#444" width="2.8" height="1.4"></rect><rect x="42.7" y="22.9" fill="#444" width="2.8" height="1.4"></rect><rect x="51.7" y="22.6" fill="#444" width="2.8" height="1.4"></rect><polygon fill="#444" points="35.9,33.5 35.9,39.1 36.5,40.8 37.3,40.8 54.8,39.1 55.2,38 55.2,32.2"></polygon><polygon fill="#444" points="35.9,45.9 35.9,51.5 36.5,53.2 37.3,53.2 54.8,51.5 55.2,50.4 55.2,44.5"></polygon></g></svg>