<svg xmlns:xlink="http://www.w3.org/1999/xlink" xmlns="http://www.w3.org/2000/svg" x="0px" y="0px" width="65" height="65" viewBox="0 0 75 75" enable-background="new 0 0 75 75" xml:space="preserve"><defs><linearGradient id="NAV-sh-eartips-5" gradientUnits="userSpaceOnUse" x1="35.3339" y1="37.5603" x2="36.0329" y2="22.9973"><stop offset="0" style="stop-color: #ADA8F0;"></stop><stop offset="1" style="stop-color: #90F5F2;"></stop></linearGradient><linearGradient id="NAV-sh-eartips-5" gradientUnits="userSpaceOnUse" x1="35.3339" y1="37.5603" x2="36.0329" y2="22.9973"><stop offset="0" style="stop-color: #ADA8F0;"></stop><stop offset="1" style="stop-color: #90F5F2;"></stop></linearGradient><linearGradient id="NAV-sh-eartips-6" gradientUnits="userSpaceOnUse" x1="18.8043" y1="38.8304" x2="19.5033" y2="23.8013"><stop offset="0" style="stop-color: #ADA8F0;"></stop><stop offset="1" style="stop-color: #90F5F2;"></stop></linearGradient><linearGradient id="NAV-sh-eartips-7" gradientUnits="userSpaceOnUse" x1="35.2626" y1="27.3922" x2="35.7286" y2="18.1883"><stop offset="0" style="stop-color: #ADA8F0;"></stop><stop offset="1" style="stop-color: #90F5F2;"></stop></linearGradient><linearGradient id="NAV-sh-eartips-8" gradientUnits="userSpaceOnUse" x1="19.1653" y1="26.5772" x2="19.6313" y2="17.3733"><stop offset="0" style="stop-color: #ADA8F0;"></stop><stop offset="1" style="stop-color: #90F5F2;"></stop></linearGradient></defs><linearGradient id="NAV-sh-eartips-5" gradientUnits="userSpaceOnUse" x1="35.3339" y1="37.5603" x2="36.0329" y2="22.9973"><stop offset="0" style="stop-color: #ADA8F0;"></stop><stop offset="1" style="stop-color: #90F5F2;"></stop></linearGradient><path fill="url(&quot;#NAV-sh-eartips-5&quot;)" d="M32,21.8c0-0.8,1.9-1.4,4.1-1.4c2.2,0,4.1,0.7,4.1,1.4c0,0.8-1.8,1.4-4.1,1.4C33.7,23.2,32,22.6,32,21.8 M29.7,22c-2.8,3.1-3.3,7.6-3.3,7.6c-0.2,2.4,0.4,4.1,1.2,4.7c1.2,0.9,3,1.3,4.5,1.7c2.1,0.5,4.3,0.6,6.4,0.4c1.5-0.1,3.3-0.3,4.6-1c1.4-0.7,2-2.4,2-4.8c-0.1-2.4-1.2-6.5-3.1-8.6c-1-1.2-3.8-2-6.5-2C33.1,20,30.9,20.6,29.7,22"></path><linearGradient id="NAV-sh-eartips-6" gradientUnits="userSpaceOnUse" x1="18.8043" y1="38.8304" x2="19.5033" y2="23.8013"><stop offset="0" style="stop-color: #ADA8F0;"></stop><stop offset="1" style="stop-color: #90F5F2;"></stop></linearGradient><path fill="url(&quot;#NAV-sh-eartips-6&quot;)" d="M15.4,24.3c0-0.8,1.9-1.4,4.1-1.4c2.2,0,4.1,0.7,4.1,1.4c0,0.8-1.8,1.4-4.1,1.4C17.1,25.7,15.4,25,15.4,24.3 M13.1,24.4C10.3,27.6,9.7,32,9.7,32c-0.2,2.4,0.4,4.1,1.2,4.7c1.2,0.9,3,1.3,4.5,1.7c2.1,0.5,4.3,0.6,6.4,0.4c1.5-0.1,3.3-0.3,4.6-1c1.4-0.7,2-2.4,2-4.8c-0.1-2.4-1.2-6.5-3.1-8.6c-1-1.2-3.8-2-6.5-2C16.5,22.4,14.3,23,13.1,24.4"></path><path fill="#444444" d="M32.9,13.1c0.3-1,5.9-0.6,6,0.3c0.1,0.6-1.6,1.7-3.3,1.5C34.1,14.7,32.7,13.6,32.9,13.1z"></path><linearGradient id="NAV-sh-eartips-7" gradientUnits="userSpaceOnUse" x1="35.2626" y1="27.3922" x2="35.7286" y2="18.1883"><stop offset="0" style="stop-color: #ADA8F0;"></stop><stop offset="1" style="stop-color: #90F5F2;"></stop></linearGradient><path fill="url(&quot;#NAV-sh-eartips-7&quot;)" d="M33.2,13.6c0-0.5,1.2-0.9,2.7-0.9c1.5,0,2.7,0.4,2.7,0.9c0,0.5-1.2,0.9-2.7,0.9C34.4,14.5,33.2,14.1,33.2,13.6 M31.7,13.7c-1.8,2.1-2.2,5-2.2,5c-0.2,1.6,0.3,2.7,0.8,3.1c0.8,0.6,2,0.9,3,1.1c1.4,0.3,2.8,0.4,4.2,0.3c1-0.1,2.2-0.2,3.1-0.7c0.9-0.5,1.4-1.6,1.3-3.2c0-1.6-0.8-4.3-2.1-5.7c-0.7-0.8-2.5-1.3-4.3-1.3C34,12.4,32.5,12.8,31.7,13.7"></path><path fill="#444444" d="M16.5,16.2c0.2-0.9,5.7-1.1,6,0c0.2,0.5-0.9,1.3-1.7,1.6C18.7,18.6,16.3,16.9,16.5,16.2z"></path><linearGradient id="NAV-sh-eartips-8" gradientUnits="userSpaceOnUse" x1="19.1653" y1="26.5772" x2="19.6313" y2="17.3733"><stop offset="0" style="stop-color: #ADA8F0;"></stop><stop offset="1" style="stop-color: #90F5F2;"></stop></linearGradient><path fill="url(&quot;#NAV-sh-eartips-8&quot;)" d="M16.9,16.5c0-0.5,1.2-0.9,2.7-0.9c1.5,0,2.7,0.4,2.7,0.9c0,0.5-1.2,0.9-2.7,0.9S16.9,17,16.9,16.5 M15.4,16.6c-1.8,2.1-2.2,5-2.2,5c-0.2,1.6,0.3,2.7,0.8,3.1c0.8,0.6,2,0.9,3,1.1c1.4,0.3,2.8,0.4,4.2,0.3c1-0.1,2.2-0.2,3.1-0.7c0.9-0.5,1.4-1.6,1.3-3.2c0-1.6-0.8-4.3-2.1-5.7c-0.7-0.8-2.5-1.3-4.3-1.3C17.7,15.3,16.2,15.7,15.4,16.6"></path><path fill="#444444" d="M41.3,29.7c1.3-2.2,9.7-0.7,9.7,0.6c0.1,1.3-7.5,3.8-9.4,1.4C41.2,31.2,40.9,30.3,41.3,29.7z"></path><path fill="#89EAE1" d="M55.7,40.2c-0.1-2.7-1.3-7.3-3.4-9.7c-2.1-2.3-10.2-3.5-13.2,0c-3,3.5-3.6,8.5-3.6,8.5c-0.3,2.7,0.4,4.6,1.3,5.2c1.4,1,3.3,1.5,4.9,1.9c2.3,0.6,4.6,0.6,6.9,0.4c1.6-0.2,3.6-0.3,5-1.1C55,44.8,55.7,42.8,55.7,40.2 M45.9,31.9c-2.5,0-4.4-0.7-4.4-1.5c0-0.9,2-1.5,4.4-1.5c2.5,0,4.4,0.7,4.4,1.5C50.3,31.2,48.3,31.9,45.9,31.9"></path><path fill="#444444" d="M25.8,33.2c0.8-2,10.3-1.1,10.5,0.6c0.2,1.2-4,4.2-7.6,2.7C27.2,35.8,25.5,34.1,25.8,33.2z"></path><path fill="#89EAE1" d="M41.5,44.6c-0.1-2.9-1.5-8-3.7-10.6c-2.3-2.6-11.1-3.9-14.4,0c-3.3,3.9-3.9,9.3-3.9,9.3c-0.3,2.9,0.5,5,1.5,5.7c1.5,1.1,3.6,1.6,5.3,2.1c2.5,0.6,5,0.7,7.5,0.5c1.7-0.2,3.9-0.3,5.5-1.2C40.8,49.6,41.6,47.5,41.5,44.6 M30.9,35.6c-2.7,0-4.8-0.8-4.8-1.7c0-1,2.2-1.7,4.8-1.7c2.6,0,4.8,0.8,4.8,1.7C35.7,34.9,33.6,35.6,30.9,35.6"></path><path fill="#444444" d="M39.4,47.4c0.9-1.5,6.6-0.7,6.9,0.9c0.2,1.1-1.9,3.5-4.3,2.9C40,50.7,38.9,48.3,39.4,47.4z"></path><path fill="#ADA8F0" d="M49.1,56.8c0-2.4-0.9-6.5-2.3-8.6c-1.4-2.1-6.9-3.1-8.9,0c-2,3.1-2.4,7.6-2.4,7.6c-0.2,2.4,0.3,4,0.9,4.6c0.9,0.9,2.2,1.3,3.3,1.7c1.5,0.5,3.1,0.6,4.6,0.4c1.1-0.1,2.4-0.3,3.4-1C48.7,60.8,49.2,59.1,49.1,56.8 M42.5,49.5c-1.7,0-3-0.7-3-1.4c0-0.8,1.4-1.4,3-1.4c1.6,0,3,0.7,3,1.4C45.5,48.9,44.2,49.5,42.5,49.5"></path><path fill="#444444" d="M57,40.9c2.4-1.2,5.4,0.9,5.3,1.7c-0.2,1.1-6.5,1.7-7,0.4C55,42.4,56.1,41.3,57,40.9z"></path><path fill="#ADA8F0" d="M65.3,51c0-2.4-0.9-6.5-2.3-8.6c-1.4-2.1-6.9-3.1-8.9,0c-2,3.1-2.4,7.6-2.4,7.6c-0.2,2.4,0.3,4,0.9,4.6c0.9,0.9,2.2,1.3,3.3,1.7c1.5,0.5,3.1,0.6,4.6,0.4c1.1-0.1,2.4-0.3,3.4-1C64.9,55.1,65.4,53.4,65.3,51 M58.7,43.7c-1.7,0-3-0.7-3-1.4c0-0.8,1.4-1.4,3-1.4c1.6,0,3,0.7,3,1.4C61.7,43.1,60.4,43.7,58.7,43.7"></path><g id="NAV-SH-ET-O" opacity="0"><rect x="0" y="0" width="100" height="100" fill="#fff"></rect><linearGradient id="NAV-sh-eartips-9" gradientUnits="userSpaceOnUse" x1="35.3339" y1="37.5603" x2="36.0329" y2="22.9973"><stop offset="0" style="stop-color: #F7A39F;"></stop><stop offset="1" style="stop-color: #FFDF97;"></stop></linearGradient><path fill="url(#NAV-sh-eartips-9)" d="M32,21.8c0-0.8,1.9-1.4,4.1-1.4c2.2,0,4.1,0.7,4.1,1.4c0,0.8-1.8,1.4-4.1,1.4C33.7,23.2,32,22.6,32,21.8 M29.7,22c-2.8,3.1-3.3,7.6-3.3,7.6c-0.2,2.4,0.4,4.1,1.2,4.7c1.2,0.9,3,1.3,4.5,1.7c2.1,0.5,4.3,0.6,6.4,0.4c1.5-0.1,3.3-0.3,4.6-1c1.4-0.7,2-2.4,2-4.8c-0.1-2.4-1.2-6.5-3.1-8.6c-1-1.2-3.8-2-6.5-2C33.1,20,30.9,20.6,29.7,22"></path><linearGradient id="NAV-sh-eartips-10" gradientUnits="userSpaceOnUse" x1="18.8043" y1="38.8304" x2="19.5033" y2="23.8013"><stop offset="0" style="stop-color: #F7A39F;"></stop><stop offset="1" style="stop-color: #FFDF97;"></stop></linearGradient><path fill="url(#NAV-sh-eartips-10)" d="M15.4,24.3c0-0.8,1.9-1.4,4.1-1.4c2.2,0,4.1,0.7,4.1,1.4c0,0.8-1.8,1.4-4.1,1.4C17.1,25.7,15.4,25,15.4,24.3 M13.1,24.4C10.3,27.6,9.7,32,9.7,32c-0.2,2.4,0.4,4.1,1.2,4.7c1.2,0.9,3,1.3,4.5,1.7c2.1,0.5,4.3,0.6,6.4,0.4c1.5-0.1,3.3-0.3,4.6-1c1.4-0.7,2-2.4,2-4.8c-0.1-2.4-1.2-6.5-3.1-8.6c-1-1.2-3.8-2-6.5-2C16.5,22.4,14.3,23,13.1,24.4"></path><path fill="#444" d="M32.9,13.1c0.3-1,5.9-0.6,6,0.3c0.1,0.6-1.6,1.7-3.3,1.5C34.1,14.7,32.7,13.6,32.9,13.1z"></path><linearGradient id="NAV-sh-eartips-11" gradientUnits="userSpaceOnUse" x1="35.2626" y1="27.3922" x2="35.7286" y2="18.1883"><stop offset="0" style="stop-color: #F7A39F;"></stop><stop offset="1" style="stop-color: #FFDF97;"></stop></linearGradient><path fill="url(#NAV-sh-eartips-11)" d="M33.2,13.6c0-0.5,1.2-0.9,2.7-0.9c1.5,0,2.7,0.4,2.7,0.9c0,0.5-1.2,0.9-2.7,0.9C34.4,14.5,33.2,14.1,33.2,13.6 M31.7,13.7c-1.8,2.1-2.2,5-2.2,5c-0.2,1.6,0.3,2.7,0.8,3.1c0.8,0.6,2,0.9,3,1.1c1.4,0.3,2.8,0.4,4.2,0.3c1-0.1,2.2-0.2,3.1-0.7c0.9-0.5,1.4-1.6,1.3-3.2c0-1.6-0.8-4.3-2.1-5.7c-0.7-0.8-2.5-1.3-4.3-1.3C34,12.4,32.5,12.8,31.7,13.7"></path><path fill="#444" d="M16.5,16.2c0.2-0.9,5.7-1.1,6,0c0.2,0.5-0.9,1.3-1.7,1.6C18.7,18.6,16.3,16.9,16.5,16.2z"></path><linearGradient id="NAV-sh-eartips-12" gradientUnits="userSpaceOnUse" x1="19.1653" y1="26.5772" x2="19.6313" y2="17.3733"><stop offset="0" style="stop-color: #F7A39F;"></stop><stop offset="1" style="stop-color: #FFDF97;"></stop></linearGradient><path fill="url(#NAV-sh-eartips-12)" d="M16.9,16.5c0-0.5,1.2-0.9,2.7-0.9c1.5,0,2.7,0.4,2.7,0.9c0,0.5-1.2,0.9-2.7,0.9S16.9,17,16.9,16.5 M15.4,16.6c-1.8,2.1-2.2,5-2.2,5c-0.2,1.6,0.3,2.7,0.8,3.1c0.8,0.6,2,0.9,3,1.1c1.4,0.3,2.8,0.4,4.2,0.3c1-0.1,2.2-0.2,3.1-0.7c0.9-0.5,1.4-1.6,1.3-3.2c0-1.6-0.8-4.3-2.1-5.7c-0.7-0.8-2.5-1.3-4.3-1.3C17.7,15.3,16.2,15.7,15.4,16.6"></path><path fill="#444" d="M41.3,29.7c1.3-2.2,9.7-0.7,9.7,0.6c0.1,1.3-7.5,3.8-9.4,1.4C41.2,31.2,40.9,30.3,41.3,29.7z"></path><path fill="#FFDF97" d="M55.7,40.2c-0.1-2.7-1.3-7.3-3.4-9.7c-2.1-2.3-10.2-3.5-13.2,0c-3,3.5-3.6,8.5-3.6,8.5c-0.3,2.7,0.4,4.6,1.3,5.2c1.4,1,3.3,1.5,4.9,1.9c2.3,0.6,4.6,0.6,6.9,0.4c1.6-0.2,3.6-0.3,5-1.1C55,44.8,55.7,42.8,55.7,40.2 M45.9,31.9c-2.5,0-4.4-0.7-4.4-1.5c0-0.9,2-1.5,4.4-1.5c2.5,0,4.4,0.7,4.4,1.5C50.3,31.2,48.3,31.9,45.9,31.9"></path><path fill="#444" d="M25.8,33.2c0.8-2,10.3-1.1,10.5,0.6c0.2,1.2-4,4.2-7.6,2.7C27.2,35.8,25.5,34.1,25.8,33.2z"></path><path fill="#FFDF97" d="M41.5,44.6c-0.1-2.9-1.5-8-3.7-10.6c-2.3-2.6-11.1-3.9-14.4,0c-3.3,3.9-3.9,9.3-3.9,9.3c-0.3,2.9,0.5,5,1.5,5.7c1.5,1.1,3.6,1.6,5.3,2.1c2.5,0.6,5,0.7,7.5,0.5c1.7-0.2,3.9-0.3,5.5-1.2C40.8,49.6,41.6,47.5,41.5,44.6 M30.9,35.6c-2.7,0-4.8-0.8-4.8-1.7c0-1,2.2-1.7,4.8-1.7c2.6,0,4.8,0.8,4.8,1.7C35.7,34.9,33.6,35.6,30.9,35.6"></path><path fill="#444" d="M39.4,47.4c0.9-1.5,6.6-0.7,6.9,0.9c0.2,1.1-1.9,3.5-4.3,2.9C40,50.7,38.9,48.3,39.4,47.4z"></path><path fill="#F7A39F" d="M49.1,56.8c0-2.4-0.9-6.5-2.3-8.6c-1.4-2.1-6.9-3.1-8.9,0c-2,3.1-2.4,7.6-2.4,7.6c-0.2,2.4,0.3,4,0.9,4.6c0.9,0.9,2.2,1.3,3.3,1.7c1.5,0.5,3.1,0.6,4.6,0.4c1.1-0.1,2.4-0.3,3.4-1C48.7,60.8,49.2,59.1,49.1,56.8 M42.5,49.5c-1.7,0-3-0.7-3-1.4c0-0.8,1.4-1.4,3-1.4c1.6,0,3,0.7,3,1.4C45.5,48.9,44.2,49.5,42.5,49.5"></path><path fill="#444" d="M57,40.9c2.4-1.2,5.4,0.9,5.3,1.7c-0.2,1.1-6.5,1.7-7,0.4C55,42.4,56.1,41.3,57,40.9z"></path><path fill="#F7A39F" d="M65.3,51c0-2.4-0.9-6.5-2.3-8.6c-1.4-2.1-6.9-3.1-8.9,0c-2,3.1-2.4,7.6-2.4,7.6c-0.2,2.4,0.3,4,0.9,4.6c0.9,0.9,2.2,1.3,3.3,1.7c1.5,0.5,3.1,0.6,4.6,0.4c1.1-0.1,2.4-0.3,3.4-1C64.9,55.1,65.4,53.4,65.3,51 M58.7,43.7c-1.7,0-3-0.7-3-1.4c0-0.8,1.4-1.4,3-1.4c1.6,0,3,0.7,3,1.4C61.7,43.1,60.4,43.7,58.7,43.7"></path></g></svg>