<svg xmlns="http://www.w3.org/2000/svg" xmlns:xlink="http://www.w3.org/1999/xlink" x="0px" y="0px" width="65" height="65" viewBox="0 0 75 75" enable-background="new 0 0 75 75" xml:space="preserve"><defs><linearGradient id="NAV-SH-BH-2" gradientUnits="userSpaceOnUse" x1="30.6619" y1="53.0675" x2="60.9618" y2="53.0675"><stop offset="0" style="stop-color: #ADA8F0;"></stop><stop offset="1" style="stop-color: #90F5F2;"></stop></linearGradient><linearGradient id="NAV-SH-BH-2" gradientUnits="userSpaceOnUse" x1="30.6619" y1="53.0675" x2="60.9618" y2="53.0675"><stop offset="0" style="stop-color: #ADA8F0;"></stop><stop offset="1" style="stop-color: #90F5F2;"></stop></linearGradient><linearGradient id="NAV-SH-BH-3" gradientUnits="userSpaceOnUse" x1="35.5127" y1="53.618" x2="58.9084" y2="53.618"><stop offset="0" style="stop-color: #DCFAEA;"></stop><stop offset="1" style="stop-color: #DFEEF7;"></stop></linearGradient></defs><path fill="#444444" d="M26.4,39l-0.1-5.4l-3.9,0.1l0.1,5.8c-5.8,1-9.8,5.5-9.9,9.9c-0.1,5.5,6.1,11.2,13.9,10C26.4,52.6,26.4,45.8,26.4,39z M25.8,58.6c-6.1,1-11.1-3.6-11.2-8c-0.1-4.4,4.8-9.2,11-8.3C25.6,47.7,25.7,53.1,25.8,58.6z"></path><linearGradient id="NAV-sh-BH-1" gradientUnits="userSpaceOnUse" x1="14.7467" y1="53.8894" x2="45.7661" y2="53.8894"><stop offset="0" style="stop-color: #ADA8F0;"></stop><stop offset="1" style="stop-color: #90F5F2;"></stop></linearGradient><path fill="url(&quot;#NAV-SH-BH-1&quot;)" d="M45.3,50.1c-1.6-6.3-7.1-11-13.6-11.6c-5.8-0.5-11.4,2.2-14.6,7.1c-4,6.2-2.9,14.7,2.5,19.7c4.2,3.9,10.4,5.3,15.8,3.3C42.9,65.8,47.3,57.8,45.3,50.1z"></path><path fill="#89EAE1" d="M17.9,54.9c-0.1-8.6,6.7-15.6,15.3-15.8C41.8,39,48.8,45.8,49,54.4C49.1,63,42.3,70,33.7,70.2C25.1,70.3,18,63.4,17.9,54.9"></path><path fill="#EFEFEF" d="M22.6,54c-0.1-4.8,3.8-8.8,8.6-8.8c4.8-0.1,8.8,3.8,8.8,8.6c0.1,4.8-3.8,8.8-8.6,8.8C26.7,62.7,22.7,58.8,22.6,54"></path><path fill="#444444" d="M61.4,50.7c0.4-5.9-2.7-11.5-8.1-14.1l-0.1-5.9l-3.9,0.1l0.1,4.6c-3.8-0.6-7.7,0.5-10.7,2.7c2.7-1.6,5.9-2.4,9.1-1.9c0.6,0.1,1.1,0.2,1.6,0.4c0.5,0.2,1,0.3,1.5,0.5c4.9,2,8.5,6.6,9.6,11.8c0.1,0.5,0.2,1,0.3,1.5c-0.2,1.5-0.4,3-0.6,4.5c1.3-0.2,2.3-1.2,2.3-2.3C62.4,51.5,61.5,50.8,61.4,50.7z"></path><path fill="#82E1D5" d="M40.5,5.8l-5.9,0.1c8,0.6,14.5,11.2,14.6,24.2c0,0.2,0,0.5,0,0.7l6.7,0.1c0-0.3,0-0.6,0-0.9C55.8,17.3,49.6,6.9,41.9,5.9c-0.4-0.1-0.8-0.1-1.2-0.1C40.6,5.8,40.6,5.8,40.5,5.8"></path><path fill="#82E1D5" d="M37.1,10.2c-5.6-1.5-8.8,0.1-9.9,0.7c-7,4.1-6.1,16.1-5.9,18.8c0.2,2.6,0.6,4.8,1.1,6.3c2.3,0,4.8-0.1,7.2-0.1c-0.1-3.6-0.3-7.4,0-11c0.3-3.3,1.1-6.7,3.5-10.3C34.5,12.5,36,11.1,37.1,10.2z"></path><linearGradient id="NAV-SH-BH-2" gradientUnits="userSpaceOnUse" x1="30.6619" y1="53.0675" x2="60.9618" y2="53.0675"><stop offset="0" style="stop-color: #ADA8F0;"></stop><stop offset="1" style="stop-color: #90F5F2;"></stop></linearGradient><path fill="url(&quot;#NAV-SH-BH-2&quot;)" d="M60.5,48.9c-1.3-5.5-5.9-11.8-12.8-12.7c-6.4-0.9-11.2,3.4-11.7,3.8c-3.5,3.2-4.7,7.7-5,8.9c0,0,0,0,0,0c0,0,0,0,0,0c-1.2,5.7,0.2,11.9,4.2,16.3c4,4.3,10.2,6,15.7,3.8C58.7,65.9,62.3,56.8,60.5,48.9z"></path><path fill="#ADA8F0" d="M49.3,30.1c-0.1-5.5-1.2-11.1-3.9-16c-2.2-3.9-5.8-7.8-10.5-8.2c-4.5-0.4-8.3,2.4-10.8,6c-3.3,4.7-4.3,9.6-4.9,14.6c-0.5,4-0.3,7.3-0.1,9.5c1.1,0,2.2,0,3.3-0.1c-0.3-4.3,0-7.9,0.4-10.3c0.8-5.3,1.5-10.3,5.4-13.5c0.9-0.7,2.9-2.4,5.7-2.4c2,0,4.1,0.7,5.8,2.3c4,3.5,5.7,9.2,6.2,14.4c0.1,1.5,0.1,2.9,0.1,4.4c1.1,0,2.2,0,3.4,0.1C49.3,30.6,49.3,30.3,49.3,30.1z"></path><path fill="#444444" d="M52.4,36.2c-7.4-2.9-15.8,0.8-18.8,8.4c-0.1,0.3-0.2,0.5-0.3,0.8l0,0l-0.7,2.1c-1,0.3-1.7,1.2-1.7,2.2c0,1.3,1.1,2.3,2.3,2.3c1.3,0,2.3-1.1,2.3-2.3c0-0.5-0.2-0.9-0.4-1.3c0.1-0.3,0.2-0.6,0.3-0.9l0,0l0,0c0,0,0,0,0,0l0,0l0,0c0.2-0.6,0.4-1.2,0.5-1.4c1.9-4.8,9-9.6,16.2-7.3c5.7,1.9,9.6,7.7,9,14C62.5,45.8,59,38.8,52.4,36.2z"></path><path fill="#444444" d="M31,49.6c0-0.2,0.1-0.4,0.1-0.6C31,49.2,31,49.4,31,49.6z"></path><linearGradient id="NAV-SH-BH-3" gradientUnits="userSpaceOnUse" x1="35.5127" y1="53.618" x2="58.9084" y2="53.618"><stop offset="0" style="stop-color: #DCFAEA;"></stop><stop offset="1" style="stop-color: #DFEEF7;"></stop></linearGradient><path fill="url(&quot;#NAV-SH-BH-3&quot;)" d="M47,39.1c-6.5,0.1-11.6,6.7-11.5,14.7c0.1,8,5.5,14.4,11.9,14.3C53.9,68,59,61.5,58.9,53.4c-0.1-8-5.4-14.3-11.8-14.3C47.1,39.1,47,39.1,47,39.1"></path><path fill="#AAA5ED" d="M55.9,50.7C55.9,50.7,55.8,50.7,55.9,50.7L40.3,50c-0.6,0-1.1-0.6-1.1-1.2c0-0.6,0.6-1.1,1.2-1.1l15.5,0.6c0.6,0,1.1,0.6,1.1,1.2C57,50.2,56.5,50.7,55.9,50.7"></path><path fill="#AAA5ED" d="M56.3,55.2C56.3,55.2,56.2,55.2,56.3,55.2l-17-0.7c-0.6,0-1.1-0.6-1.1-1.2c0-0.6,0.6-1.2,1.2-1.1l17,0.7c0.6,0,1.1,0.6,1.1,1.2C57.4,54.8,56.9,55.2,56.3,55.2"></path><path fill="#AAA5ED" d="M55.4,59.7C55.4,59.7,55.4,59.7,55.4,59.7l-15.1-0.6c-0.6,0-1.1-0.6-1.1-1.2c0-0.6,0.6-1.2,1.2-1.1l15,0.6c0.6,0,1.1,0.6,1.1,1.2C56.5,59.3,56,59.7,55.4,59.7"></path><path fill="#AAA5ED" d="M52.5,64.2C52.5,64.2,52.5,64.2,52.5,64.2l-10.2-0.4c-0.6,0-1.1-0.6-1.1-1.2c0-0.6,0.6-1.2,1.2-1.1l10.2,0.4c0.6,0,1.1,0.6,1.1,1.2C53.6,63.7,53.1,64.2,52.5,64.2"></path><path fill="#AAA5ED" d="M53.3,46.1C53.3,46.1,53.3,46.1,53.3,46.1l-10.2-0.4c-0.6,0-1.1-0.6-1.1-1.2c0-0.6,0.5-1.1,1.2-1.1l10.2,0.4c0.6,0,1.1,0.6,1.1,1.2C54.5,45.7,54,46.1,53.3,46.1"></path><g id="NAV-SH-BH-O" opacity="0"><rect x="0" y="0" width="100" height="100" fill="#fff"></rect><path fill="#444" d="M26.4,39l-0.1-5.4l-3.9,0.1l0.1,5.8c-5.8,1-9.8,5.5-9.9,9.9c-0.1,5.5,6.1,11.2,13.9,10C26.4,52.6,26.4,45.8,26.4,39z M25.8,58.6c-6.1,1-11.1-3.6-11.2-8c-0.1-4.4,4.8-9.2,11-8.3C25.6,47.7,25.7,53.1,25.8,58.6z"></path><path fill="#F7A39F" d="M45.3,50.1c-1.6-6.3-7.1-11-13.6-11.6c-5.8-0.5-11.4,2.2-14.6,7.1c-4,6.2-2.9,14.7,2.5,19.7c4.2,3.9,10.4,5.3,15.8,3.3C42.9,65.8,47.3,57.8,45.3,50.1z"></path><path fill="#FFDF97" d="M17.9,54.9c-0.1-8.6,6.7-15.6,15.3-15.8C41.8,39,48.8,45.8,49,54.4C49.1,63,42.3,70,33.7,70.2C25.1,70.3,18,63.4,17.9,54.9"></path><path fill="#EFEFEF" d="M22.6,54c-0.1-4.8,3.8-8.8,8.6-8.8c4.8-0.1,8.8,3.8,8.8,8.6c0.1,4.8-3.8,8.8-8.6,8.8C26.7,62.7,22.7,58.8,22.6,54"></path><path fill="#444" d="M61.4,50.7c0.4-5.9-2.7-11.5-8.1-14.1l-0.1-5.9l-3.9,0.1l0.1,4.6c-3.8-0.6-7.7,0.5-10.7,2.7c2.7-1.6,5.9-2.4,9.1-1.9c0.6,0.1,1.1,0.2,1.6,0.4c0.5,0.2,1,0.3,1.5,0.5c4.9,2,8.5,6.6,9.6,11.8c0.1,0.5,0.2,1,0.3,1.5c-0.2,1.5-0.4,3-0.6,4.5c1.3-0.2,2.3-1.2,2.3-2.3C62.4,51.5,61.5,50.8,61.4,50.7z"></path><path fill="#FFDF97" d="M40.5,5.8l-5.9,0.1c8,0.6,14.5,11.2,14.6,24.2c0,0.2,0,0.5,0,0.7l6.7,0.1c0-0.3,0-0.6,0-0.9C55.8,17.3,49.6,6.9,41.9,5.9c-0.4-0.1-0.8-0.1-1.2-0.1C40.6,5.8,40.6,5.8,40.5,5.8"></path><path fill="#FFDF97" d="M37.1,10.2c-5.6-1.5-8.8,0.1-9.9,0.7c-7,4.1-6.1,16.1-5.9,18.8c0.2,2.6,0.6,4.8,1.1,6.3c2.3,0,4.8-0.1,7.2-0.1c-0.1-3.6-0.3-7.4,0-11c0.3-3.3,1.1-6.7,3.5-10.3C34.5,12.5,36,11.1,37.1,10.2z"></path><linearGradient id="NAV-SH-BH-4" gradientUnits="userSpaceOnUse" x1="30.6619" y1="53.0675" x2="60.9618" y2="53.0675"><stop offset="0" style="stop-color: #F7A39F;"></stop><stop offset="1" style="stop-color: #FFDF97;"></stop></linearGradient><path fill="url(#NAV-SH-BH-4)" d="M60.5,48.9c-1.3-5.5-5.9-11.8-12.8-12.7c-6.4-0.9-11.2,3.4-11.7,3.8c-3.5,3.2-4.7,7.7-5,8.9c0,0,0,0,0,0c0,0,0,0,0,0c-1.2,5.7,0.2,11.9,4.2,16.3c4,4.3,10.2,6,15.7,3.8C58.7,65.9,62.3,56.8,60.5,48.9z"></path><path fill="#F7A39F" d="M49.3,30.1c-0.1-5.5-1.2-11.1-3.9-16c-2.2-3.9-5.8-7.8-10.5-8.2c-4.5-0.4-8.3,2.4-10.8,6c-3.3,4.7-4.3,9.6-4.9,14.6c-0.5,4-0.3,7.3-0.1,9.5c1.1,0,2.2,0,3.3-0.1c-0.3-4.3,0-7.9,0.4-10.3c0.8-5.3,1.5-10.3,5.4-13.5c0.9-0.7,2.9-2.4,5.7-2.4c2,0,4.1,0.7,5.8,2.3c4,3.5,5.7,9.2,6.2,14.4c0.1,1.5,0.1,2.9,0.1,4.4c1.1,0,2.2,0,3.4,0.1C49.3,30.6,49.3,30.3,49.3,30.1z"></path><path fill="#444" d="M52.4,36.2c-7.4-2.9-15.8,0.8-18.8,8.4c-0.1,0.3-0.2,0.5-0.3,0.8l0,0l-0.7,2.1c-1,0.3-1.7,1.2-1.7,2.2c0,1.3,1.1,2.3,2.3,2.3c1.3,0,2.3-1.1,2.3-2.3c0-0.5-0.2-0.9-0.4-1.3c0.1-0.3,0.2-0.6,0.3-0.9l0,0l0,0c0,0,0,0,0,0l0,0l0,0c0.2-0.6,0.4-1.2,0.5-1.4c1.9-4.8,9-9.6,16.2-7.3c5.7,1.9,9.6,7.7,9,14C62.5,45.8,59,38.8,52.4,36.2z"></path><path fill="#444" d="M31,49.6c0-0.2,0.1-0.4,0.1-0.6C31,49.2,31,49.4,31,49.6z"></path><path fill="#FCE4E3" d="M47,39.1c-6.5,0.1-11.6,6.7-11.5,14.7c0.1,8,5.5,14.4,11.9,14.3C53.9,68,59,61.5,58.9,53.4c-0.1-8-5.4-14.3-11.8-14.3C47.1,39.1,47,39.1,47,39.1"></path><path fill="#F7A39F" d="M55.9,50.7C55.9,50.7,55.8,50.7,55.9,50.7L40.3,50c-0.6,0-1.1-0.6-1.1-1.2c0-0.6,0.6-1.1,1.2-1.1l15.5,0.6c0.6,0,1.1,0.6,1.1,1.2C57,50.2,56.5,50.7,55.9,50.7"></path><path fill="#F7A39F" d="M56.3,55.2C56.3,55.2,56.2,55.2,56.3,55.2l-17-0.7c-0.6,0-1.1-0.6-1.1-1.2c0-0.6,0.6-1.2,1.2-1.1l17,0.7c0.6,0,1.1,0.6,1.1,1.2C57.4,54.8,56.9,55.2,56.3,55.2"></path><path fill="#F7A39F" d="M55.4,59.7C55.4,59.7,55.4,59.7,55.4,59.7l-15.1-0.6c-0.6,0-1.1-0.6-1.1-1.2c0-0.6,0.6-1.2,1.2-1.1l15,0.6c0.6,0,1.1,0.6,1.1,1.2C56.5,59.3,56,59.7,55.4,59.7"></path><path fill="#F7A39F" d="M52.5,64.2C52.5,64.2,52.5,64.2,52.5,64.2l-10.2-0.4c-0.6,0-1.1-0.6-1.1-1.2c0-0.6,0.6-1.2,1.2-1.1l10.2,0.4c0.6,0,1.1,0.6,1.1,1.2C53.6,63.7,53.1,64.2,52.5,64.2"></path><path fill="#F7A39F" d="M53.3,46.1C53.3,46.1,53.3,46.1,53.3,46.1l-10.2-0.4c-0.6,0-1.1-0.6-1.1-1.2c0-0.6,0.5-1.1,1.2-1.1l10.2,0.4c0.6,0,1.1,0.6,1.1,1.2C54.5,45.7,54,46.1,53.3,46.1"></path></g></svg>