<svg xmlns="http://www.w3.org/2000/svg" xmlns:xlink="http://www.w3.org/1999/xlink" x="0px" y="0px" width="65" height="65" viewBox="0 0 75 75" enable-background="new 0 0 75 75" xml:space="preserve"><defs><linearGradient id="NAV-SH-C-1" gradientUnits="userSpaceOnUse" x1="24.3084" y1="49.7329" x2="52.8641" y2="49.7329"><stop offset="0" style="stop-color: #ADA8F0;"></stop><stop offset="1" style="stop-color: #90F5F2;"></stop></linearGradient><linearGradient id="NAV-SH-C-1" gradientUnits="userSpaceOnUse" x1="24.3084" y1="49.7329" x2="52.8641" y2="49.7329"><stop offset="0" style="stop-color: #ADA8F0;"></stop><stop offset="1" style="stop-color: #90F5F2;"></stop></linearGradient><linearGradient id="NAV-SH-C-2" gradientUnits="userSpaceOnUse" x1="20.8903" y1="49.7333" x2="56.2808" y2="49.7333"><stop offset="0" style="stop-color: #ADA8F0;"></stop><stop offset="1" style="stop-color: #90F5F2;"></stop></linearGradient><linearGradient id="NAV-SH-C-3" gradientUnits="userSpaceOnUse" x1="14.1699" y1="38.6824" x2="59.3816" y2="38.6824"><stop offset="0" style="stop-color: #ADA8F0;"></stop><stop offset="1" style="stop-color: #90F5F2;"></stop></linearGradient></defs><linearGradient id="NAV-SH-C-1" gradientUnits="userSpaceOnUse" x1="24.3084" y1="49.7329" x2="52.8641" y2="49.7329"><stop offset="0" style="stop-color: #ADA8F0;"></stop><stop offset="1" style="stop-color: #90F5F2;"></stop></linearGradient><path fill="url(&quot;#NAV-SH-C-1&quot;)" d="M26.2,49.7c0-6.9,5.6-12.4,12.4-12.4c6.9,0,12.4,5.6,12.4,12.4c0,6.9-5.6,12.4-12.4,12.4C31.7,62.2,26.2,56.6,26.2,49.7 M24.3,49.7c0,7.9,6.4,14.3,14.3,14.3c7.9,0,14.3-6.4,14.3-14.3s-6.4-14.3-14.3-14.3C30.7,35.5,24.3,41.9,24.3,49.7"></path><linearGradient id="NAV-SH-C-2" gradientUnits="userSpaceOnUse" x1="20.8903" y1="49.7333" x2="56.2808" y2="49.7333"><stop offset="0" style="stop-color: #ADA8F0;"></stop><stop offset="1" style="stop-color: #90F5F2;"></stop></linearGradient><path fill="url(&quot;#NAV-SH-C-2&quot;)" d="M22.7,49.7c0-8.7,7.1-15.8,15.8-15.8S54.4,41,54.4,49.7c0,8.7-7.1,15.8-15.8,15.8S22.7,58.5,22.7,49.7 M20.9,49.7c0,9.8,7.9,17.7,17.7,17.7c9.8,0,17.7-7.9,17.7-17.7C56.3,40,48.3,32,38.6,32C28.8,32,20.9,40,20.9,49.7"></path><linearGradient id="NAV-SH-C-3" gradientUnits="userSpaceOnUse" x1="14.1699" y1="38.6824" x2="59.3816" y2="38.6824"><stop offset="0" style="stop-color: #ADA8F0;"></stop><stop offset="1" style="stop-color: #90F5F2;"></stop></linearGradient><path fill="url(&quot;#NAV-SH-C-3&quot;)" d="M19.6,49.7c0-10.4,8.5-18.9,18.9-18.9c10.4,0,18.9,8.5,18.9,18.9c0,10.4-8.5,18.9-18.9,18.9C28.1,68.7,19.6,60.2,19.6,49.7 M22,7.4c-8.1,2.8-7.9,11.3-7.9,12v22c0,9.7,6.2,18.5,6.5,18.9l0,0c3.6,6.1,10.3,10.2,17.9,10.2c11.5,0,20.8-9.3,20.8-20.8V19.9h-1.9v21.3C54.3,34,47,28.9,38.6,28.9c-8.4,0-15.7,5.1-19,12.3v-10l0-0.1c0-0.3-0.5-7.8,6.6-10.2c1.3-0.5,3.7-1,4.4,0.5c0.8,1.5-0.3,4.8-2.7,6.5l1.1,1.5c3-2.1,4.6-6.3,3.3-8.8c-0.5-0.9-2.1-2.9-6.6-1.4c-8.1,2.8-7.9,11.3-7.9,12v19.2c-1-2.7-1.7-5.9-1.7-9v-22l0-0.1c0-0.3-0.5-7.8,6.6-10.2c1.3-0.5,3.7-1,4.4,0.5c0.8,1.5-0.3,4.8-2.7,6.5l1.1,1.5c3-2.1,4.6-6.3,3.3-8.8c-0.3-0.7-1.3-2-3.6-2C24.2,6.8,23.2,7,22,7.4"></path><path fill="#444444" d="M56.3,4.5h-4.4v4.2h2.1c1.2,0,2.2,1,2.2,2.2v9h4.5V8.7c0-2.3-1.9-4.2-4.2-4.2H56.3z"></path><path fill="#ADA8F0" d="M47.7,5v0.8l-3.8-0.4c-0.2,0-0.4,0.2-0.4,0.4V6L42,5.7l-0.8,0.2c-0.4,0.1-0.6,0.4-0.6,0.8c0,0.4,0.3,0.7,0.6,0.8L42,7.7l1.5-0.3v0.2c0,0.2,0.2,0.4,0.4,0.4l3.8-0.4v0.8h4.2V5H47.7z"></path><path d="M24.7,18.7l-1.4-1.3c-0.2-0.2-0.2-0.6,0-0.8l2.2-2.4c0.2-0.2,0.6-0.2,0.8,0l1.4,1.3c0.2,0.2,0.2,0.6,0,0.8l-2.2,2.4C25.3,18.9,24.9,18.9,24.7,18.7"></path><path d="M28.6,30.2l-1.4-1.3c-0.2-0.2-0.3-0.6,0-0.8l2.2-2.4c0.2-0.2,0.6-0.3,0.8,0l1.4,1.3c0.2,0.2,0.3,0.6,0,0.8l-2.2,2.4C29.1,30.3,28.8,30.4,28.6,30.2"></path><g id="NAV-SH-C-O" opacity="0"><rect x="0" y="0" width="100" height="100" fill="#fff"></rect><path fill="#F7A39F" d="M47.7,5v0.8l-3.8-0.4c-0.2,0-0.4,0.2-0.4,0.4V6L42,5.7l-0.8,0.2c-0.4,0.1-0.6,0.4-0.6,0.8c0,0.4,0.3,0.7,0.6,0.8L42,7.7l1.5-0.3v0.2c0,0.2,0.2,0.4,0.4,0.4l3.8-0.4v0.8h4.2V5H47.7z"></path><linearGradient id="NAV-SH-C-4" gradientUnits="userSpaceOnUse" x1="24.3084" y1="49.7329" x2="52.8641" y2="49.7329"><stop offset="0" style="stop-color: #F7A39F;"></stop><stop offset="1" style="stop-color: #FFDF97;"></stop></linearGradient><path fill="url(#NAV-SH-C-4)" d="M26.2,49.7c0-6.9,5.6-12.4,12.4-12.4c6.9,0,12.4,5.6,12.4,12.4c0,6.9-5.6,12.4-12.4,12.4C31.7,62.2,26.2,56.6,26.2,49.7 M24.3,49.7c0,7.9,6.4,14.3,14.3,14.3c7.9,0,14.3-6.4,14.3-14.3s-6.4-14.3-14.3-14.3C30.7,35.5,24.3,41.9,24.3,49.7"></path><linearGradient id="NAV-SH-C-5" gradientUnits="userSpaceOnUse" x1="20.8903" y1="49.7333" x2="56.2808" y2="49.7333"><stop offset="0" style="stop-color: #F7A39F;"></stop><stop offset="1" style="stop-color: #FFDF97;"></stop></linearGradient><path fill="url(#NAV-SH-C-5)" d="M22.7,49.7c0-8.7,7.1-15.8,15.8-15.8S54.4,41,54.4,49.7c0,8.7-7.1,15.8-15.8,15.8S22.7,58.5,22.7,49.7 M20.9,49.7c0,9.8,7.9,17.7,17.7,17.7c9.8,0,17.7-7.9,17.7-17.7C56.3,40,48.3,32,38.6,32C28.8,32,20.9,40,20.9,49.7"></path><linearGradient id="NAV-SH-C-6" gradientUnits="userSpaceOnUse" x1="14.1699" y1="38.6824" x2="59.3816" y2="38.6824"><stop offset="0" style="stop-color: #F7A39F;"></stop><stop offset="1" style="stop-color: #FFDF97;"></stop></linearGradient><path fill="url(#NAV-SH-C-6)" d="M19.6,49.7c0-10.4,8.5-18.9,18.9-18.9c10.4,0,18.9,8.5,18.9,18.9c0,10.4-8.5,18.9-18.9,18.9C28.1,68.7,19.6,60.2,19.6,49.7 M22,7.4c-8.1,2.8-7.9,11.3-7.9,12v22c0,9.7,6.2,18.5,6.5,18.9l0,0c3.6,6.1,10.3,10.2,17.9,10.2c11.5,0,20.8-9.3,20.8-20.8V19.9h-1.9v21.3C54.3,34,47,28.9,38.6,28.9c-8.4,0-15.7,5.1-19,12.3v-10l0-0.1c0-0.3-0.5-7.8,6.6-10.2c1.3-0.5,3.7-1,4.4,0.5c0.8,1.5-0.3,4.8-2.7,6.5l1.1,1.5c3-2.1,4.6-6.3,3.3-8.8c-0.5-0.9-2.1-2.9-6.6-1.4c-8.1,2.8-7.9,11.3-7.9,12v19.2c-1-2.7-1.7-5.9-1.7-9v-22l0-0.1c0-0.3-0.5-7.8,6.6-10.2c1.3-0.5,3.7-1,4.4,0.5c0.8,1.5-0.3,4.8-2.7,6.5l1.1,1.5c3-2.1,4.6-6.3,3.3-8.8c-0.3-0.7-1.3-2-3.6-2C24.2,6.8,23.2,7,22,7.4"></path><path fill="#444" d="M56.3,4.5h-4.4v4.2h2.1c1.2,0,2.2,1,2.2,2.2v9h4.5V8.7c0-2.3-1.9-4.2-4.2-4.2H56.3z"></path><path d="M24.7,18.7l-1.4-1.3c-0.2-0.2-0.2-0.6,0-0.8l2.2-2.4c0.2-0.2,0.6-0.2,0.8,0l1.4,1.3c0.2,0.2,0.2,0.6,0,0.8l-2.2,2.4C25.3,18.9,24.9,18.9,24.7,18.7"></path><path d="M28.6,30.2l-1.4-1.3c-0.2-0.2-0.3-0.6,0-0.8l2.2-2.4c0.2-0.2,0.6-0.3,0.8,0l1.4,1.3c0.2,0.2,0.3,0.6,0,0.8l-2.2,2.4C29.1,30.3,28.8,30.4,28.6,30.2"></path></g></svg>