<svg xmlns="http://www.w3.org/2000/svg" xmlns:xlink="http://www.w3.org/1999/xlink" x="0px" y="0px" width="65" height="65" viewBox="0 0 75 75" enable-background="new 0 0 75 75"><defs><linearGradient id="NAV-SH-FH-1" gradientUnits="userSpaceOnUse" x1="293.4628" y1="-337.083" x2="320.2069" y2="-337.083" gradientTransform="matrix(1 0 0 -1 -273.5 -288.5)"><stop offset="0" style="stop-color: #ADA8F0;"></stop><stop offset="1" style="stop-color: #90F5F2;"></stop></linearGradient><linearGradient id="NAV-SH-FH-1" gradientUnits="userSpaceOnUse" x1="293.4628" y1="-337.083" x2="320.2069" y2="-337.083" gradientTransform="matrix(1 0 0 -1 -273.5 -288.5)"><stop offset="0" style="stop-color: #ADA8F0;"></stop><stop offset="1" style="stop-color: #90F5F2;"></stop></linearGradient><linearGradient id="NAV-SH-FH-2" gradientUnits="userSpaceOnUse" x1="289.3275" y1="-307.083" x2="320.1852" y2="-307.083" gradientTransform="matrix(1 0 0 -1 -273.5 -288.5)"><stop offset="0" style="stop-color: #ADA8F0;"></stop><stop offset="1" style="stop-color: #90F5F2;"></stop></linearGradient><linearGradient id="NAV-SH-FH-3" gradientUnits="userSpaceOnUse" x1="313.5275" y1="-337.983" x2="336.2087" y2="-337.983" gradientTransform="matrix(1 0 0 -1 -273.5 -288.5)"><stop offset="0" style="stop-color: #ADA8F0;"></stop><stop offset="1" style="stop-color: #90F5F2;"></stop></linearGradient></defs><polygon display="inline" fill="#444444" points="28.6,67.7 32.4,70.6 34.2,68.7"></polygon><polygon display="inline" fill="#444444" points="40.4,65.4 43.8,70 44.8,67.3"></polygon><path display="inline" fill="#DFEEF7" d="M44.1,2.9c0,0,3.8-1.2,6.5,0.8s5.5,6.4,6.7,11.6s2.7,20.5,2.8,21s-0.4,0.9-0.4,0.9 l-3.6-3.1c0,0,1.4-1.8,0.9-7.9c-0.3-3.4-0.9-6.8-1.7-10.1c-0.8-3.1-1.9-6.4-3.9-9C49.7,4.7,47.3,2.9,44.1,2.9"></path><path display="inline" fill="#444444" d="M63.3,49.7c-1.1,4.7-2.8,7.8-6.2,12.4s-6.2,5.9-11.2,6.5l-1.7-1.4 c6.1,0,11.4-6.3,15.6-12.4s2.6-14,2.6-14C63.7,43.7,64.1,46.2,63.3,49.7"></path><path display="inline" fill="#80DDED" d="M57.3,34.1c0,0-8.4-0.9-9.6-2.1c-1.2-1.2-2.8-3.7-3.6-6c-0.7-2.1-3-9.4-5.6-12 c-0.3-0.3-0.6-0.5-0.9-0.7l4.5-5l0,0l3.4-0.5l0,0C46.7,7.9,48,8.2,49,9.2c2.5,2.5,4.8,7.1,5.3,13.1s0.7,9.3,2.6,9.3L57.3,34.1z"></path><linearGradient id="NAV-SH-FH-1" gradientUnits="userSpaceOnUse" x1="293.4628" y1="-337.083" x2="320.2069" y2="-337.083" gradientTransform="matrix(1 0 0 -1 -273.5 -288.5)"><stop offset="0" style="stop-color: #ADA8F0;"></stop><stop offset="1" style="stop-color: #90F5F2;"></stop></linearGradient><path display="inline" fill="url(&quot;#NAV-SH-FH-1&quot;)" d="M21.5,30.2L20,35.4c0,0,6,2.6,5.9,1.8l3.1,2.1l7.8,13l1.2,15c0,0,3.6-2.3,6.9-6.9 c3.3-4.7,2.1-12.1-2.4-20.1c-4.1-7.3-13.6-9.7-15.1-10c0.1-0.3,0.1-0.5,0.1-0.5L21.5,30.2z"></path><path display="inline" fill="#C0E7F9" d="M42.1,8.3L42.1,8.3L30,10.1c0,0-4.3,1.7-5,5.4C24.2,19.2,22,31,22,31h3.5 c1.7,0,4,0.4,5.5-0.5c1.3-0.7,2-2.3,2.4-3.7c0.8-3,2.6-8.5,5.1-12.8c1.9-3.2,4.2-5.8,7-6.2L42.1,8.3z M45.5,7.8L45.5,7.8L45.5,7.8"></path><path display="inline" fill="#DFEEF7" d="M28.5,4.3c0,0,4-1.1,6.9,0.5c2.9,1.7,2.9,2.3,2.9,2.3L37,8.2C36.9,8.2,34.3,3.2,28.5,4.3"></path><linearGradient id="NAV-SH-FH-2" gradientUnits="userSpaceOnUse" x1="289.3275" y1="-307.083" x2="320.1852" y2="-307.083" gradientTransform="matrix(1 0 0 -1 -273.5 -288.5)"><stop offset="0" style="stop-color: #ADA8F0;"></stop><stop offset="1" style="stop-color: #90F5F2;"></stop></linearGradient><path display="inline" fill="url(&quot;#NAV-SH-FH-2&quot;)" d="M38.8,5.3c-3,2.7-6.8,7.6-9.6,12.2c-2.7,4.5-4.9,9.2-5.5,9.9c-0.6,0.8-1,1.7-2.3,1.7s-2.6,0.3-2.4-2c0.3-2.3,1.6-13.7,5.2-18.6c3.7-4.8,6.6-4.6,6.6-4.6S27.3,3,23.6,6.8c-3.6,3.8-5.5,12.5-6.2,15.9c-0.8,3.4-1.6,9.8-1.6,9.8l2.2,1.3l2,0.7h0.5c0,0,5.6-6.2,8.7-11.9s9-18.9,17.5-20C46.7,2.6,41.8,2.6,38.8,5.3"></path><linearGradient id="NAV-SH-FH-3" gradientUnits="userSpaceOnUse" x1="313.5275" y1="-337.983" x2="336.2087" y2="-337.983" gradientTransform="matrix(1 0 0 -1 -273.5 -288.5)"><stop offset="0" style="stop-color: #ADA8F0;"></stop><stop offset="1" style="stop-color: #90F5F2;"></stop></linearGradient><path display="inline" fill="url(&quot;#NAV-SH-FH-3&quot;)" d="M49.7,31.9c-4.2,0.4-8.4,3.9-9.7,5.1c0.9,0.9,1.7,2,2.4,3.2c4.1,7.3,5.5,14.1,3.2,18.8c-0.1,0.2-0.2,0.5-0.4,0.7c-0.1,0.2-0.3,0.5-0.4,0.7c-1.3,1.9-2.7,3.3-3.8,4.4c-0.2,0.2-0.4,0.4-0.6,0.5l3.7,1.9l0,0c6.1,0,11.4-6.3,15.6-12.4s2.6-14,2.6-14c-0.5-0.9-1-1.9-1.7-3c-2.3-3.8-5.3-6.1-9.6-6.1C50.6,31.9,50.2,31.9,49.7,31.9"></path><path display="inline" fill="none" stroke="#000000" stroke-width="0.419px" stroke-miterlimit="10" d="M18.6,46.9l0.5,1.9c0,0,0.4,0.4,1.2,0.2c0.7-0.2,1.1-0.8,1.1-0.8L20.7,46L18.6,46.9z"></path><path display="inline" fill="#444444" d="M39.2,65.9c-1.3,2.1-5.5,5.2-10.6,1.8c-2.8-1.8-5-4.3-6.7-6.5l0,0c-1.4-1.8-2.4-3.5-3-4.4l0,0c0,0,0-0.1-0.1-0.1c-1.3-2-4-7-4.4-11.1s1.8-7.8,1.8-7.8l3.8-3.3C30.4,36,32.9,38.9,37.3,47S40.6,63.7,39.2,65.9"></path><path display="inline" fill="#C0E7F9" d="M15.3,44.8c0-2.3,0.9-4.2,3.4-4.9c1-0.3,2.1-0.3,3.2-0.3c6.1,0.3,10.2,6.8,12.4,11.8c0.1,0.1,0.1,0.3,0.2,0.4c1.3,2.9,2.2,6.1,2.2,9.4c0,2.3-0.6,5.4-2.9,6.6c-3.4,1.8-7.4-2.5-9.5-4.8c-2.1-2.3-3.7-5-5.3-7.7C17.6,53.1,15.3,48.5,15.3,44.8"></path><path display="inline" fill="#444444" d="M37,59.7l-0.3,1.5H21.9l0,0c-1.4-1.8-2.4-3.5-3-4.4l0,0l0.2-2.8l0.1-1.2l0.1-1.7c0,0-0.2-1.1-0.3-1.6c-0.2-0.5,0.1-0.7,0.1-0.7S20,48.1,21,48c1,0,1,0.5,1,0.5l1.7,6.3c2.3,1.9,3.6,2.3,5.6,2.9c2,0.6,7.6,0.8,7.6,0.8L37,59.7z"></path><path display="inline" fill="#AFAAF2" d="M53.1,44.7l-7.3,3.5c-0.4-1.4-1-2.9-1.6-4.4c-0.5-1.1-1.1-2.3-1.8-3.5c-0.2-0.3-0.3-0.6-0.5-0.8c1.4-1.3,5.1-4.1,7.8-3.4C53.1,37,54.4,40.8,53.1,44.7"></path><path display="inline" fill="#ADA8F0" d="M21,48l-1.5-4.8l-1.8,0.6l1.5,4.8l0,0c0.1,0.2,0.6,0.3,1.1,0.2C20.8,48.6,21.1,48.2,21,48C21.1,48,21,48,21,48"></path><path display="inline" fill="#444444" d="M53.1,44.7c-0.3,1.9-2,7.1-6.5,10.8c0.2-2.2,0-4.7-0.8-7.3c-0.4-1.4-1-2.9-1.6-4.4c0.7-1.4,2.2-3.2,4.6-3.1C52.8,40.8,53.4,42.7,53.1,44.7"></path><path display="inline" fill="#80DDED" d="M46,69.8c-0.7,0.6-1.7,0.7-2.2,0.2c-0.4-0.5-0.2-1.5,0.5-2.1s1.7-0.7,2.2-0.2S46.7,69.2,46,69.8"></path><path display="inline" fill="#444444" d="M45.8,69.6c-0.5,0.4-1.2,0.5-1.5,0.1s-0.1-1,0.4-1.4s1.2-0.5,1.5-0.1C46.5,68.5,46.3,69.2,45.8,69.6"></path><path display="inline" fill="#444444" d="M21.5,31c0,0,0.8,0.3,0.9,0.9l-1,0.6l0.1-1l0.2-0.1L21.5,31z"></path><path display="inline" fill="#444444" d="M22.4,31.9c0,0,0.3,0.8-0.2,1.4c-0.5,0.6-2.7,3.2-2.6,5.9c0.2,2.7,1.4,6.5,1.4,6.5s0.2,1.1-1.4,1.6s-1.7-0.5-1.7-0.5l-1.6-5.2l1.5-3l1.3-5.6L22.4,31.9z"></path><path display="inline" fill="#80DDED" d="M21.5,31c0,0,0.5,0.3,0.4,0.7c-0.1,0.4-2.2,2.9-2.7,4.1c-0.5,1.1-0.1,3.9-0.5,4.9S17.9,42.2,17,42c-0.9-0.2-0.6-1.4-0.3-2c0.3-0.6-0.3-5.9-0.3-5.9l1.8-2.3L21.5,31z"></path><path display="inline" fill="#80DDED" d="M16.9,34.4l2.2,0.1c0,0,1.3-1.4,1.8-2.1c0.5-0.7,1.1-1.4,0-1.6c-1.1-0.2-2.8-0.2-3.5,0s-1.2,1.1-1.2,1.1L16.9,34.4z"></path><path display="inline" fill="#ADA8F0" d="M14.4,32.6l2.2,8.1c0,0,0.3,0.9,0.9,0.9c0.6-0.1,1.1-1.1,0.6-3l-1.5-6.5L14.4,32.6z"></path><path display="inline" fill="#C0E7F9" d="M16.5,31.9c0.1,0.3-0.3,0.7-0.9,0.9c-0.6,0.2-1.1,0.1-1.2-0.2c-0.1-0.3,0.3-0.7,0.9-0.9C15.9,31.5,16.5,31.6,16.5,31.9"></path><path display="inline" fill="#444444" d="M33.9,68.5c0,0-1.1,0.7-3,0.3l1.9,0.8L33.9,68.5z"></path><path display="inline" fill="#80DDED" d="M33.7,69.9c0.4-0.6,0.6-1.2,0.4-1.4c-0.2-0.2-0.8,0.2-1.2,0.8c-0.4,0.6-0.6,1.2-0.4,1.4C32.8,70.9,33.3,70.5,33.7,69.9"></path><path display="inline" fill="#444444" d="M33.6,69.8c0.2-0.3,0.3-0.7,0.2-0.8c-0.1-0.1-0.4,0.1-0.7,0.4c-0.2,0.3-0.3,0.7-0.2,0.8C33,70.3,33.3,70.1,33.6,69.8"></path><g id="NAV-SH-FH-O" opacity="0"><rect x="0" y="0" width="100" height="100" fill="#fff"></rect><polygon fill="#444" points="28.6,67.7 32.4,70.6 34.2,68.7"></polygon><polygon fill="#444" points="40.4,65.4 43.8,70 44.8,67.3"></polygon><path fill="#F7D0D0" d="M44.1,2.9c0,0,3.8-1.2,6.5,0.8s5.5,6.4,6.7,11.6s2.7,20.5,2.8,21s-0.4,0.9-0.4,0.9l-3.6-3.1c0,0,1.4-1.8,0.9-7.9c-0.3-3.4-0.9-6.8-1.7-10.1c-0.8-3.1-1.9-6.4-3.9-9C49.7,4.7,47.3,2.9,44.1,2.9"></path><path fill="#444" d="M63.3,49.7c-1.1,4.7-2.8,7.8-6.2,12.4s-6.2,5.9-11.2,6.5l-1.7-1.4c6.1,0,11.4-6.3,15.6-12.4s2.6-14,2.6-14C63.7,43.7,64.1,46.2,63.3,49.7"></path><path fill="#F7A39F" d="M57.3,34.1c0,0-8.4-0.9-9.6-2.1c-1.2-1.2-2.8-3.7-3.6-6c-0.7-2.1-3-9.4-5.6-12c-0.3-0.3-0.6-0.5-0.9-0.7l4.5-5l0,0l3.4-0.5l0,0C46.7,7.9,48,8.2,49,9.2c2.5,2.5,4.8,7.1,5.3,13.1s0.7,9.3,2.6,9.3L57.3,34.1z"></path><linearGradient id="NAV-SH-FH-4" gradientUnits="userSpaceOnUse" x1="293.4628" y1="-337.083" x2="320.2069" y2="-337.083" gradientTransform="matrix(1 0 0 -1 -273.5 -288.5)"><stop offset="0" style="stop-color: #F7A39F;"></stop><stop offset="1" style="stop-color: #FFDF97;"></stop></linearGradient><path fill="url(#NAV-SH-FH-4)" d="M21.5,30.2L20,35.4c0,0,6,2.6,5.9,1.8l3.1,2.1l7.8,13l1.2,15c0,0,3.6-2.3,6.9-6.9c3.3-4.7,2.1-12.1-2.4-20.1c-4.1-7.3-13.6-9.7-15.1-10c0.1-0.3,0.1-0.5,0.1-0.5L21.5,30.2z"></path><path fill="#FCEFBB" d="M42.1,8.3L42.1,8.3L30,10.1c0,0-4.3,1.7-5,5.4C24.2,19.2,22,31,22,31h3.5c1.7,0,4,0.4,5.5-0.5c1.3-0.7,2-2.3,2.4-3.7c0.8-3,2.6-8.5,5.1-12.8c1.9-3.2,4.2-5.8,7-6.2L42.1,8.3z M45.5,7.8L45.5,7.8L45.5,7.8"></path><path fill="#F7D0D0" d="M28.5,4.3c0,0,4-1.1,6.9,0.5c2.9,1.7,2.9,2.3,2.9,2.3L37,8.2C36.9,8.2,34.3,3.2,28.5,4.3"></path><linearGradient id="NAV-SH-FH-5" gradientUnits="userSpaceOnUse" x1="289.3275" y1="-307.083" x2="320.1852" y2="-307.083" gradientTransform="matrix(1 0 0 -1 -273.5 -288.5)"><stop offset="0" style="stop-color: #F7A39F;"></stop><stop offset="1" style="stop-color: #FFDF97;"></stop></linearGradient><path fill="url(#NAV-SH-FH-5)" d="M38.8,5.3c-3,2.7-6.8,7.6-9.6,12.2c-2.7,4.5-4.9,9.2-5.5,9.9c-0.6,0.8-1,1.7-2.3,1.7s-2.6,0.3-2.4-2c0.3-2.3,1.6-13.7,5.2-18.6c3.7-4.8,6.6-4.6,6.6-4.6S27.3,3,23.6,6.8c-3.6,3.8-5.5,12.5-6.2,15.9c-0.8,3.4-1.6,9.8-1.6,9.8l2.2,1.3l2,0.7h0.5c0,0,5.6-6.2,8.7-11.9s9-18.9,17.5-20C46.7,2.6,41.8,2.6,38.8,5.3"></path><linearGradient id="NAV-SH-FH-6" gradientUnits="userSpaceOnUse" x1="313.5275" y1="-337.983" x2="336.2087" y2="-337.983" gradientTransform="matrix(1 0 0 -1 -273.5 -288.5)"><stop offset="0" style="stop-color: #F7A39F;"></stop><stop offset="1" style="stop-color: #FFDF97;"></stop></linearGradient><path fill="url(#NAV-SH-FH-6)" d="M49.7,31.9c-4.2,0.4-8.4,3.9-9.7,5.1c0.9,0.9,1.7,2,2.4,3.2c4.1,7.3,5.5,14.1,3.2,18.8c-0.1,0.2-0.2,0.5-0.4,0.7c-0.1,0.2-0.3,0.5-0.4,0.7c-1.3,1.9-2.7,3.3-3.8,4.4c-0.2,0.2-0.4,0.4-0.6,0.5l3.7,1.9l0,0c6.1,0,11.4-6.3,15.6-12.4s2.6-14,2.6-14c-0.5-0.9-1-1.9-1.7-3c-2.3-3.8-5.3-6.1-9.6-6.1C50.6,31.9,50.2,31.9,49.7,31.9"></path><path fill="none" stroke="#000000" stroke-width="0.419" stroke-miterlimit="10" d="M18.6,46.9l0.5,1.9c0,0,0.4,0.4,1.2,0.2c0.7-0.2,1.1-0.8,1.1-0.8L20.7,46L18.6,46.9z"></path><path fill="#444" d="M39.2,65.9c-1.3,2.1-5.5,5.2-10.6,1.8c-2.8-1.8-5-4.3-6.7-6.5l0,0c-1.4-1.8-2.4-3.5-3-4.4l0,0c0,0,0-0.1-0.1-0.1c-1.3-2-4-7-4.4-11.1s1.8-7.8,1.8-7.8l3.8-3.3C30.4,36,32.9,38.9,37.3,47S40.6,63.7,39.2,65.9"></path><path fill="#FCEFBB" d="M15.3,44.8c0-2.3,0.9-4.2,3.4-4.9c1-0.3,2.1-0.3,3.2-0.3c6.1,0.3,10.2,6.8,12.4,11.8c0.1,0.1,0.1,0.3,0.2,0.4c1.3,2.9,2.2,6.1,2.2,9.4c0,2.3-0.6,5.4-2.9,6.6c-3.4,1.8-7.4-2.5-9.5-4.8c-2.1-2.3-3.7-5-5.3-7.7C17.6,53.1,15.3,48.5,15.3,44.8"></path><path fill="#444" d="M37,59.7l-0.3,1.5H21.9l0,0c-1.4-1.8-2.4-3.5-3-4.4l0,0l0.2-2.8l0.1-1.2l0.1-1.7c0,0-0.2-1.1-0.3-1.6c-0.2-0.5,0.1-0.7,0.1-0.7S20,48.1,21,48c1,0,1,0.5,1,0.5l1.7,6.3c2.3,1.9,3.6,2.3,5.6,2.9c2,0.6,7.6,0.8,7.6,0.8L37,59.7z"></path><path fill="#FCEFBB" d="M53.1,44.7l-7.3,3.5c-0.4-1.4-1-2.9-1.6-4.4c-0.5-1.1-1.1-2.3-1.8-3.5c-0.2-0.3-0.3-0.6-0.5-0.8c1.4-1.3,5.1-4.1,7.8-3.4C53.1,37,54.4,40.8,53.1,44.7"></path><path fill="#F7A39F" d="M21,48l-1.5-4.8l-1.8,0.6l1.5,4.8l0,0c0.1,0.2,0.6,0.3,1.1,0.2C20.8,48.6,21.1,48.2,21,48C21.1,48,21,48,21,48"></path><path fill="#444" d="M53.1,44.7c-0.3,1.9-2,7.1-6.5,10.8c0.2-2.2,0-4.7-0.8-7.3c-0.4-1.4-1-2.9-1.6-4.4c0.7-1.4,2.2-3.2,4.6-3.1C52.8,40.8,53.4,42.7,53.1,44.7"></path><path fill="#FCEFBB" d="M46,69.8c-0.7,0.6-1.7,0.7-2.2,0.2c-0.4-0.5-0.2-1.5,0.5-2.1s1.7-0.7,2.2-0.2S46.7,69.2,46,69.8"></path><path fill="#444" d="M45.8,69.6c-0.5,0.4-1.2,0.5-1.5,0.1s-0.1-1,0.4-1.4s1.2-0.5,1.5-0.1C46.5,68.5,46.3,69.2,45.8,69.6"></path><path fill="#444" d="M21.5,31c0,0,0.8,0.3,0.9,0.9l-1,0.6l0.1-1l0.2-0.1L21.5,31z"></path><path fill="#444" d="M22.4,31.9c0,0,0.3,0.8-0.2,1.4c-0.5,0.6-2.7,3.2-2.6,5.9c0.2,2.7,1.4,6.5,1.4,6.5s0.2,1.1-1.4,1.6s-1.7-0.5-1.7-0.5l-1.6-5.2l1.5-3l1.3-5.6L22.4,31.9z"></path><path fill="#F7D0D0" d="M21.5,31L21.5,31c-0.2-0.1-0.3-0.2-0.6-0.2c-1.1-0.2-2.8-0.2-3.5,0c-0.7,0.2-1.2,1.1-1.2,1.1l0.5,1.8l-0.3,0.4c0,0,0.6,5.3,0.3,5.9s-0.6,1.8,0.3,2s1.3-0.3,1.7-1.3c0.4-1,0-3.8,0.5-4.9c0.5-1.2,2.6-3.7,2.7-4.1C22,31.3,21.5,31,21.5,31z"></path><path fill="#F7A39F" d="M14.4,32.6l2.2,8.1c0,0,0.3,0.9,0.9,0.9c0.6-0.1,1.1-1.1,0.6-3l-1.5-6.5L14.4,32.6z"></path><path fill="#FCEFBB" d="M16.5,31.9c0.1,0.3-0.3,0.7-0.9,0.9c-0.6,0.2-1.1,0.1-1.2-0.2c-0.1-0.3,0.3-0.7,0.9-0.9C15.9,31.5,16.5,31.6,16.5,31.9"></path><path fill="#444" d="M33.9,68.5c0,0-1.1,0.7-3,0.3l1.9,0.8L33.9,68.5z"></path><path fill="#FCEFBB" d="M33.7,69.9c0.4-0.6,0.6-1.2,0.4-1.4c-0.2-0.2-0.8,0.2-1.2,0.8c-0.4,0.6-0.6,1.2-0.4,1.4C32.8,70.9,33.3,70.5,33.7,69.9"></path><path fill="#444" d="M33.6,69.8c0.2-0.3,0.3-0.7,0.2-0.8c-0.1-0.1-0.4,0.1-0.7,0.4c-0.2,0.3-0.3,0.7-0.2,0.8C33,70.3,33.3,70.1,33.6,69.8"></path></g></svg>