<svg xmlns="http://www.w3.org/2000/svg" xmlns:xlink="http://www.w3.org/1999/xlink" x="0px" y="0px" width="65" height="65" viewBox="0 0 75 75" enable-background="new 0 0 75 75" xml:space="preserve"><defs><linearGradient id="NAV-SH-TWS-1" gradientUnits="userSpaceOnUse" x1="41.0025" y1="28.2137" x2="69.169" y2="28.2137"><stop offset="0" style="stop-color: #ADA8F0;"></stop><stop offset="1" style="stop-color: #90F5F2;"></stop></linearGradient><linearGradient id="NAV-SH-TWS-1" gradientUnits="userSpaceOnUse" x1="41.0025" y1="28.2137" x2="69.169" y2="28.2137"><stop offset="0" style="stop-color: #ADA8F0;"></stop><stop offset="1" style="stop-color: #90F5F2;"></stop></linearGradient><linearGradient id="NAV-SH-TWS-2" gradientUnits="userSpaceOnUse" x1="5.8303" y1="43.4925" x2="33.9973" y2="43.4925"><stop offset="0" style="stop-color: #ADA8F0;"></stop><stop offset="1" style="stop-color: #90F5F2;"></stop></linearGradient></defs><path fill="#444444" d="M47.6,36.3c0,0-2.9,2.2-4.7,4.7c-1.9,2.6-1.8,4.2-0.5,6.3c1.2,2.1,3.2,4.3,5.2,5c2,0.7,3.7-0.8,4.6-1.2c0.9-0.3,5.7-3.6,5.7-3.6L47.6,36.3z"></path><path fill="#808080" d="M48.2,35.6c0,0-3.4,2,1.2,7.9c4.6,5.9,8.7,4.9,8.8,3c0.1-1.9-1-4.8-1-4.8L48.2,35.6z"></path><linearGradient id="NAV-SH-TWS-1" gradientUnits="userSpaceOnUse" x1="41.0025" y1="28.2137" x2="69.169" y2="28.2137"><stop offset="0" style="stop-color: #ADA8F0;"></stop><stop offset="1" style="stop-color: #90F5F2;"></stop></linearGradient><path fill="url(&quot;#NAV-SH-TWS-1&quot;)" d="M54.2,11c-0.8,0.1-1.5,0.3-2.3,0.5c-2.7,0.8-5.4,2.3-7.4,4.4c-1.4,1.5-2.5,3.2-3.1,5.2c-0.7,2.5-0.3,5.2,0.8,7.6c1.6,3.4,7.8,9.6,7.8,9.6s-1.2,2.1,1.3,5.1c2.5,3,4.5,1.9,4.5,1.9s1.1-1.6,2.3-1.6c3,0,5.1-0.5,7-1.8c2-1.3,3.5-3.4,3.5-3.4l0.6-7.9L68,28.9c0.8-1.2,1-2.7,1-4.1c0-0.9,0-1.8-0.1-2.7c-0.5-3.6-2.9-7-5.8-9c-2.1-1.5-4.5-2.2-7-2.2C55.4,10.9,54.8,10.9,54.2,11"></path><path fill="#C0E7F9" d="M52.8,26.7c-3.4-4-4-11.2-0.3-13.8c3.4-2.5,9.3-0.2,12.4,3.2c3.2,3.6,4.3,10.5,1.2,13.6C62.8,32.8,56.2,30.7,52.8,26.7"></path><path fill="#ADA8F0" d="M67.6,28.3c0,0-1.7,1.5-1.8,3.7c-0.1,2.2,0.6,3.7,1.2,4.4l4.1-1l-2.1-7.5L67.6,28.3z"></path><path fill="#C0E7F9" d="M72.6,31.1c0.5,2.1-0.3,4-1.7,4.3c-1.4,0.3-2.9-1.1-3.4-3.2c-0.5-2.1,0.3-4,1.7-4.3C70.6,27.6,72.1,29.1,72.6,31.1"></path><path fill="#444444" d="M71.5,31.4c0.3,1.2-0.2,2.4-1,2.6c-0.8,0.2-1.7-0.7-2-1.9c-0.3-1.2,0.2-2.4,1-2.6C70.4,29.3,71.3,30.1,71.5,31.4"></path><path fill="#ADA8F0" d="M70.9,31.5c0.2,0.7-0.1,1.3-0.6,1.4c-0.5,0.1-1-0.4-1.1-1.1c-0.2-0.7,0.1-1.3,0.6-1.4C70.3,30.3,70.8,30.8,70.9,31.5"></path><path fill="#444444" d="M27.4,51.6c0,0,2.9,2.2,4.7,4.7c1.9,2.6,1.8,4.2,0.5,6.3c-1.2,2.1-3.2,4.3-5.2,5c-2,0.7-3.7-0.8-4.6-1.2c-0.9-0.3-5.7-3.6-5.7-3.6L27.4,51.6z"></path><path fill="#808080" d="M26.8,50.9c0,0,3.4,2-1.2,7.9c-4.6,5.9-8.7,4.9-8.8,3c-0.1-1.9,1-4.8,1-4.8L26.8,50.9z"></path><linearGradient id="NAV-SH-TWS-2" gradientUnits="userSpaceOnUse" x1="5.8303" y1="43.4925" x2="33.9973" y2="43.4925"><stop offset="0" style="stop-color: #ADA8F0;"></stop><stop offset="1" style="stop-color: #90F5F2;"></stop></linearGradient><path fill="url(&quot;#NAV-SH-TWS-2&quot;)" d="M11.9,28.4c-2.9,2.1-5.3,5.4-5.8,9C6,38.3,6,39.2,6,40.1c0,1.4,0.2,2.9,1,4.1L5.8,46l0.6,7.9c0,0,1.5,2.1,3.5,3.4c2,1.3,4,1.9,7,1.8c1.2,0,2.3,1.6,2.3,1.6s2,1.2,4.5-1.9c2.5-3,1.3-5.1,1.3-5.1s6.2-6.1,7.8-9.6c1.1-2.4,1.6-5,0.8-7.6c-0.6-2-1.7-3.7-3.1-5.2c-2-2.1-4.7-3.7-7.4-4.4c-0.8-0.2-1.5-0.4-2.3-0.5c-0.6-0.1-1.3-0.1-1.9-0.1C16.4,26.1,14,26.9,11.9,28.4"></path><path fill="#C0E7F9" d="M22.2,41.9c3.4-4,4-11.2,0.3-13.8c-3.4-2.5-9.3-0.2-12.4,3.2C7,34.9,5.9,41.8,9,44.9C12.2,48,18.8,46,22.2,41.9"></path><path fill="#ADA8F0" d="M7.4,43.5c0,0,1.7,1.5,1.8,3.7c0.1,2.2-0.6,3.7-1.2,4.4l-4.1-1l2.1-7.5L7.4,43.5z"></path><path fill="#C0E7F9" d="M2.4,46.4c-0.5,2.1,0.3,4,1.7,4.3c1.4,0.3,2.9-1.1,3.4-3.2c0.5-2.1-0.3-4-1.7-4.3C4.4,42.9,2.9,44.3,2.4,46.4"></path><path fill="#444444" d="M3.5,46.7c-0.3,1.2,0.2,2.4,1,2.6c0.8,0.2,1.7-0.7,2-1.9c0.3-1.2-0.2-2.4-1-2.6C4.6,44.6,3.7,45.4,3.5,46.7"></path><path fill="#ADA8F0" d="M4.1,46.8c-0.2,0.7,0.1,1.3,0.6,1.4c0.5,0.1,1-0.4,1.1-1.1c0.2-0.7-0.1-1.3-0.6-1.4C4.7,45.6,4.2,46.1,4.1,46.8"></path><g id="NAV-SH-TWS-O" opacity="0"><rect width="100" height="100" x="0" y="0" fill="#fff"></rect><path fill="#444" d="M47.6,36.3c0,0-2.9,2.2-4.7,4.7c-1.9,2.6-1.8,4.2-0.5,6.3c1.2,2.1,3.2,4.3,5.2,5c2,0.7,3.7-0.8,4.6-1.2c0.9-0.3,5.7-3.6,5.7-3.6L47.6,36.3z"></path><path fill="#808080" d="M48.2,35.6c0,0-3.4,2,1.2,7.9c4.6,5.9,8.7,4.9,8.8,3c0.1-1.9-1-4.8-1-4.8L48.2,35.6z"></path><linearGradient id="NAV-SH-TWS-3" gradientUnits="userSpaceOnUse" x1="41.0025" y1="28.2137" x2="69.169" y2="28.2137"><stop offset="0.4095" style="stop-color: #F7A39F;"></stop><stop offset="1" style="stop-color: #FFDF97;"></stop></linearGradient><path fill="url(#NAV-SH-TWS-3)" d="M54.2,11c-0.8,0.1-1.5,0.3-2.3,0.5c-2.7,0.8-5.4,2.3-7.4,4.4c-1.4,1.5-2.5,3.2-3.1,5.2c-0.7,2.5-0.3,5.2,0.8,7.6c1.6,3.4,7.8,9.6,7.8,9.6s-1.2,2.1,1.3,5.1c2.5,3,4.5,1.9,4.5,1.9s1.1-1.6,2.3-1.6c3,0,5.1-0.5,7-1.8c2-1.3,3.5-3.4,3.5-3.4l0.6-7.9L68,28.9c0.8-1.2,1-2.7,1-4.1c0-0.9,0-1.8-0.1-2.7c-0.5-3.6-2.9-7-5.8-9c-2.1-1.5-4.5-2.2-7-2.2C55.4,10.9,54.8,10.9,54.2,11"></path><path fill="#FCEFBB" d="M52.8,26.7c-3.4-4-4-11.2-0.3-13.8c3.4-2.5,9.3-0.2,12.4,3.2c3.2,3.6,4.3,10.5,1.2,13.6C62.8,32.8,56.2,30.7,52.8,26.7"></path><path fill="#F7A39F" d="M67.6,28.3c0,0-1.7,1.5-1.8,3.7c-0.1,2.2,0.6,3.7,1.2,4.4l4.1-1l-2.1-7.5L67.6,28.3z"></path><path fill="#FCEFBB" d="M72.6,31.1c0.5,2.1-0.3,4-1.7,4.3c-1.4,0.3-2.9-1.1-3.4-3.2c-0.5-2.1,0.3-4,1.7-4.3C70.6,27.6,72.1,29.1,72.6,31.1"></path><path fill="#444" d="M71.5,31.4c0.3,1.2-0.2,2.4-1,2.6c-0.8,0.2-1.7-0.7-2-1.9c-0.3-1.2,0.2-2.4,1-2.6C70.4,29.3,71.3,30.1,71.5,31.4"></path><path fill="#F7A39F" d="M70.9,31.5c0.2,0.7-0.1,1.3-0.6,1.4c-0.5,0.1-1-0.4-1.1-1.1c-0.2-0.7,0.1-1.3,0.6-1.4C70.3,30.3,70.8,30.8,70.9,31.5"></path><path fill="#444" d="M27.4,51.6c0,0,2.9,2.2,4.7,4.7c1.9,2.6,1.8,4.2,0.5,6.3c-1.2,2.1-3.2,4.3-5.2,5c-2,0.7-3.7-0.8-4.6-1.2c-0.9-0.3-5.7-3.6-5.7-3.6L27.4,51.6z"></path><path fill="#808080" d="M26.8,50.9c0,0,3.4,2-1.2,7.9c-4.6,5.9-8.7,4.9-8.8,3c-0.1-1.9,1-4.8,1-4.8L26.8,50.9z"></path><linearGradient id="NAV-SH-TWS-4" gradientUnits="userSpaceOnUse" x1="5.8303" y1="43.4925" x2="33.9973" y2="43.4925"><stop offset="0" style="stop-color: #F7A39F;"></stop><stop offset="1" style="stop-color: #FFDF97;"></stop></linearGradient><path fill="url(#NAV-SH-TWS-4)" d="M11.9,28.4c-2.9,2.1-5.3,5.4-5.8,9C6,38.3,6,39.2,6,40.1c0,1.4,0.2,2.9,1,4.1L5.8,46l0.6,7.9c0,0,1.5,2.1,3.5,3.4c2,1.3,4,1.9,7,1.8c1.2,0,2.3,1.6,2.3,1.6s2,1.2,4.5-1.9c2.5-3,1.3-5.1,1.3-5.1s6.2-6.1,7.8-9.6c1.1-2.4,1.6-5,0.8-7.6c-0.6-2-1.7-3.7-3.1-5.2c-2-2.1-4.7-3.7-7.4-4.4c-0.8-0.2-1.5-0.4-2.3-0.5c-0.6-0.1-1.3-0.1-1.9-0.1C16.4,26.1,14,26.9,11.9,28.4"></path><path fill="#FCEFBB" d="M22.2,41.9c3.4-4,4-11.2,0.3-13.8c-3.4-2.5-9.3-0.2-12.4,3.2C7,34.9,5.9,41.8,9,44.9C12.2,48,18.8,46,22.2,41.9"></path><path fill="#F7A39F" d="M7.4,43.5c0,0,1.7,1.5,1.8,3.7c0.1,2.2-0.6,3.7-1.2,4.4l-4.1-1l2.1-7.5L7.4,43.5z"></path><path fill="#FCEFBB" d="M2.4,46.4c-0.5,2.1,0.3,4,1.7,4.3c1.4,0.3,2.9-1.1,3.4-3.2c0.5-2.1-0.3-4-1.7-4.3C4.4,42.9,2.9,44.3,2.4,46.4"></path><path fill="#444" d="M3.5,46.7c-0.3,1.2,0.2,2.4,1,2.6c0.8,0.2,1.7-0.7,2-1.9c0.3-1.2-0.2-2.4-1-2.6C4.6,44.6,3.7,45.4,3.5,46.7"></path><path fill="#F7A39F" d="M4.1,46.8c-0.2,0.7,0.1,1.3,0.6,1.4c0.5,0.1,1-0.4,1.1-1.1c0.2-0.7-0.1-1.3-0.6-1.4C4.7,45.6,4.2,46.1,4.1,46.8"></path></g></svg>