<svg xmlns="http://www.w3.org/2000/svg" xmlns:xlink="http://www.w3.org/1999/xlink" x="0px" y="0px" width="65" height="65" viewBox="0 0 75 75" enable-background="new 0 0 75 75" xml:space="preserve"><defs><linearGradient id="NAV-Hi-res-1" gradientUnits="userSpaceOnUse" x1="46.0951" y1="40.875" x2="49.4061" y2="40.875"><stop offset="0" style="stop-color: #ADA8F0;"></stop><stop offset="1" style="stop-color: #90F5F2;"></stop></linearGradient><linearGradient id="NAV-Hi-res-1" gradientUnits="userSpaceOnUse" x1="46.0951" y1="40.875" x2="49.4061" y2="40.875"><stop offset="0" style="stop-color: #ADA8F0;"></stop><stop offset="1" style="stop-color: #90F5F2;"></stop></linearGradient><linearGradient id="NAV-Hi-res-2" gradientUnits="userSpaceOnUse" x1="48.0514" y1="27.045" x2="47.135" y2="21.6874"><stop offset="0" style="stop-color: #ADA8F0;"></stop><stop offset="1" style="stop-color: #90F5F2;"></stop></linearGradient><linearGradient id="NAV-Hi-res-3" gradientUnits="userSpaceOnUse" x1="48.0907" y1="48.9868" x2="51.998" y2="48.9868"><stop offset="0" style="stop-color: #ADA8F0;"></stop><stop offset="1" style="stop-color: #90F5F2;"></stop></linearGradient><linearGradient id="NAV-Hi-res-4" gradientUnits="userSpaceOnUse" x1="23.0015" y1="39.7258" x2="47.0266" y2="39.7258"><stop offset="0" style="stop-color: #ADA8F0;"></stop><stop offset="1" style="stop-color: #90F5F2;"></stop></linearGradient><linearGradient id="NAV-Hi-res-5" gradientUnits="userSpaceOnUse" x1="24.4351" y1="36.7903" x2="26.3441" y2="36.7903"><stop offset="0" style="stop-color: #DCFAEA;"></stop><stop offset="1" style="stop-color: #DFEEF7;"></stop></linearGradient><linearGradient id="NAV-Hi-res-6" gradientUnits="userSpaceOnUse" x1="27.0977" y1="12.8927" x2="31.1363" y2="12.8927"><stop offset="0" style="stop-color: #DCFAEA;"></stop><stop offset="1" style="stop-color: #DFEEF7;"></stop></linearGradient><linearGradient id="NAV-Hi-res-7" gradientUnits="userSpaceOnUse" x1="25.8138" y1="60.637" x2="44.9918" y2="60.637"><stop offset="0" style="stop-color: #DCFAEA;"></stop><stop offset="1" style="stop-color: #DFEEF7;"></stop></linearGradient><linearGradient id="NAV-Hi-res-8" gradientUnits="userSpaceOnUse" x1="31.8696" y1="13.5196" x2="34.6509" y2="13.5196"><stop offset="0" style="stop-color: #DCFAEA;"></stop><stop offset="1" style="stop-color: #DFEEF7;"></stop></linearGradient></defs><polygon fill="#80DDED" points="23,13.2 27.6,11.5 50.9,14.8 46.1,16.9"></polygon><linearGradient id="NAV-Hi-res-1" gradientUnits="userSpaceOnUse" x1="46.0951" y1="40.875" x2="49.4061" y2="40.875"><stop offset="0" style="stop-color: #ADA8F0;"></stop><stop offset="1" style="stop-color: #90F5F2;"></stop></linearGradient><polygon fill="url(&quot;#NAV-Hi-res-1&quot;)" points="46.1,16.9 49.4,15.5 49.4,63.3 46.4,66.3"></polygon><polygon fill="#C0E7F9" points="46.1,16.9 48,19.7 52,17.8 50.9,14.8"></polygon><linearGradient id="NAV-Hi-res-2" gradientUnits="userSpaceOnUse" x1="48.0514" y1="27.045" x2="47.135" y2="21.6874"><stop offset="0" style="stop-color: #ADA8F0;"></stop><stop offset="1" style="stop-color: #90F5F2;"></stop></linearGradient><polygon fill="url(&quot;#NAV-Hi-res-2&quot;)" points="47,27.9 48.6,27.9 48,19.7"></polygon><polygon fill="none" points="47,27.9 48,19.7 46.1,16.9"></polygon><polygon fill="#ADA8F0" points="48.6,27.9 51.1,26.6 52,17.7 48,19.7"></polygon><path fill="#444444" d="M50.4,28c0,0-2.9,0.2-2.9,0.2c-0.4,0-0.5,0.6-0.6,0.8c-0.2,0.7-0.2,1.4,0,2.1c0.1,0.4,0.2,0.7,0.6,0.8c0.3,0.1,1.4,0.2,1.8,0.3c0.4,0.1,0.7,0.2,1.1,0.4c0,0,0,0,0,0V28z"></path><path fill="#808080" d="M51.7,30.3c0,1.3-0.6,2.3-1.3,2.3c-0.7,0-1.3-1-1.3-2.3c0-1.3,0.6-2.3,1.3-2.3C51.1,28,51.7,29.1,51.7,30.3"></path><linearGradient id="NAV-Hi-res-3" gradientUnits="userSpaceOnUse" x1="48.0907" y1="48.9868" x2="51.998" y2="48.9868"><stop offset="0" style="stop-color: #ADA8F0;"></stop><stop offset="1" style="stop-color: #90F5F2;"></stop></linearGradient><polygon fill="url(&quot;#NAV-Hi-res-3&quot;)" points="48.1,33.1 48.7,65.3 52,62.3 50.2,32.6"></polygon><linearGradient id="NAV-Hi-res-4" gradientUnits="userSpaceOnUse" x1="23.0015" y1="39.7258" x2="47.0266" y2="39.7258"><stop offset="0" style="stop-color: #ADA8F0;"></stop><stop offset="1" style="stop-color: #90F5F2;"></stop></linearGradient><polygon fill="url(&quot;#NAV-Hi-res-4&quot;)" points="24.6,60 46.4,66.3 47,32.3 46.2,31.7 46.2,28.3 47,27.9 46.1,16.9 23,13.2"></polygon><polygon fill="#444444" points="24.4,15.5 45,18.8 45,63.6 25.8,58.1"></polygon><polygon fill="#ADA8F0" points="46.4,66.3 48.7,65.3 48.1,33.1 47,32.3"></polygon><linearGradient id="NAV-Hi-res-5" gradientUnits="userSpaceOnUse" x1="24.4351" y1="36.7903" x2="26.3441" y2="36.7903"><stop offset="0" style="stop-color: #DCFAEA;"></stop><stop offset="1" style="stop-color: #DFEEF7;"></stop></linearGradient><polygon fill="url(&quot;#NAV-Hi-res-5&quot;)" points="25.8,58.1 26.3,57.7 25,15.6 24.4,15.5"></polygon><linearGradient id="NAV-Hi-res-6" gradientUnits="userSpaceOnUse" x1="27.0977" y1="12.8927" x2="31.1363" y2="12.8927"><stop offset="0" style="stop-color: #DCFAEA;"></stop><stop offset="1" style="stop-color: #DFEEF7;"></stop></linearGradient><path fill="url(&quot;#NAV-Hi-res-6&quot;)" d="M27.1,12.9c0,0.5,0.9,0.8,2,0.8c1.1,0,2-0.4,2-0.8c0-0.5-0.9-0.8-2-0.8C28,12.1,27.1,12.4,27.1,12.9"></path><linearGradient id="NAV-Hi-res-7" gradientUnits="userSpaceOnUse" x1="25.8138" y1="60.637" x2="44.9918" y2="60.637"><stop offset="0" style="stop-color: #DCFAEA;"></stop><stop offset="1" style="stop-color: #DFEEF7;"></stop></linearGradient><polygon fill="url(&quot;#NAV-Hi-res-7&quot;)" points="25.8,58.1 45,63.6 45,62.8 26.3,57.7"></polygon><path fill="#444444" d="M30.6,12.9c0,0.3-0.7,0.6-1.5,0.6c-0.8,0-1.5-0.3-1.5-0.6c0-0.3,0.7-0.6,1.5-0.6C29.9,12.3,30.6,12.5,30.6,12.9"></path><linearGradient id="NAV-Hi-res-8" gradientUnits="userSpaceOnUse" x1="31.8696" y1="13.5196" x2="34.6509" y2="13.5196"><stop offset="0" style="stop-color: #DCFAEA;"></stop><stop offset="1" style="stop-color: #DFEEF7;"></stop></linearGradient><path fill="url(&quot;#NAV-Hi-res-8&quot;)" d="M31.9,13.5c0,0.3,0.6,0.6,1.4,0.6c0.8,0,1.4-0.3,1.4-0.6c0-0.3-0.6-0.6-1.4-0.6C32.5,12.9,31.9,13.2,31.9,13.5"></path><path fill="#444444" d="M34.2,13.5c0,0.2-0.4,0.4-0.9,0.4c-0.5,0-0.9-0.2-0.9-0.4c0-0.2,0.4-0.4,0.9-0.4C33.8,13.1,34.2,13.3,34.2,13.5"></path><polygon fill="#ADA8F0" points="47.5,15.2 39.8,14.1 38.8,14.3 46.5,15.5"></polygon><g id="NAV-SH-DAP-O" opacity="0"><rect fill="#fff" width="100" height="100" x="0" y="0"></rect><polygon fill="#FCEFBB" points="23,13.2 27.6,11.5 50.9,14.8 46.1,16.9"></polygon><linearGradient id="NAV-Hi-res-9" gradientUnits="userSpaceOnUse" x1="46.0951" y1="40.875" x2="49.4061" y2="40.875"><stop offset="0" style="stop-color: #F7A39F;"></stop><stop offset="1" style="stop-color: #FFDF97;"></stop></linearGradient><polygon fill="url(#NAV-Hi-res-9)" points="46.1,16.9 49.4,15.5 49.4,63.3 46.4,66.3"></polygon><polygon fill="#FCEFBB" points="46.1,16.9 48,19.7 52,17.8 50.9,14.8"></polygon><linearGradient id="NAV-Hi-res-10" gradientUnits="userSpaceOnUse" x1="48.0514" y1="27.045" x2="47.135" y2="21.6874"><stop offset="0.4095" style="stop-color: #F7A39F;"></stop><stop offset="1" style="stop-color: #FFDF97;"></stop></linearGradient><polygon fill="url(#NAV-Hi-res-10)" points="47,27.9 48.6,27.9 48,19.7"></polygon><polygon fill="none" points="47,27.9 48,19.7 46.1,16.9"></polygon><polygon fill="#F7A39F" points="48.6,27.9 51.1,26.6 52,17.7 48,19.7"></polygon><path fill="#444" d="M50.4,28c0,0-2.9,0.2-2.9,0.2c-0.4,0-0.5,0.6-0.6,0.8c-0.2,0.7-0.2,1.4,0,2.1c0.1,0.4,0.2,0.7,0.6,0.8c0.3,0.1,1.4,0.2,1.8,0.3c0.4,0.1,0.7,0.2,1.1,0.4c0,0,0,0,0,0V28z"></path><path fill="#808080" d="M51.7,30.3c0,1.3-0.6,2.3-1.3,2.3c-0.7,0-1.3-1-1.3-2.3c0-1.3,0.6-2.3,1.3-2.3C51.1,28,51.7,29.1,51.7,30.3"></path><linearGradient id="NAV-Hi-res-11" gradientUnits="userSpaceOnUse" x1="48.0907" y1="48.9868" x2="51.998" y2="48.9868"><stop offset="0.4095" style="stop-color: #F7A39F;"></stop><stop offset="1" style="stop-color: #FFDF97;"></stop></linearGradient><polygon fill="url(#NAV-Hi-res-11)" points="48.1,33.1 48.7,65.3 52,62.3 50.2,32.6"></polygon><linearGradient id="NAV-Hi-res-12" gradientUnits="userSpaceOnUse" x1="23.0015" y1="39.7258" x2="47.0266" y2="39.7258"><stop offset="0.4095" style="stop-color: #F7A39F;"></stop><stop offset="1" style="stop-color: #FFDF97;"></stop></linearGradient><polygon fill="url(#NAV-Hi-res-12)" points="24.6,60 46.4,66.3 47,32.3 46.2,31.7 46.2,28.3 47,27.9 46.1,16.9 23,13.2"></polygon><polygon fill="#444" points="24.4,15.5 45,18.8 45,63.6 25.8,58.1"></polygon><polygon fill="#F7A39F" points="46.4,66.3 48.7,65.3 48.1,33.1 47,32.3"></polygon><polygon fill="#FCEFBB" points="25.8,58.1 26.3,57.7 25,15.6 24.4,15.5"></polygon><linearGradient id="NAV-Hi-res-13" gradientUnits="userSpaceOnUse" x1="27.0977" y1="12.8927" x2="31.1363" y2="12.8927"><stop offset="0" style="stop-color: #F7A39F;"></stop><stop offset="1" style="stop-color: #FFDF97;"></stop></linearGradient><path fill="url(#NAV-Hi-res-13)" d="M27.1,12.9c0,0.5,0.9,0.8,2,0.8c1.1,0,2-0.4,2-0.8c0-0.5-0.9-0.8-2-0.8C28,12.1,27.1,12.4,27.1,12.9"></path><polygon fill="#FCEFBB" points="25.8,58.1 45,63.6 45,62.8 26.3,57.7"></polygon><path fill="#444" d="M30.6,12.9c0,0.3-0.7,0.6-1.5,0.6c-0.8,0-1.5-0.3-1.5-0.6c0-0.3,0.7-0.6,1.5-0.6C29.9,12.3,30.6,12.5,30.6,12.9"></path><linearGradient id="NAV-Hi-res-14" gradientUnits="userSpaceOnUse" x1="31.8696" y1="13.5196" x2="34.6509" y2="13.5196"><stop offset="0" style="stop-color: #F7A39F;"></stop><stop offset="1" style="stop-color: #FFDF97;"></stop></linearGradient><path fill="url(#NAV-Hi-res-14)" d="M31.9,13.5c0,0.3,0.6,0.6,1.4,0.6c0.8,0,1.4-0.3,1.4-0.6c0-0.3-0.6-0.6-1.4-0.6C32.5,12.9,31.9,13.2,31.9,13.5"></path><path fill="#444" d="M34.2,13.5c0,0.2-0.4,0.4-0.9,0.4c-0.5,0-0.9-0.2-0.9-0.4c0-0.2,0.4-0.4,0.9-0.4C33.8,13.1,34.2,13.3,34.2,13.5"></path><polygon fill="#F7A39F" points="47.5,15.2 39.8,14.1 38.8,14.3 46.5,15.5"></polygon></g></svg>