<svg xmlns="http://www.w3.org/2000/svg" xmlns:xlink="http://www.w3.org/1999/xlink" x="0px" y="0px" width="65" height="65" viewBox="0 0 75 75" enable-background="new 0 0 75 75" xml:space="preserve"><defs><linearGradient id="NAV-SH-PAD-1" gradientUnits="userSpaceOnUse" x1="55.5796" y1="20.6781" x2="45.5602" y2="13.8043"><stop offset="0" style="stop-color: #ADA8F0;"></stop><stop offset="1" style="stop-color: #90F5F2;"></stop></linearGradient><linearGradient id="NAV-SH-PAD-1" gradientUnits="userSpaceOnUse" x1="55.5796" y1="20.6781" x2="45.5602" y2="13.8043"><stop offset="0" style="stop-color: #ADA8F0;"></stop><stop offset="1" style="stop-color: #90F5F2;"></stop></linearGradient><linearGradient id="NAV-SH-PAD-2" gradientUnits="userSpaceOnUse" x1="15.1812" y1="60.4076" x2="52.8162" y2="60.4076"><stop offset="0" style="stop-color: #ADA8F0;"></stop><stop offset="1" style="stop-color: #90F5F2;"></stop></linearGradient></defs><path fill="#444444" d="M39.2,11.9l-2.9-2.7c-0.5-0.5-0.4-1.3,0.2-1.7l3.8-2.3C40.6,5,41,5,41.4,5.3l3.5,3.1L39.2,11.9z"></path><polygon fill="#AFAAF2" points="55.6,16.2 55.6,19 48.5,23.4 39,14.2 39,11 48.7,20.7"></polygon><linearGradient id="NAV-SH-PAD-1" gradientUnits="userSpaceOnUse" x1="55.5796" y1="20.6781" x2="45.5602" y2="13.8043"><stop offset="0" style="stop-color: #ADA8F0;"></stop><stop offset="1" style="stop-color: #90F5F2;"></stop></linearGradient><polygon fill="url(&quot;#NAV-SH-PAD-1&quot;)" points="48.7,20.7 55.6,16.2 46.2,9.5"></polygon><polygon fill="#80DDED" points="46.2,9.5 45.8,6.3 55.6,16.2"></polygon><polygon fill="#C0E7F9" points="46.2,9.5 39,11 45.8,6.3"></polygon><polygon fill="#AFAAF2" points="48.7,20.7 46.2,9.5 39,11"></polygon><path fill="#80DDED" d="M54,18.9c-0.4-0.4-1.4-0.2-2.2,0.5c-0.8,0.7-1.2,1.7-0.8,2.1l2.2,2.2l3-2.7L54,18.9z"></path><path fill="#C0E7F9" d="M55.2,23.1c-0.8,0.7-1.8,1-2.2,0.5c-0.4-0.4,0-1.4,0.8-2.1c0.8-0.7,1.8-1,2.2-0.5C56.4,21.4,56.1,22.4,55.2,23.1"></path><path fill="none" stroke="#444444" stroke-width="2.434px" stroke-linecap="round" stroke-miterlimit="10" d="M54.8,22.6c0,0,8.7,6.8,9,14.3c0.2,7.6-7.4,11.3-13.6,13.5"></path><polygon fill="#ADA8F0" points="52.8,54.2 52.8,57.5 14.9,69.9 10,59.4 10,55.9 15.2,66.6"></polygon><path fill="#80DDED" d="M52.4,47.3L52.4,47.3L52.4,47.3c0,0-0.1,0-0.1,0c0,0,0,0-0.1,0l-2.7,0.9c-0.6,0.2-0.8,1.2-0.5,2.2c0.3,1.1,1,1.8,1.6,1.7l2.7-1c0,0,0,0,0,0c0,0,0,0,0,0l0.1,0l0,0c0.5-0.3,0.6-1.2,0.4-2.2C53.6,48,53,47.3,52.4,47.3"></path><polygon fill="#C0E7F9" points="52.8,54.2 15.2,66.6 10,55.9 47.4,43.7"></polygon><polygon fill="#AFAAF2" points="15.2,66.6 19.2,55.1 10,55.9"></polygon><linearGradient id="NAV-SH-PAD-2" gradientUnits="userSpaceOnUse" x1="15.1812" y1="60.4076" x2="52.8162" y2="60.4076"><stop offset="0" style="stop-color: #ADA8F0;"></stop><stop offset="1" style="stop-color: #90F5F2;"></stop></linearGradient><polygon fill="url(&quot;#NAV-SH-PAD-2&quot;)" points="19.2,55.1 15.2,66.6 52.8,54.2"></polygon><polygon fill="#80DDED" points="19.2,55.1 47.4,43.7 10,55.9"></polygon><g id="NAV-SH-PAD-O" opacity="0"><rect fill="#fff" width="100" height="100" x="0" y="0"></rect><path fill="#444" d="M39.2,11.9l-2.9-2.7c-0.5-0.5-0.4-1.3,0.2-1.7l3.8-2.3C40.6,5,41,5,41.4,5.3l3.5,3.1L39.2,11.9z"></path><polygon fill="#FFDF97" points="46.2,9.5 45.8,6.3 55.6,16.2"></polygon><polygon fill="#FCEFBB" points="46.2,9.5 39,11 45.8,6.3"></polygon><polygon fill="#F7A39F" points="55.6,16.2 55.6,19 48.5,23.4 39,14.2 39,11 48.7,20.7"></polygon><linearGradient id="NAV-SH-PAD-3" gradientUnits="userSpaceOnUse" x1="55.5796" y1="20.6781" x2="45.5602" y2="13.8043"><stop offset="0" style="stop-color: #F7A39F;"></stop><stop offset="1" style="stop-color: #FFDF97;"></stop></linearGradient><polygon fill="url(#NAV-SH-PAD-3)" points="48.7,20.7 55.6,16.2 46.2,9.5"></polygon><polygon fill="#F7A39F" points="48.7,20.7 46.2,9.5 39,11"></polygon><path fill="#FFDF97" d="M54,18.9c-0.4-0.4-1.4-0.2-2.2,0.5c-0.8,0.7-1.2,1.7-0.8,2.1l2.2,2.2l3-2.7L54,18.9z"></path><path fill="#FCEFBB" d="M55.2,23.1c-0.8,0.7-1.8,1-2.2,0.5c-0.4-0.4,0-1.4,0.8-2.1c0.8-0.7,1.8-1,2.2-0.5C56.4,21.4,56.1,22.4,55.2,23.1"></path><path fill="none" stroke="#444" stroke-width="2.434" stroke-linecap="round" stroke-miterlimit="10" d="M54.8,22.6c0,0,8.7,6.8,9,14.3c0.2,7.6-7.4,11.3-13.6,13.5"></path><polygon fill="#F7A39F" points="52.8,54.2 52.8,57.5 14.9,69.9 10,59.4 10,55.9 15.2,66.6"></polygon><path fill="#FFDF97" d="M52.4,47.3L52.4,47.3L52.4,47.3c0,0-0.1,0-0.1,0c0,0,0,0-0.1,0l-2.7,0.9c-0.6,0.2-0.8,1.2-0.5,2.2c0.3,1.1,1,1.8,1.6,1.7l2.7-1c0,0,0,0,0,0c0,0,0,0,0,0l0.1,0l0,0c0.5-0.3,0.6-1.2,0.4-2.2C53.6,48,53,47.3,52.4,47.3"></path><polygon fill="#FCEFBB" points="52.8,54.2 15.2,66.6 10,55.9 47.4,43.7"></polygon><polygon fill="#F7A39F" points="15.2,66.6 19.2,55.1 10,55.9"></polygon><linearGradient id="NAV-SH-PAD-4" gradientUnits="userSpaceOnUse" x1="15.1812" y1="60.4076" x2="52.8162" y2="60.4076"><stop offset="0" style="stop-color: #F7A39F;"></stop><stop offset="1" style="stop-color: #FFDF97;"></stop></linearGradient><polygon fill="url(#NAV-SH-PAD-4)" points="19.2,55.1 15.2,66.6 52.8,54.2"></polygon><polygon fill="#FFDF97" points="19.2,55.1 47.4,43.7 10,55.9"></polygon></g></svg>