<svg xmlns="http://www.w3.org/2000/svg" xmlns:xlink="http://www.w3.org/1999/xlink" x="0px" y="0px" width="65" height="65" viewBox="0 0 75 75" enable-background="new 0 0 75 75" xml:space="preserve"><defs><linearGradient id="NAV-FH-IEM-1" gradientUnits="userSpaceOnUse" x1="39.3839" y1="36.6674" x2="53.6509" y2="36.6674"><stop offset="0" style="stop-color: #DCFAEA;"></stop><stop offset="1" style="stop-color: #DFEEF7;"></stop></linearGradient><linearGradient id="NAV-FH-IEM-1" gradientUnits="userSpaceOnUse" x1="39.3839" y1="36.6674" x2="53.6509" y2="36.6674"><stop offset="0" style="stop-color: #DCFAEA;"></stop><stop offset="1" style="stop-color: #DFEEF7;"></stop></linearGradient><linearGradient id="NAV-FH-IEM-2" gradientUnits="userSpaceOnUse" x1="48.4124" y1="36.4551" x2="58.0378" y2="36.4551"><stop offset="0" style="stop-color: #ADA8F0;"></stop><stop offset="1" style="stop-color: #90F5F2;"></stop></linearGradient><linearGradient id="NAV-FH-IEM-3" gradientUnits="userSpaceOnUse" x1="21.3494" y1="47.3732" x2="35.6164" y2="47.3732"><stop offset="0" style="stop-color: #DCFAEA;"></stop><stop offset="1" style="stop-color: #DFEEF7;"></stop></linearGradient><linearGradient id="NAV-FH-IEM-4" gradientUnits="userSpaceOnUse" x1="16.9618" y1="47.1608" x2="26.5879" y2="47.1608"><stop offset="0" style="stop-color: #90F5F2;"></stop><stop offset="1" style="stop-color: #ADA8F0;"></stop></linearGradient></defs><path fill="#444444" d="M42.3,36.8c0,0-0.5-0.6-1.5-0.7c-1-0.1-3.5-0.3-5.1,1.9c-1.7,2.2-0.3,4.1,0.1,4.6c0.4,0.5,1.5,1.8,3.8,2.2c2.3,0.4,3.2-1.6,3.2-1.6L42.3,36.8z"></path><path fill="#808080" d="M43.6,40.9c-0.4,2.2-1.9,3.7-3.3,3.4c-1.5-0.3-2.3-2.2-2-4.4c0.4-2.2,1.9-3.7,3.3-3.4C43.1,36.8,44,38.8,43.6,40.9"></path><linearGradient id="NAV-FH-IEM-1" gradientUnits="userSpaceOnUse" x1="39.3839" y1="36.6674" x2="53.6509" y2="36.6674"><stop offset="0" style="stop-color: #DCFAEA;"></stop><stop offset="1" style="stop-color: #DFEEF7;"></stop></linearGradient><path fill="url(&quot;#NAV-FH-IEM-1&quot;)" d="M49.8,27.8c-0.6,0-0.9,0-1.2,0c-0.4,0-0.5,0-0.8,0.1c-1.1,0.4-1.7,1.6-2,2.3c-0.3,0.6-0.5,1.3-0.8,2.7c-0.4,2-0.2,2.4-0.8,3.2c-0.5,0.7-1.5,1.4-2.5,1.8c-0.5,0.2-0.8,0.2-1.2,0.5c-0.7,0.5-0.9,1.3-1,1.5c-0.2,1,0.1,1.8,0.2,2c0.2,0.4,0.5,0.8,1.6,1.6c1.2,0.8,2.5,1.7,4.3,2c0.5,0.1,1.5,0.2,2.1-0.1c0.3-0.1,0.6-0.2,0.9-0.4c0.2-0.1,0.3-0.1,0.5-0.2c0.2,0,0.5,0,0.6,0.1c0.8-2,1.5-4.3,2.2-6.7c0.6-2.2,1.1-4.2,1.5-6.2c-0.1-3.5-0.9-4.3-1.5-4.6c-0.1,0-0.2-0.1-0.3-0.1C51.5,27.7,51.1,27.8,49.8,27.8"></path><path fill="#80DDED" d="M48.3,30.9c-0.8,1.1-1.9,1.6-2.5,1.2L45,31.5c0.2,0.1,0.3,0.1,0.5,0.1c0.4,0,0.8-0.3,1.2-0.6c0.1-0.1,0.2-0.2,0.3-0.3c0.1-0.1,0.2-0.2,0.3-0.3c0.1-0.2,0.2-0.3,0.3-0.5c0.3-0.6,0.4-1.2,0.3-1.6c-0.1-0.2-0.2-0.4-0.3-0.6c0.4,0.3,1.1,0.6,1.3,1.2C49.2,29.4,48.7,30.4,48.3,30.9"></path><path fill="#444444" d="M48,28.1c-0.1-0.2-0.2-0.4-0.3-0.6c0,0,0,0,0,0c0,0-1.1-0.9-2-2.3c-0.8-1.4-0.6-3.2-0.6-3.2s-0.5-0.3-2-0.4c-1.5-0.1-2.1,0.3-2.1,0.3s-0.9,3.1,0.5,5.7c1.4,2.7,3.4,3.8,3.4,3.8l0,0l0.1,0.1c0.2,0.1,0.3,0.1,0.5,0.1c0.4,0,0.8-0.3,1.2-0.6c0.1-0.1,0.2-0.2,0.3-0.3c0.1-0.1,0.2-0.2,0.3-0.3c0.1-0.2,0.2-0.3,0.3-0.5l0,0C47.9,29.1,48.1,28.5,48,28.1"></path><path fill="#80DDED" d="M57.3,56l-1.1-0.9C56,55,56,54.7,56.1,54.5c1-1.4,5-7.2,5.9-12.6c1-5.7,1.7-13.1-1.1-19.3c-2.5-5.5-8.6-8.2-12.7-7.2c-3.6,0.8-4,6.3-4,6.3l-2.3-0.1c0-0.3,0.5-7.2,5.8-8.4C52.7,12,60,15,63,21.7c3.1,6.7,2.3,14.5,1.3,20.6c-1,6-5.2,12.1-6.3,13.6C57.8,56.1,57.5,56.1,57.3,56"></path><linearGradient id="NAV-FH-IEM-2" gradientUnits="userSpaceOnUse" x1="48.4124" y1="36.4551" x2="58.0378" y2="36.4551"><stop offset="0" style="stop-color: #ADA8F0;"></stop><stop offset="1" style="stop-color: #90F5F2;"></stop></linearGradient><path fill="url(&quot;#NAV-FH-IEM-2&quot;)" d="M50.6,28.1c-1.3,0.7-1.7,2.5-1.8,3.9c-0.1,1.5,0.1,2.9,0.4,4.3c0.3,1.5,0.6,2,0.4,3c-0.2,1-0.7,1.1-1,2.2c-0.1,0.4-0.6,2.2,0.5,3.2c0.6,0.5,1.5,0.7,2.2,0.4c0.6-0.3,0.9-0.9,1.3-1.7c0.5-0.9,0.3-1.1,0.7-1.8c0.3-0.5,0.7-0.8,1.2-1.3c0.7-0.6,1.3-1,1.6-1.1c1.8-1.2,1.9-4.3,1.9-4.5c0-0.2,0.1-3.7-2.7-5.7c-0.2-0.1-1.8-1.2-3.3-1.2C51.5,27.7,51,27.8,50.6,28.1"></path><path fill="#444444" d="M32.7,47.5c0,0,0.5-0.6,1.5-0.7c1-0.1,3.5-0.3,5.1,1.9c1.7,2.2,0.3,4.1-0.1,4.6c-0.4,0.5-1.5,1.8-3.8,2.2c-2.3,0.4-3.2-1.6-3.2-1.6L32.7,47.5z"></path><path fill="#808080" d="M31.4,51.6c0.4,2.2,1.9,3.7,3.3,3.4c1.5-0.3,2.3-2.2,2-4.4c-0.4-2.2-1.9-3.7-3.3-3.4C31.9,47.5,31,49.5,31.4,51.6"></path><linearGradient id="NAV-FH-IEM-3" gradientUnits="userSpaceOnUse" x1="21.3494" y1="47.3732" x2="35.6164" y2="47.3732"><stop offset="0" style="stop-color: #DCFAEA;"></stop><stop offset="1" style="stop-color: #DFEEF7;"></stop></linearGradient><path fill="url(&quot;#NAV-FH-IEM-3&quot;)" d="M22.8,38.4c-0.6,0.2-1.4,1-1.5,4.6c0.4,1.9,0.9,4,1.5,6.2c0.7,2.4,1.5,4.6,2.2,6.7c0.1-0.1,0.3-0.1,0.6-0.1c0.2,0,0.4,0.1,0.5,0.2c0.3,0.1,0.6,0.2,0.9,0.4c0.7,0.3,1.6,0.1,2.1,0.1c1.8-0.3,3.1-1.2,4.3-2c1.1-0.8,1.4-1.2,1.6-1.6c0.1-0.2,0.5-1,0.2-2c-0.1-0.2-0.3-1-1-1.5c-0.4-0.3-0.8-0.4-1.2-0.5c-1.1-0.4-2-1.1-2.5-1.8c-0.6-0.8-0.4-1.2-0.8-3.2c-0.3-1.4-0.5-2.1-0.8-2.7c-0.3-0.7-0.9-1.8-2-2.3c-0.3-0.1-0.4-0.1-0.8-0.1c-0.3,0-0.6,0-1.2,0c-1.3,0-1.8-0.1-2.1-0.1C23,38.4,23,38.4,22.8,38.4"></path><path fill="#80DDED" d="M26.7,41.6c0.8,1.1,1.9,1.6,2.5,1.2l0.9-0.6c-0.2,0.1-0.3,0.1-0.5,0.1c-0.4,0-0.8-0.3-1.2-0.6c-0.1-0.1-0.2-0.2-0.3-0.3c-0.1-0.1-0.2-0.2-0.3-0.3c-0.1-0.2-0.2-0.3-0.3-0.5c-0.3-0.6-0.4-1.2-0.3-1.6c0.1-0.2,0.2-0.4,0.3-0.6c-0.4,0.3-1.1,0.6-1.3,1.2C25.8,40.1,26.3,41.1,26.7,41.6"></path><path fill="#444444" d="M27,38.8c0.1-0.2,0.2-0.4,0.3-0.6c0,0,0,0,0,0c0,0,1.1-0.9,2-2.3c0.8-1.4,0.6-3.2,0.6-3.2s0.5-0.3,2-0.4c1.5-0.1,2.1,0.3,2.1,0.3s0.9,3.1-0.5,5.7c-1.4,2.7-3.4,3.8-3.4,3.8l0,0L30,42.2c-0.2,0.1-0.3,0.1-0.5,0.1c-0.4,0-0.8-0.3-1.2-0.6c-0.1-0.1-0.2-0.2-0.3-0.3c-0.1-0.1-0.2-0.2-0.3-0.3c-0.1-0.2-0.2-0.3-0.3-0.5l0,0C27.1,39.8,26.9,39.2,27,38.8"></path><path fill="#80DDED" d="M17.7,66.7l1.1-0.9c0.2-0.1,0.2-0.4,0.1-0.6c-1-1.4-5-7.2-5.9-12.6c-1-5.7-1.7-13.1,1.1-19.3c2.5-5.5,8.6-8.2,12.7-7.2c3.6,0.8,4,6.3,4,6.3l2.3-0.1c0-0.3-0.5-7.2-5.8-8.4c-5-1.1-12.3,1.8-15.3,8.5C8.9,39.1,9.7,46.9,10.7,53c1,6,5.2,12.1,6.4,13.6C17.2,66.8,17.5,66.8,17.7,66.7"></path><linearGradient id="NAV-FH-IEM-4" gradientUnits="userSpaceOnUse" x1="16.9618" y1="47.1608" x2="26.5879" y2="47.1608"><stop offset="0" style="stop-color: #90F5F2;"></stop><stop offset="1" style="stop-color: #ADA8F0;"></stop></linearGradient><path fill="url(&quot;#NAV-FH-IEM-4&quot;)" d="M19.7,39.6c-2.8,1.9-2.7,5.4-2.7,5.7c0,0.2,0.1,3.3,1.9,4.5c0.3,0.2,0.8,0.5,1.6,1.1c0.5,0.5,0.9,0.8,1.2,1.3c0.4,0.7,0.3,0.9,0.7,1.8c0.4,0.8,0.7,1.4,1.3,1.7c0.7,0.3,1.6,0.1,2.2-0.4c1-0.9,0.6-2.7,0.5-3.2c-0.3-1.1-0.7-1.2-1-2.2c-0.2-1,0.1-1.5,0.4-3c0.3-1.4,0.5-2.9,0.4-4.3c-0.1-1.4-0.5-3.1-1.8-3.9c-0.5-0.3-0.9-0.4-1.4-0.4C21.4,38.4,19.9,39.5,19.7,39.6"></path><path fill="#444444" d="M22.8,70.9l-0.9,0.7c-0.3,0.2-0.7,0.2-1-0.1l-4.6-5.1c-0.6-0.6-0.7-1.5-0.2-1.9l1.5-1.1c0.5-0.4,1.3,0,1.7,0.7L23,70C23.2,70.3,23.1,70.7,22.8,70.9"></path><path fill="#444444" d="M52.8,62.1l-0.9-0.7c-0.3-0.2-0.4-0.6-0.2-1l3.6-5.9c0.5-0.7,1.2-1.1,1.7-0.8l1.5,1.1c0.5,0.3,0.4,1.2-0.2,1.9L53.8,62C53.5,62.2,53.1,62.3,52.8,62.1"></path><line fill="none" stroke="#444444" stroke-width="1.946px" stroke-miterlimit="10" x1="22.4" y1="71.2" x2="27.5" y2="77"></line><line fill="none" stroke="#444444" stroke-width="1.946px" stroke-miterlimit="10" x1="52.8" y1="61.2" x2="48" y2="67.1"></line><g id="NAV-SH-FIEM-O" opacity="0"><rect x="0" y="0" width="100" height="100" fill="#fff"></rect><path fill="#444" d="M42.3,36.8c0,0-0.5-0.6-1.5-0.7c-1-0.1-3.5-0.3-5.1,1.9c-1.7,2.2-0.3,4.1,0.1,4.6c0.4,0.5,1.5,1.8,3.8,2.2c2.3,0.4,3.2-1.6,3.2-1.6L42.3,36.8z"></path><path fill="#808080" d="M43.6,40.9c-0.4,2.2-1.9,3.7-3.3,3.4c-1.5-0.3-2.3-2.2-2-4.4c0.4-2.2,1.9-3.7,3.3-3.4C43.1,36.8,44,38.8,43.6,40.9"></path><path fill="#FCEFBB" d="M49.8,27.8c-0.6,0-0.9,0-1.2,0c-0.4,0-0.5,0-0.8,0.1c-1.1,0.4-1.7,1.6-2,2.3c-0.3,0.6-0.5,1.3-0.8,2.7c-0.4,2-0.2,2.4-0.8,3.2c-0.5,0.7-1.5,1.4-2.5,1.8c-0.5,0.2-0.8,0.2-1.2,0.5c-0.7,0.5-0.9,1.3-1,1.5c-0.2,1,0.1,1.8,0.2,2c0.2,0.4,0.5,0.8,1.6,1.6c1.2,0.8,2.5,1.7,4.3,2c0.5,0.1,1.5,0.2,2.1-0.1c0.3-0.1,0.6-0.2,0.9-0.4c0.2-0.1,0.3-0.1,0.5-0.2c0.2,0,0.5,0,0.6,0.1c0.8-2,1.5-4.3,2.2-6.7c0.6-2.2,1.1-4.2,1.5-6.2c-0.1-3.5-0.9-4.3-1.5-4.6c-0.1,0-0.2-0.1-0.3-0.1C51.5,27.7,51.1,27.8,49.8,27.8"></path><path fill="#F7A39F" d="M48.3,30.9c-0.8,1.1-1.9,1.6-2.5,1.2L45,31.5c0.2,0.1,0.3,0.1,0.5,0.1c0.4,0,0.8-0.3,1.2-0.6c0.1-0.1,0.2-0.2,0.3-0.3c0.1-0.1,0.2-0.2,0.3-0.3c0.1-0.2,0.2-0.3,0.3-0.5c0.3-0.6,0.4-1.2,0.3-1.6c-0.1-0.2-0.2-0.4-0.3-0.6c0.4,0.3,1.1,0.6,1.3,1.2C49.2,29.4,48.7,30.4,48.3,30.9"></path><path fill="#444" d="M48,28.1c-0.1-0.2-0.2-0.4-0.3-0.6c0,0,0,0,0,0c0,0-1.1-0.9-2-2.3c-0.8-1.4-0.6-3.2-0.6-3.2s-0.5-0.3-2-0.4c-1.5-0.1-2.1,0.3-2.1,0.3s-0.9,3.1,0.5,5.7c1.4,2.7,3.4,3.8,3.4,3.8l0,0l0.1,0.1c0.2,0.1,0.3,0.1,0.5,0.1c0.4,0,0.8-0.3,1.2-0.6c0.1-0.1,0.2-0.2,0.3-0.3c0.1-0.1,0.2-0.2,0.3-0.3c0.1-0.2,0.2-0.3,0.3-0.5l0,0C47.9,29.1,48.1,28.5,48,28.1"></path><path fill="#F7A39F" d="M57.3,56l-1.1-0.9C56,55,56,54.7,56.1,54.5c1-1.4,5-7.2,5.9-12.6c1-5.7,1.7-13.1-1.1-19.3c-2.5-5.5-8.6-8.2-12.7-7.2c-3.6,0.8-4,6.3-4,6.3l-2.3-0.1c0-0.3,0.5-7.2,5.8-8.4C52.7,12,60,15,63,21.7c3.1,6.7,2.3,14.5,1.3,20.6c-1,6-5.2,12.1-6.3,13.6C57.8,56.1,57.5,56.1,57.3,56"></path><linearGradient id="NAV-FH-IEM-5" gradientUnits="userSpaceOnUse" x1="48.4124" y1="36.4551" x2="58.0378" y2="36.4551"><stop offset="0" style="stop-color: #F7A39F;"></stop><stop offset="1" style="stop-color: #FFDF97;"></stop></linearGradient><path fill="url(#NAV-FH-IEM-5)" d="M50.6,28.1c-1.3,0.7-1.7,2.5-1.8,3.9c-0.1,1.5,0.1,2.9,0.4,4.3c0.3,1.5,0.6,2,0.4,3c-0.2,1-0.7,1.1-1,2.2c-0.1,0.4-0.6,2.2,0.5,3.2c0.6,0.5,1.5,0.7,2.2,0.4c0.6-0.3,0.9-0.9,1.3-1.7c0.5-0.9,0.3-1.1,0.7-1.8c0.3-0.5,0.7-0.8,1.2-1.3c0.7-0.6,1.3-1,1.6-1.1c1.8-1.2,1.9-4.3,1.9-4.5c0-0.2,0.1-3.7-2.7-5.7c-0.2-0.1-1.8-1.2-3.3-1.2C51.5,27.7,51,27.8,50.6,28.1"></path><path fill="#444" d="M32.7,47.5c0,0,0.5-0.6,1.5-0.7c1-0.1,3.5-0.3,5.1,1.9c1.7,2.2,0.3,4.1-0.1,4.6c-0.4,0.5-1.5,1.8-3.8,2.2c-2.3,0.4-3.2-1.6-3.2-1.6L32.7,47.5z"></path><path fill="#808080" d="M31.4,51.6c0.4,2.2,1.9,3.7,3.3,3.4c1.5-0.3,2.3-2.2,2-4.4c-0.4-2.2-1.9-3.7-3.3-3.4C31.9,47.5,31,49.5,31.4,51.6"></path><path fill="#FCEFBB" d="M22.8,38.4c-0.6,0.2-1.4,1-1.5,4.6c0.4,1.9,0.9,4,1.5,6.2c0.7,2.4,1.5,4.6,2.2,6.7c0.1-0.1,0.3-0.1,0.6-0.1c0.2,0,0.4,0.1,0.5,0.2c0.3,0.1,0.6,0.2,0.9,0.4c0.7,0.3,1.6,0.1,2.1,0.1c1.8-0.3,3.1-1.2,4.3-2c1.1-0.8,1.4-1.2,1.6-1.6c0.1-0.2,0.5-1,0.2-2c-0.1-0.2-0.3-1-1-1.5c-0.4-0.3-0.8-0.4-1.2-0.5c-1.1-0.4-2-1.1-2.5-1.8c-0.6-0.8-0.4-1.2-0.8-3.2c-0.3-1.4-0.5-2.1-0.8-2.7c-0.3-0.7-0.9-1.8-2-2.3c-0.3-0.1-0.4-0.1-0.8-0.1c-0.3,0-0.6,0-1.2,0c-1.3,0-1.8-0.1-2.1-0.1C23,38.4,23,38.4,22.8,38.4"></path><path fill="#F7A39F" d="M26.7,41.6c0.8,1.1,1.9,1.6,2.5,1.2l0.9-0.6c-0.2,0.1-0.3,0.1-0.5,0.1c-0.4,0-0.8-0.3-1.2-0.6c-0.1-0.1-0.2-0.2-0.3-0.3c-0.1-0.1-0.2-0.2-0.3-0.3c-0.1-0.2-0.2-0.3-0.3-0.5c-0.3-0.6-0.4-1.2-0.3-1.6c0.1-0.2,0.2-0.4,0.3-0.6c-0.4,0.3-1.1,0.6-1.3,1.2C25.8,40.1,26.3,41.1,26.7,41.6"></path><path fill="#444" d="M27,38.8c0.1-0.2,0.2-0.4,0.3-0.6c0,0,0,0,0,0c0,0,1.1-0.9,2-2.3c0.8-1.4,0.6-3.2,0.6-3.2s0.5-0.3,2-0.4c1.5-0.1,2.1,0.3,2.1,0.3s0.9,3.1-0.5,5.7c-1.4,2.7-3.4,3.8-3.4,3.8l0,0L30,42.2c-0.2,0.1-0.3,0.1-0.5,0.1c-0.4,0-0.8-0.3-1.2-0.6c-0.1-0.1-0.2-0.2-0.3-0.3c-0.1-0.1-0.2-0.2-0.3-0.3c-0.1-0.2-0.2-0.3-0.3-0.5l0,0C27.1,39.8,26.9,39.2,27,38.8"></path><path fill="#F7A39F" d="M17.7,66.7l1.1-0.9c0.2-0.1,0.2-0.4,0.1-0.6c-1-1.4-5-7.2-5.9-12.6c-1-5.7-1.7-13.1,1.1-19.3c2.5-5.5,8.6-8.2,12.7-7.2c3.6,0.8,4,6.3,4,6.3l2.3-0.1c0-0.3-0.5-7.2-5.8-8.4c-5-1.1-12.3,1.8-15.3,8.5C8.9,39.1,9.7,46.9,10.7,53c1,6,5.2,12.1,6.4,13.6C17.2,66.8,17.5,66.8,17.7,66.7"></path><linearGradient id="NAV-FH-IEM-6" gradientUnits="userSpaceOnUse" x1="16.9618" y1="47.1608" x2="26.5879" y2="47.1608"><stop offset="0" style="stop-color: #F7A39F;"></stop><stop offset="1" style="stop-color: #FFDF97;"></stop></linearGradient><path fill="url(#NAV-FH-IEM-6)" d="M19.7,39.6c-2.8,1.9-2.7,5.4-2.7,5.7c0,0.2,0.1,3.3,1.9,4.5c0.3,0.2,0.8,0.5,1.6,1.1c0.5,0.5,0.9,0.8,1.2,1.3c0.4,0.7,0.3,0.9,0.7,1.8c0.4,0.8,0.7,1.4,1.3,1.7c0.7,0.3,1.6,0.1,2.2-0.4c1-0.9,0.6-2.7,0.5-3.2c-0.3-1.1-0.7-1.2-1-2.2c-0.2-1,0.1-1.5,0.4-3c0.3-1.4,0.5-2.9,0.4-4.3c-0.1-1.4-0.5-3.1-1.8-3.9c-0.5-0.3-0.9-0.4-1.4-0.4C21.4,38.4,19.9,39.5,19.7,39.6"></path><path fill="#444" d="M22.8,70.9l-0.9,0.7c-0.3,0.2-0.7,0.2-1-0.1l-4.6-5.1c-0.6-0.6-0.7-1.5-0.2-1.9l1.5-1.1c0.5-0.4,1.3,0,1.7,0.7L23,70C23.2,70.3,23.1,70.7,22.8,70.9"></path><path fill="#444" d="M52.8,62.1l-0.9-0.7c-0.3-0.2-0.4-0.6-0.2-1l3.6-5.9c0.5-0.7,1.2-1.1,1.7-0.8l1.5,1.1c0.5,0.3,0.4,1.2-0.2,1.9L53.8,62C53.5,62.2,53.1,62.3,52.8,62.1"></path><line fill="none" stroke="#444" stroke-width="1.946" stroke-miterlimit="10" x1="22.4" y1="71.2" x2="27.5" y2="77"></line><line fill="none" stroke="#444" stroke-width="1.946" stroke-miterlimit="10" x1="52.8" y1="61.2" x2="48" y2="67.1"></line></g></svg>