<svg xmlns="http://www.w3.org/2000/svg" xmlns:xlink="http://www.w3.org/1999/xlink" x="0px" y="0px" width="65" height="65" viewBox="0 0 75 75" enable-background="new 0 0 75 75" xml:space="preserve"><defs><linearGradient id="NAV-SH-WH-1" gradientUnits="userSpaceOnUse" x1="18.7804" y1="20.5875" x2="55.1006" y2="20.5875"><stop offset="0" style="stop-color: #F7A39F;"></stop><stop offset="1" style="stop-color: #FFDF97;"></stop></linearGradient><linearGradient id="NAV-SH-WH-1" gradientUnits="userSpaceOnUse" x1="18.7804" y1="20.5875" x2="55.1006" y2="20.5875"><stop offset="0" style="stop-color: #F7A39F;"></stop><stop offset="1" style="stop-color: #FFDF97;"></stop></linearGradient><linearGradient id="NAV-SH-WH-2" gradientUnits="userSpaceOnUse" x1="46.3255" y1="41.1455" x2="49.7137" y2="41.1455"><stop offset="0" style="stop-color: #F7A39F;"></stop><stop offset="1" style="stop-color: #FFDF97;"></stop></linearGradient><linearGradient id="NAV-SH-WH-3" gradientUnits="userSpaceOnUse" x1="18.7804" y1="20.5875" x2="55.1006" y2="20.5875"><stop offset="0" style="stop-color: #ADA8F0;"></stop><stop offset="1" style="stop-color: #90F5F2;"></stop></linearGradient><linearGradient id="NAV-SH-WH-4" gradientUnits="userSpaceOnUse" x1="46.3255" y1="41.1455" x2="49.7137" y2="41.1455"><stop offset="0" style="stop-color: #ADA8F0;"></stop><stop offset="1" style="stop-color: #90F5F2;"></stop></linearGradient></defs><path fill="#FCEFBB" d="M17.3,39.8c0,0-3.3,1-4.4,4.3c-1.1,3.3,0.3,8.8,1.2,11.3c0.9,2.6,2.4,8.1,7.8,11.8c5.3,3.7,12,1.2,13.4-0.3l-3.6-7.7C26.9,52.7,22.1,46.3,17.3,39.8z"></path><path fill="#444444" d="M36.4,43.6c0,0-1.5-3.3-5.3-5.6c-3.8-2.3-8.9-2-12.6,0.5c-3.7,2.5-2,10.5-1.8,11.4c0.2,1,1.5,6.9,4.3,10.4c1.9,2.3,4.4,4.6,7.7,5.2c0.4,0.1,3.5,0.7,5.5-0.4C38.4,63.2,39.9,54.3,36.4,43.6z"></path><path fill="#F7A39F" d="M25.6,43c0.4,0,0.8,0.1,1.1,0.2c1.5,0.4,2.9,1.2,3.8,2.6c1.6,2.5,2.8,5.9,2.8,5.9l-0.1,6.1L31.5,59c0,0-3-0.1-4.8-2.9c-1.1-1.8-2.1-3.7-2.7-5.7c-0.3-1-0.6-2.1-0.8-3.1c-0.2-1-0.4-2.1,0-3.1C23.7,43.2,24.6,43,25.6,43"></path><path fill="#444444" d="M52.4,37.5c0,0-4.8-1.6-9.1,0c-4.3,1.6-7.2,5.8-8,7.8c-0.8,2-2.8,7.1-3.7,11.3c-0.8,4.2,0.5,7,3.3,9.5c6.1-8.5,12.3-17,18.4-25.5L52.4,37.5z"></path><path fill="#FCEFBB" d="M52.4,39.2c0,0-5.7,0.3-8,1.9c-2.3,1.6-4.6,3.2-6.6,8.4c-2,5.2-3.2,9-3.5,11.2c-0.3,2.2,0,6.1,2.4,7.8c2.4,1.7,7,2.7,11.6,0.6c4.6-2,7.4-5.6,9.2-9.8c1.8-4.3,4.1-12.3,3.2-15C59.9,41.6,57.3,39.6,52.4,39.2"></path><linearGradient id="NAV-SH-WH-1" gradientUnits="userSpaceOnUse" x1="18.7804" y1="20.5875" x2="55.1006" y2="20.5875"><stop offset="0" style="stop-color: #F7A39F;"></stop><stop offset="1" style="stop-color: #FFDF97;"></stop></linearGradient><path fill="url(&quot;#NAV-SH-WH-1&quot;)" d="M19.1,16.6c-0.5,1.1-0.4,3,0.8,4.2c1.2,1.2,0.7,2.2,0.7,2.2c-2,5.5-1.8,11.6-1.8,11.6l3.3,0.1c0-1.9,0.2-3.7,0.5-5.6c0.3-1.7,0.6-3.3,1.1-4.9c0.3-1,0.9-2,1.9-2.6c0.4-0.2,1.1-0.8,1.7-1.3c0,0,0.1-0.1,0.1-0.1c0.1-0.1,0.1-0.1,0.2-0.2c-1.3,1.1-3.3,1.9-5.1,1.2c-2.2-0.9-2.4-2.8-1.7-4.3c0.7-1.5,4-7.9,10-8.5C36,8,40,12,41.7,14.5l0,0c0.3,0.4,0.4,0.7,0.6,1c1.1,2.2,2.7,3.6,4.7,4.8c2,1.2,2.1,1.8,2.9,4.3c0.9,2.4,1.6,10.2,1.6,10.2l3.6-0.1c0-5.6-1.3-9.9-1.9-11.9c-0.6-2-0.5-1.8,0.4-2.8c0.9-1,0.6-3.4,0.2-4.6c-0.5-1.1-3.2-5.4-7.5-7.8c-4.3-2.4-9.3-0.1-9.3-0.1c-2-0.8-3.7-1.1-5.4-1.1C23.2,6.4,19.5,15.6,19.1,16.6"></path><path fill="#F7D0D0" d="M41.7,14.5c-2.6-2.2-5-2-7.4-1.3c-2.4,0.6-3.3,2.9-4.5,4.7c-0.7,1-1.6,1.8-2.3,2.4c0.1-0.1,0.1-0.1,0.2-0.2c-1.3,1.1-3.3,1.9-5.1,1.2c-2.2-0.9-2.4-2.8-1.7-4.3c0.7-1.5,4-7.9,10-8.5C36,8,40,12,41.7,14.5L41.7,14.5z"></path><path fill="#F7A39F" d="M39.3,9c0,0,3.5-1.2,7.5,1.4c1.6,1,3,2.3,4,3.8c0.7,0.9,1.9,2.6,1.1,3.8c-0.6,0.8-1.9,0.7-2.8,0.5c-0.9-0.2-1.8-0.7-2.5-1.3c-1.7-1.4-2.9-3.2-4.1-4.9c-0.5-0.7-1.1-1.5-1.7-2.2C40.6,9.9,39.7,8.8,39.3,9"></path><polygon fill="#F7D0D0" points="51.5,34.8 51.5,36.1 55.1,36.1 55.1,34.6"></polygon><polygon fill="#F7D0D0" points="18.8,34.6 18.8,35.7 22.1,35.9 22.2,34.8"></polygon><path fill="#444444" d="M52.4,36.1v3.1c0,0,0.2,0.8,0.9,0.8c0.7,0,1.1-0.3,1.1-0.9v-3L52.4,36.1z"></path><linearGradient id="NAV-SH-WH-2" gradientUnits="userSpaceOnUse" x1="46.3255" y1="41.1455" x2="49.7137" y2="41.1455"><stop offset="0" style="stop-color: #F7A39F;"></stop><stop offset="1" style="stop-color: #FFDF97;"></stop></linearGradient><path fill="url(&quot;#NAV-SH-WH-2&quot;)" d="M46.3,40.2v0.9c0,0,1,1,1.8,1c0.8,0,1.3-0.6,1.5-1l-0.1-1L46.3,40.2z"></path><polygon fill="#444444" points="19.4,35.8 19.4,38.6 21.3,37.6 21.3,35.6"></polygon><path fill="#FFDF97" d="M49.6,40.2c0,0.5-0.7,0.9-1.6,0.9c-0.9,0-1.6-0.4-1.6-0.9c0-0.5,0.7-0.9,1.6-0.9C48.8,39.2,49.6,39.7,49.6,40.2"></path><path fill="#C0E7F9" d="M17.3,39.8c0,0-3.3,1-4.4,4.3c-1.1,3.3,0.3,8.8,1.2,11.3c0.9,2.6,2.4,8.1,7.8,11.8c5.3,3.7,12,1.2,13.4-0.3l-3.6-7.7C26.9,52.7,22.1,46.3,17.3,39.8z"></path><path fill="#444444" d="M36.4,43.6c0,0-1.5-3.3-5.3-5.6c-3.8-2.3-8.9-2-12.6,0.5c-3.7,2.5-2,10.5-1.8,11.4c0.2,1,1.5,6.9,4.3,10.4c1.9,2.3,4.4,4.6,7.7,5.2c0.4,0.1,3.5,0.7,5.5-0.4C38.4,63.2,39.9,54.3,36.4,43.6z"></path><path fill="#ADA8F0" d="M25.6,43c0.4,0,0.8,0.1,1.1,0.2c1.5,0.4,2.9,1.2,3.8,2.6c1.6,2.5,2.8,5.9,2.8,5.9l-0.1,6.1L31.5,59c0,0-3-0.1-4.8-2.9c-1.1-1.8-2.1-3.7-2.7-5.7c-0.3-1-0.6-2.1-0.8-3.1c-0.2-1-0.4-2.1,0-3.1C23.7,43.2,24.6,43,25.6,43"></path><path fill="#444444" d="M52.4,37.5c0,0-4.8-1.6-9.1,0c-4.3,1.6-7.2,5.8-8,7.8c-0.8,2-2.8,7.1-3.7,11.3c-0.8,4.2,0.5,7,3.3,9.5c6.1-8.5,12.3-17,18.4-25.5L52.4,37.5z"></path><path fill="#C0E7F9" d="M52.4,39.2c0,0-5.7,0.3-8,1.9c-2.3,1.6-4.6,3.2-6.6,8.4c-2,5.2-3.2,9-3.5,11.2c-0.3,2.2,0,6.1,2.4,7.8c2.4,1.7,7,2.7,11.6,0.6c4.6-2,7.4-5.6,9.2-9.8c1.8-4.3,4.1-12.3,3.2-15C59.9,41.6,57.3,39.6,52.4,39.2"></path><linearGradient id="NAV-SH-WH-3" gradientUnits="userSpaceOnUse" x1="18.7804" y1="20.5875" x2="55.1006" y2="20.5875"><stop offset="0" style="stop-color: #ADA8F0;"></stop><stop offset="1" style="stop-color: #90F5F2;"></stop></linearGradient><path fill="url(&quot;#NAV-SH-WH-3&quot;)" d="M19.1,16.6c-0.5,1.1-0.4,3,0.8,4.2c1.2,1.2,0.7,2.2,0.7,2.2c-2,5.5-1.8,11.6-1.8,11.6l3.3,0.1c0-1.9,0.2-3.7,0.5-5.6c0.3-1.7,0.6-3.3,1.1-4.9c0.3-1,0.9-2,1.9-2.6c0.4-0.2,1.1-0.8,1.7-1.3c0,0,0.1-0.1,0.1-0.1c0.1-0.1,0.1-0.1,0.2-0.2c-1.3,1.1-3.3,1.9-5.1,1.2c-2.2-0.9-2.4-2.8-1.7-4.3c0.7-1.5,4-7.9,10-8.5C36,8,40,12,41.7,14.5l0,0c0.3,0.4,0.4,0.7,0.6,1c1.1,2.2,2.7,3.6,4.7,4.8c2,1.2,2.1,1.8,2.9,4.3c0.9,2.4,1.6,10.2,1.6,10.2l3.6-0.1c0-5.6-1.3-9.9-1.9-11.9c-0.6-2-0.5-1.8,0.4-2.8c0.9-1,0.6-3.4,0.2-4.6c-0.5-1.1-3.2-5.4-7.5-7.8c-4.3-2.4-9.3-0.1-9.3-0.1c-2-0.8-3.7-1.1-5.4-1.1C23.2,6.4,19.5,15.6,19.1,16.6"></path><path fill="#89EAE1" d="M41.7,14.5c-2.6-2.2-5-2-7.4-1.3c-2.4,0.6-3.3,2.9-4.5,4.7c-0.7,1-1.6,1.8-2.3,2.4c0.1-0.1,0.1-0.1,0.2-0.2c-1.3,1.1-3.3,1.9-5.1,1.2c-2.2-0.9-2.4-2.8-1.7-4.3c0.7-1.5,4-7.9,10-8.5C36,8,40,12,41.7,14.5L41.7,14.5z"></path><path fill="#ADA8F0" d="M39.3,9c0,0,3.5-1.2,7.5,1.4c1.6,1,3,2.3,4,3.8c0.7,0.9,1.9,2.6,1.1,3.8c-0.6,0.8-1.9,0.7-2.8,0.5c-0.9-0.2-1.8-0.7-2.5-1.3c-1.7-1.4-2.9-3.2-4.1-4.9c-0.5-0.7-1.1-1.5-1.7-2.2C40.6,9.9,39.7,8.8,39.3,9"></path><polygon fill="#ADA8F0" points="51.5,34.8 51.5,36.1 55.1,36.1 55.1,34.6"></polygon><polygon fill="#89EAE1" points="18.8,34.6 18.8,35.7 22.1,35.9 22.2,34.8"></polygon><path fill="#444444" d="M52.4,36.1v3.1c0,0,0.2,0.8,0.9,0.8c0.7,0,1.1-0.3,1.1-0.9v-3L52.4,36.1z"></path><linearGradient id="NAV-SH-WH-4" gradientUnits="userSpaceOnUse" x1="46.3255" y1="41.1455" x2="49.7137" y2="41.1455"><stop offset="0" style="stop-color: #ADA8F0;"></stop><stop offset="1" style="stop-color: #90F5F2;"></stop></linearGradient><path fill="url(&quot;#NAV-SH-WH-4&quot;)" d="M46.3,40.2v0.9c0,0,1,1,1.8,1c0.8,0,1.3-0.6,1.5-1l-0.1-1L46.3,40.2z"></path><polygon fill="#444444" points="19.4,35.8 19.4,38.6 21.3,37.6 21.3,35.6"></polygon><path fill="#89EAE1" d="M49.6,40.2c0,0.5-0.7,0.9-1.6,0.9c-0.9,0-1.6-0.4-1.6-0.9c0-0.5,0.7-0.9,1.6-0.9C48.8,39.2,49.6,39.7,49.6,40.2"></path><g id="NAV-SH-WH-O" opacity="0"><rect width="100" height="100" x="0" y="0" fill="#fff"></rect><path fill="#FCEFBB" d="M17.3,39.8c0,0-3.3,1-4.4,4.3c-1.1,3.3,0.3,8.8,1.2,11.3c0.9,2.6,2.4,8.1,7.8,11.8c5.3,3.7,12,1.2,13.4-0.3l-3.6-7.7C26.9,52.7,22.1,46.3,17.3,39.8z"></path><path fill="#444" d="M36.4,43.6c0,0-1.5-3.3-5.3-5.6c-3.8-2.3-8.9-2-12.6,0.5c-3.7,2.5-2,10.5-1.8,11.4c0.2,1,1.5,6.9,4.3,10.4c1.9,2.3,4.4,4.6,7.7,5.2c0.4,0.1,3.5,0.7,5.5-0.4C38.4,63.2,39.9,54.3,36.4,43.6z"></path><path fill="#F7A39F" d="M25.6,43c0.4,0,0.8,0.1,1.1,0.2c1.5,0.4,2.9,1.2,3.8,2.6c1.6,2.5,2.8,5.9,2.8,5.9l-0.1,6.1L31.5,59c0,0-3-0.1-4.8-2.9c-1.1-1.8-2.1-3.7-2.7-5.7c-0.3-1-0.6-2.1-0.8-3.1c-0.2-1-0.4-2.1,0-3.1C23.7,43.2,24.6,43,25.6,43"></path><path fill="#444" d="M52.4,37.5c0,0-4.8-1.6-9.1,0c-4.3,1.6-7.2,5.8-8,7.8c-0.8,2-2.8,7.1-3.7,11.3c-0.8,4.2,0.5,7,3.3,9.5c6.1-8.5,12.3-17,18.4-25.5L52.4,37.5z"></path><path fill="#FCEFBB" d="M52.4,39.2c0,0-5.7,0.3-8,1.9c-2.3,1.6-4.6,3.2-6.6,8.4c-2,5.2-3.2,9-3.5,11.2c-0.3,2.2,0,6.1,2.4,7.8c2.4,1.7,7,2.7,11.6,0.6c4.6-2,7.4-5.6,9.2-9.8c1.8-4.3,4.1-12.3,3.2-15C59.9,41.6,57.3,39.6,52.4,39.2"></path><linearGradient id="NAV-SH-WH-5" gradientUnits="userSpaceOnUse" x1="18.7804" y1="20.5875" x2="55.1006" y2="20.5875"><stop offset="0" style="stop-color: #F7A39F;"></stop><stop offset="1" style="stop-color: #FFDF97;"></stop></linearGradient><path fill="url(#NAV-SH-WH-5)" d="M19.1,16.6c-0.5,1.1-0.4,3,0.8,4.2c1.2,1.2,0.7,2.2,0.7,2.2c-2,5.5-1.8,11.6-1.8,11.6l3.3,0.1c0-1.9,0.2-3.7,0.5-5.6c0.3-1.7,0.6-3.3,1.1-4.9c0.3-1,0.9-2,1.9-2.6c0.4-0.2,1.1-0.8,1.7-1.3c0,0,0.1-0.1,0.1-0.1c0.1-0.1,0.1-0.1,0.2-0.2c-1.3,1.1-3.3,1.9-5.1,1.2c-2.2-0.9-2.4-2.8-1.7-4.3c0.7-1.5,4-7.9,10-8.5C36,8,40,12,41.7,14.5l0,0c0.3,0.4,0.4,0.7,0.6,1c1.1,2.2,2.7,3.6,4.7,4.8c2,1.2,2.1,1.8,2.9,4.3c0.9,2.4,1.6,10.2,1.6,10.2l3.6-0.1c0-5.6-1.3-9.9-1.9-11.9c-0.6-2-0.5-1.8,0.4-2.8c0.9-1,0.6-3.4,0.2-4.6c-0.5-1.1-3.2-5.4-7.5-7.8c-4.3-2.4-9.3-0.1-9.3-0.1c-2-0.8-3.7-1.1-5.4-1.1C23.2,6.4,19.5,15.6,19.1,16.6"></path><path fill="#F7D0D0" d="M41.7,14.5c-2.6-2.2-5-2-7.4-1.3c-2.4,0.6-3.3,2.9-4.5,4.7c-0.7,1-1.6,1.8-2.3,2.4c0.1-0.1,0.1-0.1,0.2-0.2c-1.3,1.1-3.3,1.9-5.1,1.2c-2.2-0.9-2.4-2.8-1.7-4.3c0.7-1.5,4-7.9,10-8.5C36,8,40,12,41.7,14.5L41.7,14.5z"></path><path fill="#F7A39F" d="M39.3,9c0,0,3.5-1.2,7.5,1.4c1.6,1,3,2.3,4,3.8c0.7,0.9,1.9,2.6,1.1,3.8c-0.6,0.8-1.9,0.7-2.8,0.5c-0.9-0.2-1.8-0.7-2.5-1.3c-1.7-1.4-2.9-3.2-4.1-4.9c-0.5-0.7-1.1-1.5-1.7-2.2C40.6,9.9,39.7,8.8,39.3,9"></path><polygon fill="#F7D0D0" points="51.5,34.8 51.5,36.1 55.1,36.1 55.1,34.6"></polygon><polygon fill="#F7D0D0" points="18.8,34.6 18.8,35.7 22.1,35.9 22.2,34.8"></polygon><path fill="#444" d="M52.4,36.1v3.1c0,0,0.2,0.8,0.9,0.8c0.7,0,1.1-0.3,1.1-0.9v-3L52.4,36.1z"></path><linearGradient id="NAV-SH-WH-6" gradientUnits="userSpaceOnUse" x1="46.3255" y1="41.1455" x2="49.7137" y2="41.1455"><stop offset="0" style="stop-color: #F7A39F;"></stop><stop offset="1" style="stop-color: #FFDF97;"></stop></linearGradient><path fill="url(#NAV-SH-WH-6)" d="M46.3,40.2v0.9c0,0,1,1,1.8,1c0.8,0,1.3-0.6,1.5-1l-0.1-1L46.3,40.2z"></path><polygon fill="#444" points="19.4,35.8 19.4,38.6 21.3,37.6 21.3,35.6"></polygon><path fill="#FFDF97" d="M49.6,40.2c0,0.5-0.7,0.9-1.6,0.9c-0.9,0-1.6-0.4-1.6-0.9c0-0.5,0.7-0.9,1.6-0.9C48.8,39.2,49.6,39.7,49.6,40.2"></path></g></svg>