<svg xmlns="http://www.w3.org/2000/svg" xmlns:xlink="http://www.w3.org/1999/xlink" x="0px" y="0px" width="65" height="65" viewBox="0 0 75 75" enable-background="new 0 0 75 75" xml:space="preserve"><defs><linearGradient id="NAV-SH-CA-1" gradientUnits="userSpaceOnUse" x1="9.0545" y1="34.8245" x2="68.7048" y2="40.4168"><stop offset="0" style="stop-color: #ADA8F0;"></stop><stop offset="1" style="stop-color: #90F5F2;"></stop></linearGradient><linearGradient id="NAV-SH-CA-1" gradientUnits="userSpaceOnUse" x1="9.0545" y1="34.8245" x2="68.7048" y2="40.4168"><stop offset="0" style="stop-color: #ADA8F0;"></stop><stop offset="1" style="stop-color: #90F5F2;"></stop></linearGradient><linearGradient id="NAV-SH-CA-2" gradientUnits="userSpaceOnUse" x1="34.8868" y1="52.2547" x2="37.9782" y2="52.2547"><stop offset="0" style="stop-color: #DCFAEA;"></stop><stop offset="1" style="stop-color: #DFEEF7;"></stop></linearGradient><linearGradient id="NAV-SH-CA-3" gradientUnits="userSpaceOnUse" x1="17.2022" y1="41.1879" x2="20.2788" y2="41.1879"><stop offset="0" style="stop-color: #DCFAEA;"></stop><stop offset="1" style="stop-color: #DFEEF7;"></stop></linearGradient><linearGradient id="NAV-SH-CA-4" gradientUnits="userSpaceOnUse" x1="10.8031" y1="29.1522" x2="63.8278" y2="29.1522"><stop offset="0" style="stop-color: #DCFAEA;"></stop><stop offset="1" style="stop-color: #DFEEF7;"></stop></linearGradient></defs><linearGradient id="NAV-SH-CA-1" gradientUnits="userSpaceOnUse" x1="9.0545" y1="34.8245" x2="68.7048" y2="40.4168"><stop offset="0" style="stop-color: #ADA8F0;"></stop><stop offset="1" style="stop-color: #90F5F2;"></stop></linearGradient><path fill="url(&quot;#NAV-SH-CA-1&quot;)" d="M68.2,39.4c0,0,0-1.6,0-3.3c0-0.3,0-0.6,0-0.9c0.1-3.3-2.2-4.5-2.2-4.5L31.2,12c-1-0.5-2.1-0.7-3-0.7c-1.1,0-2.2,0.2-2.8,0.4c-0.4,0.1-0.8,0.3-1.2,0.6C21.7,14,10.6,21.6,8.7,22.5c-2.1,0.9-2.2,4.7-2.2,4.7v0.9v5.5c0.3,1.1,0.7,2.3,1,3.4v2.3c0,0-0.6,1.9,4,4.8c4.6,2.9,31.4,18.5,31.4,18.5s4.3,2.5,7.2,0c2.9-2.5,16-13.6,16-13.6s1.1-1.5,1.1-3.9C67.5,43.2,67.9,41.3,68.2,39.4z"></path><path fill="#444444" d="M70.4,37.6c-0.5-1.1-2.2-1.5-2.2-1.5c0,1.6,0,3.3,0,3.3L51.8,54.2C51,55,50,55.5,48.9,55.7c-1.5,0.3-3.6,0.4-5.6-0.5c-0.8-0.4-3.4-1.8-6.7-3.8c-6.4-3.7-12.7-7.5-19.1-11.3c-3.7-2.2-7.3-4.3-10.9-6.5v-5.5l0,0c0,0-2.4,1.8-2.2,4.5C4.6,35.4,7.5,37,7.5,37l11.3,7.6l17.7,11.2l0,0.1c0,0,0.3,0.2,0.8,0.4l0.2,0.1l0,0c1.1,0.6,3.2,1.8,5.8,3.2c3.9,2.2,7.4,0,7.4,0s16.9-14.6,18.6-16.4C71,41.4,70.8,38.7,70.4,37.6z"></path><path fill="#89EAE1" d="M38,47.4c-3.1,1.3-3.1,4.2-3.1,4.2v5.5l-7.5-4.4v-4.8c0-1.2,0.4-2.5,1.2-3.4l1.4-1.7L38,47.4z"></path><linearGradient id="NAV-SH-CA-2" gradientUnits="userSpaceOnUse" x1="34.8868" y1="52.2547" x2="37.9782" y2="52.2547"><stop offset="0" style="stop-color: #DCFAEA;"></stop><stop offset="1" style="stop-color: #DFEEF7;"></stop></linearGradient><path fill="url(&quot;#NAV-SH-CA-2&quot;)" d="M34.9,51.6v5.5l1.7-1.2c0-4.9,1.4-5.4,1.4-5.4v-3.1C34.9,48.7,34.9,51.6,34.9,51.6"></path><path fill="#89EAE1" d="M20.3,36.1c-3.1,1.3-3.1,4.2-3.1,4.2v6l-7.5-4.9v-4.8c0-1.2,0.4-2.5,1.2-3.4l1.4-1.7L20.3,36.1z"></path><linearGradient id="NAV-SH-CA-3" gradientUnits="userSpaceOnUse" x1="17.2022" y1="41.1879" x2="20.2788" y2="41.1879"><stop offset="0" style="stop-color: #DCFAEA;"></stop><stop offset="1" style="stop-color: #DFEEF7;"></stop></linearGradient><path fill="url(&quot;#NAV-SH-CA-3&quot;)" d="M17.2,40.3v6l1.7-1.7c0-4.9,1.4-5.4,1.4-5.4v-3.1C17.2,37.4,17.2,40.3,17.2,40.3"></path><linearGradient id="NAV-SH-CA-4" gradientUnits="userSpaceOnUse" x1="10.8031" y1="29.1522" x2="63.8278" y2="29.1522"><stop offset="0" style="stop-color: #DCFAEA;"></stop><stop offset="1" style="stop-color: #DFEEF7;"></stop></linearGradient><path fill="url(&quot;#NAV-SH-CA-4&quot;)" d="M26.7,12.4l-3,1.9v1.8l-7.4,4.7h-2.6l-2,1.3c-1.3,0.8-1.2,2.8,0.1,3.6L46,45.9c0.8,0.4,1.7,0.4,2.4-0.2l1.9-1.5l-0.1-2.1l8.6-6.9h2.7l1.7-1.4c1.2-1,1-2.8-0.3-3.5l-33.9-18c-0.3-0.2-0.6-0.2-1-0.2C27.4,12.1,27,12.2,26.7,12.4"></path><path fill="#89EAE1" d="M32.5,25.8l3.7-2.5c0.2-0.1,0.4-0.1,0.6,0l7.1,3.8c0.4,0.2,0.4,0.7,0.1,1l-3.6,2.8c-0.2,0.2-0.5,0.2-0.7,0.1l-7.2-4.1C32.2,26.6,32.2,26.1,32.5,25.8"></path><g id="NAV-SH-CS-O" opacity="0"><rect x="0" y="0" width="100" height="100" fill="#fff"></rect><linearGradient id="NAV-SH-CA-5" gradientUnits="userSpaceOnUse" x1="9.0545" y1="34.8245" x2="68.7048" y2="40.4168"><stop offset="0" style="stop-color: #F7A39F;"></stop><stop offset="1" style="stop-color: #FFDF97;"></stop></linearGradient><path fill="url(#NAV-SH-CA-5)" d="M68.2,39.4c0,0,0-1.6,0-3.3c0-0.3,0-0.6,0-0.9c0.1-3.3-2.2-4.5-2.2-4.5L31.2,12c-1-0.5-2.1-0.7-3-0.7c-1.1,0-2.2,0.2-2.8,0.4c-0.4,0.1-0.8,0.3-1.2,0.6C21.7,14,10.6,21.6,8.7,22.5c-2.1,0.9-2.2,4.7-2.2,4.7v0.9v5.5c0.3,1.1,0.7,2.3,1,3.4v2.3c0,0-0.6,1.9,4,4.8c4.6,2.9,31.4,18.5,31.4,18.5s4.3,2.5,7.2,0c2.9-2.5,16-13.6,16-13.6s1.1-1.5,1.1-3.9C67.5,43.2,67.9,41.3,68.2,39.4z"></path><path fill="#444" d="M70.4,37.6c-0.5-1.1-2.2-1.5-2.2-1.5c0,1.6,0,3.3,0,3.3L51.8,54.2C51,55,50,55.5,48.9,55.7c-1.5,0.3-3.6,0.4-5.6-0.5c-0.8-0.4-3.4-1.8-6.7-3.8c-6.4-3.7-12.7-7.5-19.1-11.3c-3.7-2.2-7.3-4.3-10.9-6.5v-5.5l0,0c0,0-2.4,1.8-2.2,4.5C4.6,35.4,7.5,37,7.5,37l11.3,7.6l17.7,11.2l0,0.1c0,0,0.3,0.2,0.8,0.4l0.2,0.1l0,0c1.1,0.6,3.2,1.8,5.8,3.2c3.9,2.2,7.4,0,7.4,0s16.9-14.6,18.6-16.4C71,41.4,70.8,38.7,70.4,37.6z"></path><path fill="#FFDF97" d="M38,47.4c-3.1,1.3-3.1,4.2-3.1,4.2v5.5l-7.5-4.4v-4.8c0-1.2,0.4-2.5,1.2-3.4l1.4-1.7L38,47.4z"></path><path fill="#FCEFBB" d="M34.9,51.6v5.5l1.7-1.2c0-4.9,1.4-5.4,1.4-5.4v-3.1C34.9,48.7,34.9,51.6,34.9,51.6"></path><path fill="#FFDF97" d="M20.3,36.1c-3.1,1.3-3.1,4.2-3.1,4.2v6l-7.5-4.9v-4.8c0-1.2,0.4-2.5,1.2-3.4l1.4-1.7L20.3,36.1z"></path><path fill="#FCEFBB" d="M17.2,40.3v6l1.7-1.7c0-4.9,1.4-5.4,1.4-5.4v-3.1C17.2,37.4,17.2,40.3,17.2,40.3"></path><path fill="#FCEFBB" d="M26.7,12.4l-3,1.9v1.8l-7.4,4.7h-2.6l-2,1.3c-1.3,0.8-1.2,2.8,0.1,3.6L46,45.9c0.8,0.4,1.7,0.4,2.4-0.2l1.9-1.5l-0.1-2.1l8.6-6.9h2.7l1.7-1.4c1.2-1,1-2.8-0.3-3.5l-33.9-18c-0.3-0.2-0.6-0.2-1-0.2C27.4,12.1,27,12.2,26.7,12.4"></path><path fill="#FFDF97" d="M32.5,25.8l3.7-2.5c0.2-0.1,0.4-0.1,0.6,0l7.1,3.8c0.4,0.2,0.4,0.7,0.1,1l-3.6,2.8c-0.2,0.2-0.5,0.2-0.7,0.1l-7.2-4.1C32.2,26.6,32.2,26.1,32.5,25.8"></path></g></svg>