<svg xmlns="http://www.w3.org/2000/svg" xmlns:xlink="http://www.w3.org/1999/xlink" x="0px" y="0px" width="65" height="65" viewBox="0 0 75 75" enable-background="new 0 0 75 75" xml:space="preserve"><defs><linearGradient id="NAV-SH-SP-4" gradientUnits="userSpaceOnUse" x1="41.9607" y1="26.2993" x2="59.8068" y2="26.2993"><stop offset="0" style="stop-color: #DCFAEA;"></stop><stop offset="1" style="stop-color: #DFEEF7;"></stop></linearGradient><linearGradient id="NAV-SH-SP-4" gradientUnits="userSpaceOnUse" x1="41.9607" y1="26.2993" x2="59.8068" y2="26.2993"><stop offset="0" style="stop-color: #DCFAEA;"></stop><stop offset="1" style="stop-color: #DFEEF7;"></stop></linearGradient><linearGradient id="NAV-SH-SP-5" gradientUnits="userSpaceOnUse" x1="41.9607" y1="26.2996" x2="65.6242" y2="26.2996"><stop offset="0" style="stop-color: #DCFAEA;"></stop><stop offset="1" style="stop-color: #DFEEF7;"></stop></linearGradient><linearGradient id="NAV-SH-SP-6" gradientUnits="userSpaceOnUse" x1="62.6135" y1="41.2535" x2="62.7734" y2="15.349"><stop offset="0" style="stop-color: #90F5F2;"></stop><stop offset="1" style="stop-color: #ADA8F0;"></stop></linearGradient><linearGradient id="NAV-SH-SP-7" gradientUnits="userSpaceOnUse" x1="15.1932" y1="26.2993" x2="33.04" y2="26.2993"><stop offset="0" style="stop-color: #DCFAEA;"></stop><stop offset="1" style="stop-color: #DFEEF7;"></stop></linearGradient><linearGradient id="NAV-SH-SP-8" gradientUnits="userSpaceOnUse" x1="12.3287" y1="13.1934" x2="12.2487" y2="39.8975"><stop offset="0" style="stop-color: #ACABF0;"></stop><stop offset="0.2513" style="stop-color: #ADA8F0;"></stop><stop offset="1" style="stop-color: #90F5F2;"></stop></linearGradient></defs><path fill="#80DDED" d="M63.9,63.4c0,1.5-4.8,2.7-10.8,2.7c-6,0-10.8-1.2-10.8-2.7c0-1.5,4.8-2.7,10.8-2.7C59.1,60.6,63.9,61.8,63.9,63.4"></path><rect x="42.3" y="60.6" fill="#80DDED" width="21.6" height="2.7"></rect><path fill="#DFEEF7" d="M63.9,60.6c0,1.5-4.8,2.7-10.8,2.7c-6,0-10.8-1.2-10.8-2.7c0-1.5,4.8-2.7,10.8-2.7C59.1,57.9,63.9,59.1,63.9,60.6"></path><path fill="#444444" d="M51.2,17.8h3.9v42.5h0c0,0,0,0,0,0c0,0.4-0.9,0.6-1.9,0.6c-1.1,0-1.9-0.3-1.9-0.6c0,0,0,0,0,0h0V17.8z"></path><linearGradient id="NAV-SH-SP-4" gradientUnits="userSpaceOnUse" x1="41.9607" y1="26.2993" x2="59.8068" y2="26.2993"><stop offset="0" style="stop-color: #DCFAEA;"></stop><stop offset="1" style="stop-color: #DFEEF7;"></stop></linearGradient><path fill="url(&quot;#NAV-SH-SP-4&quot;)" d="M59.2,8.9l-15.1,1.6C42.9,10.7,42,11.7,42,13v27.8c0,1.3,1,2.4,2.4,2.4l15.2,0.5c0.1,0,0.2,0,0.3,0V8.9c-0.1,0-0.2,0-0.3,0C59.4,8.9,59.3,8.9,59.2,8.9"></path><linearGradient id="NAV-SH-SP-5" gradientUnits="userSpaceOnUse" x1="41.9607" y1="26.2996" x2="65.6242" y2="26.2996"><stop offset="0" style="stop-color: #DCFAEA;"></stop><stop offset="1" style="stop-color: #DFEEF7;"></stop></linearGradient><path fill="url(&quot;#NAV-SH-SP-5&quot;)" d="M59.2,8.9l-15.1,1.6C42.9,10.7,42,11.7,42,13v27.8c0,1.3,1,2.4,2.4,2.4l15.2,0.5c0.2,0,0.4,0,0.5,0l3.6-0.7c1.1-0.2,2-1.2,2-2.4V12.7c0-1-0.6-1.9-1.6-2.3l-3.7-1.4c-0.3-0.1-0.6-0.2-0.9-0.2C59.4,8.9,59.3,8.9,59.2,8.9"></path><path fill="#444444" d="M45.2,33.9c0-3.2,2.4-5.9,5.5-6c3.1-0.1,5.7,2.5,5.7,5.9c0,3.3-2.6,6-5.7,6C47.6,39.7,45.2,37.1,45.2,33.9"></path><path fill="#606060" d="M55.1,13.6L55.1,13.6c-0.3-0.2-0.5-0.3-0.8-0.2l-7.2,0.7c-0.6,0-1.1,0.6-1.1,1.2v7.9c0,0.3,0.1,0.6,0.3,0.8v0c0.2,0.3,0.6,0.4,0.9,0.4l7.2-0.3c0.6,0,1.1-0.6,1.1-1.2v-8.2C55.6,14.2,55.4,13.8,55.1,13.6"></path><path fill="#444444" d="M52.9,16.2L52.9,16.2c-0.1-0.1-0.3-0.1-0.4-0.1l-3.6,0.3c-0.3,0-0.6,0.3-0.6,0.6v4c0,0.1,0.1,0.3,0.2,0.4v0c0.1,0.1,0.3,0.2,0.5,0.2l3.6-0.2c0.3,0,0.6-0.3,0.6-0.6v-4.1C53.2,16.5,53.1,16.3,52.9,16.2"></path><linearGradient id="NAV-SH-SP-6" gradientUnits="userSpaceOnUse" x1="62.6135" y1="41.2535" x2="62.7734" y2="15.349"><stop offset="0" style="stop-color: #90F5F2;"></stop><stop offset="1" style="stop-color: #ADA8F0;"></stop></linearGradient><path fill="url(&quot;#NAV-SH-SP-6&quot;)" d="M59.8,43.7c0.1,0,0.2,0,0.2,0l3.6-0.7c1.1-0.2,1.9-1.2,1.9-2.4V12.7c0-1-0.6-1.9-1.6-2.3l-3.7-1.4C60.2,9,60,9,59.8,8.9V43.7z"></path><path fill="#89EAE1" d="M48.3,33.9c0-1.4,1.1-2.6,2.4-2.6c1.4,0,2.5,1.1,2.5,2.6c0,1.5-1.2,2.7-2.5,2.6C49.4,36.4,48.3,35.3,48.3,33.9"></path><path fill="#80DDED" d="M11.1,63.4c0,1.5,4.8,2.7,10.8,2.7c6,0,10.8-1.2,10.8-2.7c0-1.5-4.8-2.7-10.8-2.7C15.9,60.6,11.1,61.8,11.1,63.4"></path><rect x="11.1" y="60.6" fill="#80DDED" width="21.6" height="2.7"></rect><path fill="#DFEEF7" d="M11.1,60.6c0,1.5,4.8,2.7,10.8,2.7c6,0,10.8-1.2,10.8-2.7c0-1.5-4.8-2.7-10.8-2.7C15.9,57.9,11.1,59.1,11.1,60.6"></path><path fill="#444444" d="M23.8,17.8h-3.9v42.5h0c0,0,0,0,0,0c0,0.4,0.9,0.6,1.9,0.6c1.1,0,1.9-0.3,1.9-0.6c0,0,0,0,0,0h0V17.8z"></path><linearGradient id="NAV-SH-SP-7" gradientUnits="userSpaceOnUse" x1="15.1932" y1="26.2993" x2="33.04" y2="26.2993"><stop offset="0" style="stop-color: #DCFAEA;"></stop><stop offset="1" style="stop-color: #DFEEF7;"></stop></linearGradient><path fill="url(&quot;#NAV-SH-SP-7&quot;)" d="M15.2,8.9v34.7c0.1,0,0.2,0,0.3,0l15.2-0.5c1.3,0,2.4-1.1,2.4-2.4V13c0-1.3-0.9-2.3-2.2-2.4L15.8,8.9c-0.1,0-0.2,0-0.3,0C15.4,8.9,15.3,8.9,15.2,8.9"></path><path fill="#444444" d="M29.8,33.9c0-3.2-2.4-5.9-5.5-6c-3.1-0.1-5.7,2.5-5.7,5.9c0,3.3,2.6,6,5.7,6C27.4,39.7,29.8,37.1,29.8,33.9"></path><path fill="#606060" d="M19.9,13.6L19.9,13.6c0.3-0.2,0.5-0.3,0.8-0.2l7.2,0.7c0.6,0,1.1,0.6,1.1,1.2v7.9c0,0.3-0.1,0.6-0.3,0.8v0c-0.2,0.3-0.6,0.4-0.9,0.4L20.6,24c-0.6,0-1.1-0.6-1.1-1.2v-8.2C19.4,14.2,19.6,13.8,19.9,13.6"></path><path fill="#444444" d="M22.1,16.2L22.1,16.2c0.1-0.1,0.3-0.1,0.4-0.1l3.6,0.3c0.3,0,0.6,0.3,0.6,0.6v4c0,0.1-0.1,0.3-0.2,0.4v0c-0.1,0.1-0.3,0.2-0.5,0.2l-3.6-0.2c-0.3,0-0.6-0.3-0.6-0.6v-4.1C21.8,16.5,21.9,16.3,22.1,16.2"></path><linearGradient id="NAV-SH-SP-8" gradientUnits="userSpaceOnUse" x1="12.3287" y1="13.1934" x2="12.2487" y2="39.8975"><stop offset="0" style="stop-color: #ACABF0;"></stop><stop offset="0.2513" style="stop-color: #ADA8F0;"></stop><stop offset="1" style="stop-color: #90F5F2;"></stop></linearGradient><path fill="url(&quot;#NAV-SH-SP-8&quot;)" d="M15.2,9c-1.3,0.5-2.9,1-4.1,1.5c-1,0.4-1.7,1.3-1.7,2.3v27.8c0,1.2,0.9,2.2,2.1,2.4c1.2,0.2,2.5,0.5,3.8,0.7C15.1,32.1,15.3,20.5,15.2,9z"></path><path fill="#89EAE1" d="M26.7,33.9c0-1.4-1.1-2.6-2.4-2.6c-1.4,0-2.5,1.1-2.5,2.6c0,1.5,1.2,2.7,2.5,2.6C25.6,36.4,26.7,35.3,26.7,33.9"></path><g id="NAV-SH-SP-O" opacity="0"><rect width="100" height="100" fill="#fff" x="0" y="0"></rect><path fill="#F7A39F" d="M63.9,63.4v-2.7H42.3v2.7c0,1.5,4.8,2.7,10.8,2.7C59.1,66.1,63.9,64.9,63.9,63.4C63.9,63.4,63.9,63.4,63.9,63.4z"></path><path fill="#F7A39F" d="M11.1,60.6v2.7c0,0,0,0,0,0c0,1.5,4.8,2.7,10.8,2.7s10.8-1.2,10.8-2.7h0v-2.7H11.1z"></path><path fill="#FCEFBB" d="M63.9,60.6c0,1.5-4.8,2.7-10.8,2.7c-6,0-10.8-1.2-10.8-2.7c0-1.5,4.8-2.7,10.8-2.7C59.1,57.9,63.9,59.1,63.9,60.6"></path><path fill="#444" d="M51.2,17.8h3.9v42.5h0c0,0,0,0,0,0c0,0.4-0.9,0.6-1.9,0.6c-1.1,0-1.9-0.3-1.9-0.6c0,0,0,0,0,0h0V17.8z"></path><linearGradient id="NAV-SH-SP-9" gradientUnits="userSpaceOnUse" x1="41.9607" y1="26.2993" x2="59.8068" y2="26.2993"><stop offset="0" style="stop-color: #DCFAEA;"></stop><stop offset="1" style="stop-color: #DFEEF7;"></stop></linearGradient><path fill="url(#NAV-SH-SP-9)" d="M59.2,8.9l-15.1,1.6C42.9,10.7,42,11.7,42,13v27.8c0,1.3,1,2.4,2.4,2.4l15.2,0.5c0.1,0,0.2,0,0.3,0V8.9c-0.1,0-0.2,0-0.3,0C59.4,8.9,59.3,8.9,59.2,8.9"></path><path fill="#FCEFBB" d="M59.2,8.9l-15.1,1.6C42.9,10.7,42,11.7,42,13v27.8c0,1.3,1,2.4,2.4,2.4l15.2,0.5c0.2,0,0.4,0,0.5,0l3.6-0.7c1.1-0.2,2-1.2,2-2.4V12.7c0-1-0.6-1.9-1.6-2.3l-3.7-1.4c-0.3-0.1-0.6-0.2-0.9-0.2C59.4,8.9,59.3,8.9,59.2,8.9"></path><path fill="#444" d="M45.2,33.9c0-3.2,2.4-5.9,5.5-6c3.1-0.1,5.7,2.5,5.7,5.9c0,3.3-2.6,6-5.7,6C47.6,39.7,45.2,37.1,45.2,33.9"></path><path fill="#606060" d="M55.1,13.6L55.1,13.6c-0.3-0.2-0.5-0.3-0.8-0.2l-7.2,0.7c-0.6,0-1.1,0.6-1.1,1.2v7.9c0,0.3,0.1,0.6,0.3,0.8v0c0.2,0.3,0.6,0.4,0.9,0.4l7.2-0.3c0.6,0,1.1-0.6,1.1-1.2v-8.2C55.6,14.2,55.4,13.8,55.1,13.6"></path><path fill="#444" d="M52.9,16.2L52.9,16.2c-0.1-0.1-0.3-0.1-0.4-0.1l-3.6,0.3c-0.3,0-0.6,0.3-0.6,0.6v4c0,0.1,0.1,0.3,0.2,0.4v0c0.1,0.1,0.3,0.2,0.5,0.2l3.6-0.2c0.3,0,0.6-0.3,0.6-0.6v-4.1C53.2,16.5,53.1,16.3,52.9,16.2"></path><linearGradient id="NAV-SH-SP-10" gradientUnits="userSpaceOnUse" x1="62.6135" y1="41.2535" x2="62.7734" y2="15.349"><stop offset="0" style="stop-color: #FFDF97;"></stop><stop offset="1" style="stop-color: #F7A39F;"></stop></linearGradient><path fill="url(#NAV-SH-SP-10)" d="M59.8,43.7c0.1,0,0.2,0,0.2,0l3.6-0.7c1.1-0.2,1.9-1.2,1.9-2.4V12.7c0-1-0.6-1.9-1.6-2.3l-3.7-1.4C60.2,9,60,9,59.8,8.9V43.7z"></path><path fill="#FFDF97" d="M48.3,33.9c0-1.4,1.1-2.6,2.4-2.6c1.4,0,2.5,1.1,2.5,2.6c0,1.5-1.2,2.7-2.5,2.6C49.4,36.4,48.3,35.3,48.3,33.9"></path><path fill="#FCEFBB" d="M11.1,60.6c0,1.5,4.8,2.7,10.8,2.7c6,0,10.8-1.2,10.8-2.7c0-1.5-4.8-2.7-10.8-2.7C15.9,57.9,11.1,59.1,11.1,60.6"></path><path fill="#444" d="M23.8,17.8h-3.9v42.5h0c0,0,0,0,0,0c0,0.4,0.9,0.6,1.9,0.6c1.1,0,1.9-0.3,1.9-0.6c0,0,0,0,0,0h0V17.8z"></path><path fill="#FCEFBB" d="M15.2,8.9v34.7c0.1,0,0.2,0,0.3,0l15.2-0.5c1.3,0,2.4-1.1,2.4-2.4V13c0-1.3-0.9-2.3-2.2-2.4L15.8,8.9c-0.1,0-0.2,0-0.3,0C15.4,8.9,15.3,8.9,15.2,8.9"></path><path fill="#444" d="M29.8,33.9c0-3.2-2.4-5.9-5.5-6c-3.1-0.1-5.7,2.5-5.7,5.9c0,3.3,2.6,6,5.7,6C27.4,39.7,29.8,37.1,29.8,33.9"></path><path fill="#606060" d="M19.9,13.6L19.9,13.6c0.3-0.2,0.5-0.3,0.8-0.2l7.2,0.7c0.6,0,1.1,0.6,1.1,1.2v7.9c0,0.3-0.1,0.6-0.3,0.8v0c-0.2,0.3-0.6,0.4-0.9,0.4L20.6,24c-0.6,0-1.1-0.6-1.1-1.2v-8.2C19.4,14.2,19.6,13.8,19.9,13.6"></path><path fill="#444" d="M22.1,16.2L22.1,16.2c0.1-0.1,0.3-0.1,0.4-0.1l3.6,0.3c0.3,0,0.6,0.3,0.6,0.6v4c0,0.1-0.1,0.3-0.2,0.4v0c-0.1,0.1-0.3,0.2-0.5,0.2l-3.6-0.2c-0.3,0-0.6-0.3-0.6-0.6v-4.1C21.8,16.5,21.9,16.3,22.1,16.2"></path><linearGradient id="NAV-SH-SP-11" gradientUnits="userSpaceOnUse" x1="12.3287" y1="13.1934" x2="12.2487" y2="39.8975"><stop offset="0" style="stop-color: #F7A39F;"></stop><stop offset="1" style="stop-color: #FFDF97;"></stop></linearGradient><path fill="url(#NAV-SH-SP-11)" d="M15.2,9c-1.3,0.5-2.9,1-4.1,1.5c-1,0.4-1.7,1.3-1.7,2.3v27.8c0,1.2,0.9,2.2,2.1,2.4c1.2,0.2,2.5,0.5,3.8,0.7C15.1,32.1,15.3,20.5,15.2,9z"></path><path fill="#FFDF97" d="M26.7,33.9c0-1.4-1.1-2.6-2.4-2.6c-1.4,0-2.5,1.1-2.5,2.6c0,1.5,1.2,2.7,2.5,2.6C25.6,36.4,26.7,35.3,26.7,33.9"></path></g></svg>