<svg xmlns="http://www.w3.org/2000/svg" xmlns:xlink="http://www.w3.org/1999/xlink" x="0px" y="0px" width="65" height="65" viewBox="0 0 75 75" enable-background="new 0 0 75 75" xml:space="preserve"><defs><linearGradient id="NAV-SH-WFH-1" gradientUnits="userSpaceOnUse" x1="66.4335" y1="28.6919" x2="68.8596" y2="28.6919"><stop offset="0" style="stop-color: #ADA8F0;"></stop><stop offset="1" style="stop-color: #90F5F2;"></stop></linearGradient><linearGradient id="NAV-SH-WFH-1" gradientUnits="userSpaceOnUse" x1="66.4335" y1="28.6919" x2="68.8596" y2="28.6919"><stop offset="0" style="stop-color: #ADA8F0;"></stop><stop offset="1" style="stop-color: #90F5F2;"></stop></linearGradient><linearGradient id="NAV-SH-WFH-2" gradientUnits="userSpaceOnUse" x1="49.396" y1="55.2257" x2="68.4893" y2="55.2257"><stop offset="0" style="stop-color: #ADA8F0;"></stop><stop offset="1" style="stop-color: #90F5F2;"></stop></linearGradient><linearGradient id="NAV-SH-WFH-3" gradientUnits="userSpaceOnUse" x1="55.4642" y1="52.2939" x2="62.7887" y2="52.2939"><stop offset="0" style="stop-color: #ADA8F0;"></stop><stop offset="1" style="stop-color: #90F5F2;"></stop></linearGradient><linearGradient id="NAV-SH-WFH-4" gradientUnits="userSpaceOnUse" x1="5.0658" y1="45.5764" x2="52.4613" y2="45.5764"><stop offset="0" style="stop-color: #ADA8F0;"></stop><stop offset="1" style="stop-color: #90F5F2;"></stop></linearGradient><linearGradient id="NAV-SH-WFH-5" gradientUnits="userSpaceOnUse" x1="41.3947" y1="14.7478" x2="61.9825" y2="14.7478"><stop offset="0" style="stop-color: #ADA8F0;"></stop><stop offset="1" style="stop-color: #90F5F2;"></stop></linearGradient><linearGradient id="NAV-SH-WFH-6" gradientUnits="userSpaceOnUse" x1="41.3947" y1="21.143" x2="52.8604" y2="21.143"><stop offset="0" style="stop-color: #DCFAEA;"></stop><stop offset="1" style="stop-color: #DFEEF7;"></stop></linearGradient><linearGradient id="NAV-SH-WFH-7" gradientUnits="userSpaceOnUse" x1="59.1955" y1="15.8673" x2="61.6162" y2="15.8673"><stop offset="0" style="stop-color: #ADA8F0;"></stop><stop offset="1" style="stop-color: #90F5F2;"></stop></linearGradient><linearGradient id="NAV-SH-WFH-8" gradientUnits="userSpaceOnUse" x1="60.7932" y1="15.9374" x2="62.179" y2="15.9374"><stop offset="0" style="stop-color: #ADA8F0;"></stop><stop offset="1" style="stop-color: #90F5F2;"></stop></linearGradient><linearGradient id="NAV-SH-WFH-9" gradientUnits="userSpaceOnUse" x1="68.0305" y1="28.7683" x2="69.4163" y2="28.7683"><stop offset="0" style="stop-color: #ADA8F0;"></stop><stop offset="1" style="stop-color: #90F5F2;"></stop></linearGradient></defs><linearGradient id="NAV-SH-WFH-1" gradientUnits="userSpaceOnUse" x1="66.4335" y1="28.6919" x2="68.8596" y2="28.6919"><stop offset="0" style="stop-color: #ADA8F0;"></stop><stop offset="1" style="stop-color: #90F5F2;"></stop></linearGradient><path fill="url(&quot;#NAV-SH-WFH-1&quot;)" d="M67.8,27.4c-0.1,0-0.1,0-0.2,0c-0.7,0-1.2,0.6-1.2,1.3c0,0.6,0.4,1.1,0.9,1.2v0l0.2,0h0.1h0l1.1,0.1l-0.2-0.4l-0.1-0.1c0.2-0.3,0.4-0.6,0.4-0.9c0-0.4-0.2-0.8-0.4-1l0.4-0.2L67.8,27.4L67.8,27.4z"></path><polygon fill="#444444" points="62.2,16.4 69.3,28.3 68,28.8 60.8,15.9"></polygon><linearGradient id="NAV-SH-WFH-2" gradientUnits="userSpaceOnUse" x1="49.396" y1="55.2257" x2="68.4893" y2="55.2257"><stop offset="0" style="stop-color: #ADA8F0;"></stop><stop offset="1" style="stop-color: #90F5F2;"></stop></linearGradient><path fill="url(&quot;#NAV-SH-WFH-2&quot;)" d="M49.4,55.1c0,0,1.9,1.9,10,1.9c8.1,0,9.1-1.3,9.1-1.3v-2l-16.7-0.3L49.4,55.1z"></path><path fill="#DFEEF7" d="M51.7,54.7c0,0,3.4,0.8,7.4,0.8c4,0,8.4-0.9,9.2-1.4c0.9-0.6-2-1.7-6.1-1.5c-4.1,0.2-8-0.5-11.1,0.9L51.7,54.7z"></path><linearGradient id="NAV-SH-WFH-3" gradientUnits="userSpaceOnUse" x1="55.4642" y1="52.2939" x2="62.7887" y2="52.2939"><stop offset="0" style="stop-color: #ADA8F0;"></stop><stop offset="1" style="stop-color: #90F5F2;"></stop></linearGradient><path fill="url(&quot;#NAV-SH-WFH-3&quot;)" d="M59.9,50.5c-1.5,0-1.4,0-1.4,0s-1.5,0-2.1,1c-0.6,0.9-0.9,1.7-0.9,1.7s0.9,0.9,3.9,0.9c3,0,3.4-0.9,3.4-0.9L62,51.6C62,51.6,61.4,50.5,59.9,50.5C59.9,50.5,59.9,50.5,59.9,50.5"></path><path fill="#444444" d="M6.6,61.9v1.5l6,6.9c0.6,0.6,1.4,0.9,2.2,0.9l44.9-2.4l2.4-1l0-1l-49.7-2.1L6.6,61.9z"></path><linearGradient id="NAV-SH-WFH-4" gradientUnits="userSpaceOnUse" x1="5.0658" y1="45.5764" x2="52.4613" y2="45.5764"><stop offset="0" style="stop-color: #ADA8F0;"></stop><stop offset="1" style="stop-color: #90F5F2;"></stop></linearGradient><path fill="url(&quot;#NAV-SH-WFH-4&quot;)" d="M48,29.2L7,30.8c-1.1,0-2,1-1.9,2.1l1.5,29l45.8-2.4L50,31.1C50,30,49.1,29.2,48,29.2C48,29.2,48,29.2,48,29.2"></path><polygon fill="#444444" points="6.3,32.6 7.6,58.4 51.2,56.2 49.1,31.3"></polygon><path fill="#DFEEF7" d="M6.6,61.9l6.5,7.1c0.6,0.6,1.4,0.9,2.2,0.9l46.6-2.6c0.3,0,0.5-0.5,0.2-0.7l-9.6-7.1L6.6,61.9z"></path><linearGradient id="NAV-SH-WFH-5" gradientUnits="userSpaceOnUse" x1="41.3947" y1="14.7478" x2="61.9825" y2="14.7478"><stop offset="0" style="stop-color: #ADA8F0;"></stop><stop offset="1" style="stop-color: #90F5F2;"></stop></linearGradient><path fill="url(&quot;#NAV-SH-WFH-5&quot;)" d="M52.3,8.9c0,0-1.7,0-3.2,1.2c-1.6,1.2-7.6,6.5-7.6,6.5c6.6,7.1,10.9,9,11.4,9.2l0.1,0c0,0,4-7.8,4.6-9.2c0.5-1.4,0.6-3,0.6-3l4-6c-2.1-2.7-5-3.8-5-3.8L52.3,8.9z"></path><linearGradient id="NAV-SH-WFH-6" gradientUnits="userSpaceOnUse" x1="41.3947" y1="21.143" x2="52.8604" y2="21.143"><stop offset="0" style="stop-color: #DCFAEA;"></stop><stop offset="1" style="stop-color: #DFEEF7;"></stop></linearGradient><path fill="url(&quot;#NAV-SH-WFH-6&quot;)" d="M52.8,25.7L52.8,25.7c-5.6-7.1-11.4-9.2-11.4-9.2C48,23.6,52.3,25.5,52.8,25.7"></path><polygon fill="#444444" points="61.3,16.3 57.5,12.4 58.4,11.3 62.2,15.2"></polygon><linearGradient id="NAV-SH-WFH-7" gradientUnits="userSpaceOnUse" x1="59.1955" y1="15.8673" x2="61.6162" y2="15.8673"><stop offset="0" style="stop-color: #ADA8F0;"></stop><stop offset="1" style="stop-color: #90F5F2;"></stop></linearGradient><path fill="url(&quot;#NAV-SH-WFH-7&quot;)" d="M59.2,15.8c0,0.6,0.4,1.1,0.9,1.2l0,0l0.3,0c0,0,0,0,0,0c0,0,0,0,0,0l1.1,0.1l-0.2-0.5c0.2-0.2,0.4-0.6,0.4-0.9c0-0.7-0.5-1.3-1.2-1.3C59.7,14.5,59.2,15.1,59.2,15.8"></path><path fill="#DFEEF7" d="M62.7,15.9c0,0.7-0.5,1.3-1.2,1.3c-0.7,0-1.2-0.6-1.2-1.3c0-0.7,0.5-1.3,1.2-1.3C62.2,14.7,62.7,15.2,62.7,15.9"></path><linearGradient id="NAV-SH-WFH-8" gradientUnits="userSpaceOnUse" x1="60.7932" y1="15.9374" x2="62.179" y2="15.9374"><stop offset="0" style="stop-color: #ADA8F0;"></stop><stop offset="1" style="stop-color: #90F5F2;"></stop></linearGradient><path fill="url(&quot;#NAV-SH-WFH-8&quot;)" d="M60.8,15.9c0,0.4,0.3,0.7,0.7,0.7c0.4,0,0.7-0.3,0.7-0.7c0-0.4-0.3-0.7-0.7-0.7C61.1,15.2,60.8,15.5,60.8,15.9"></path><path fill="#80DDED" d="M61.9,15.9c0,0.2-0.2,0.4-0.4,0.4c-0.2,0-0.4-0.2-0.4-0.4c0-0.2,0.2-0.4,0.4-0.4C61.7,15.5,61.9,15.7,61.9,15.9"></path><path fill="#444444" d="M60.5,46.3c-0.9,1.8-0.6,4.3-0.6,4.3c-0.7,0.4-1.4,0-1.4,0c0-2.4,0.4-4.1,0.4-4.1l8.7-16.5h0.1h0l1.1,0.1l-0.2-0.4l0.6,0.1C69.1,29.7,61.4,44.5,60.5,46.3"></path><path fill="#DFEEF7" d="M69.9,28.8c0,0.7-0.5,1.3-1.2,1.3c-0.7,0-1.2-0.6-1.2-1.3c0-0.7,0.5-1.3,1.2-1.3C69.4,27.5,69.9,28.1,69.9,28.8"></path><linearGradient id="NAV-SH-WFH-9" gradientUnits="userSpaceOnUse" x1="68.0305" y1="28.7683" x2="69.4163" y2="28.7683"><stop offset="0" style="stop-color: #ADA8F0;"></stop><stop offset="1" style="stop-color: #90F5F2;"></stop></linearGradient><path fill="url(&quot;#NAV-SH-WFH-9&quot;)" d="M68,28.8c0,0.4,0.3,0.7,0.7,0.7c0.4,0,0.7-0.3,0.7-0.7c0-0.4-0.3-0.7-0.7-0.7C68.3,28,68,28.4,68,28.8"></path><path fill="#80DDED" d="M69.1,28.8c0,0.2-0.2,0.4-0.4,0.4c-0.2,0-0.4-0.2-0.4-0.4c0-0.2,0.2-0.4,0.4-0.4C68.9,28.3,69.1,28.5,69.1,28.8"></path><polygon fill="#89EAE1" points="11.3,63.1 51.4,61 57,65.5 15.7,67.6"></polygon><g id="NAV-SH-WFH-O" opacity="0"><rect x="0" y="0" width="100" height="100" fill="#fff"></rect><polygon fill="#444" points="61.3,16.3 57.5,12.4 58.4,11.3 62.2,15.2"></polygon><linearGradient id="NAV-SH-WFH-10" gradientUnits="userSpaceOnUse" x1="60.7932" y1="15.9374" x2="62.179" y2="15.9374"><stop offset="0" style="stop-color: #F7A39F;"></stop><stop offset="1" style="stop-color: #FFDF97;"></stop></linearGradient><path fill="url(#NAV-SH-WFH-10)" d="M60.8,15.9c0,0.4,0.3,0.7,0.7,0.7c0.4,0,0.7-0.3,0.7-0.7c0-0.4-0.3-0.7-0.7-0.7C61.1,15.2,60.8,15.5,60.8,15.9"></path><path fill="#FCEFBB" d="M61.9,15.9c0,0.2-0.2,0.4-0.4,0.4c-0.2,0-0.4-0.2-0.4-0.4c0-0.2,0.2-0.4,0.4-0.4C61.7,15.5,61.9,15.7,61.9,15.9"></path><linearGradient id="NAV-SH-WFH-11" gradientUnits="userSpaceOnUse" x1="66.4335" y1="28.6919" x2="68.8596" y2="28.6919"><stop offset="0" style="stop-color: #F7A39F;"></stop><stop offset="1" style="stop-color: #FFDF97;"></stop></linearGradient><path fill="url(#NAV-SH-WFH-11)" d="M67.8,27.4c-0.1,0-0.1,0-0.2,0c-0.7,0-1.2,0.6-1.2,1.3c0,0.6,0.4,1.1,0.9,1.2v0l0.2,0h0.1h0l1.1,0.1l-0.2-0.4l-0.1-0.1c0.2-0.3,0.4-0.6,0.4-0.9c0-0.4-0.2-0.8-0.4-1l0.4-0.2L67.8,27.4L67.8,27.4z"></path><polygon fill="#444" points="62.2,16.4 69.3,28.3 68,28.8 60.8,15.9"></polygon><linearGradient id="NAV-SH-WFH-12" gradientUnits="userSpaceOnUse" x1="49.396" y1="55.2257" x2="68.4893" y2="55.2257"><stop offset="0" style="stop-color: #F7A39F;"></stop><stop offset="1" style="stop-color: #FFDF97;"></stop></linearGradient><path fill="url(#NAV-SH-WFH-12)" d="M49.4,55.1c0,0,1.9,1.9,10,1.9c8.1,0,9.1-1.3,9.1-1.3v-2l-16.7-0.3L49.4,55.1z"></path><path fill="#FCEFBB" d="M51.7,54.7c0,0,3.4,0.8,7.4,0.8c4,0,8.4-0.9,9.2-1.4c0.9-0.6-2-1.7-6.1-1.5c-4.1,0.2-8-0.5-11.1,0.9L51.7,54.7z"></path><linearGradient id="NAV-SH-WFH-13" gradientUnits="userSpaceOnUse" x1="55.4642" y1="52.2939" x2="62.7887" y2="52.2939"><stop offset="0" style="stop-color: #F7A39F;"></stop><stop offset="1" style="stop-color: #FFDF97;"></stop></linearGradient><path fill="url(#NAV-SH-WFH-13)" d="M59.9,50.5c-1.5,0-1.4,0-1.4,0s-1.5,0-2.1,1c-0.6,0.9-0.9,1.7-0.9,1.7s0.9,0.9,3.9,0.9c3,0,3.4-0.9,3.4-0.9L62,51.6C62,51.6,61.4,50.5,59.9,50.5C59.9,50.5,59.9,50.5,59.9,50.5"></path><path fill="#444" d="M6.6,61.9v1.5l6,6.9c0.6,0.6,1.4,0.9,2.2,0.9l44.9-2.4l2.4-1l0-1l-49.7-2.1L6.6,61.9z"></path><linearGradient id="NAV-SH-WFH-14" gradientUnits="userSpaceOnUse" x1="5.0658" y1="45.5764" x2="52.4613" y2="45.5764"><stop offset="0" style="stop-color: #F7A39F;"></stop><stop offset="1" style="stop-color: #FFDF97;"></stop></linearGradient><path fill="url(#NAV-SH-WFH-14)" d="M48,29.2L7,30.8c-1.1,0-2,1-1.9,2.1l1.5,29l45.8-2.4L50,31.1C50,30,49.1,29.2,48,29.2C48,29.2,48,29.2,48,29.2"></path><polygon fill="#444" points="6.3,32.6 7.6,58.4 51.2,56.2 49.1,31.3"></polygon><path fill="#FCEFBB" d="M6.6,61.9l6.5,7.1c0.6,0.6,1.4,0.9,2.2,0.9l46.6-2.6c0.3,0,0.5-0.5,0.2-0.7l-9.6-7.1L6.6,61.9z"></path><linearGradient id="NAV-SH-WFH-15" gradientUnits="userSpaceOnUse" x1="41.3947" y1="14.7478" x2="61.9825" y2="14.7478"><stop offset="0" style="stop-color: #F7A39F;"></stop><stop offset="1" style="stop-color: #FFDF97;"></stop></linearGradient><path fill="url(#NAV-SH-WFH-15)" d="M52.3,8.9c0,0-1.7,0-3.2,1.2c-1.6,1.2-7.6,6.5-7.6,6.5c6.6,7.1,10.9,9,11.4,9.2l0.1,0c0,0,4-7.8,4.6-9.2c0.5-1.4,0.6-3,0.6-3l4-6c-2.1-2.7-5-3.8-5-3.8L52.3,8.9z"></path><path fill="#FCEFBB" d="M52.8,25.7L52.8,25.7c-5.6-7.1-11.4-9.2-11.4-9.2C48,23.6,52.3,25.5,52.8,25.7"></path><linearGradient id="NAV-SH-WFH-16" gradientUnits="userSpaceOnUse" x1="59.1955" y1="15.8673" x2="61.6162" y2="15.8673"><stop offset="0" style="stop-color: #F7A39F;"></stop><stop offset="1" style="stop-color: #FFDF97;"></stop></linearGradient><path fill="url(#NAV-SH-WFH-16)" d="M59.2,15.8c0,0.6,0.4,1.1,0.9,1.2l0,0l0.3,0c0,0,0,0,0,0c0,0,0,0,0,0l1.1,0.1l-0.2-0.5c0.2-0.2,0.4-0.6,0.4-0.9c0-0.7-0.5-1.3-1.2-1.3C59.7,14.5,59.2,15.1,59.2,15.8"></path><path fill="#FCEFBB" d="M62.7,15.9c0,0.7-0.5,1.3-1.2,1.3c-0.7,0-1.2-0.6-1.2-1.3c0-0.7,0.5-1.3,1.2-1.3C62.2,14.7,62.7,15.2,62.7,15.9"></path><path fill="#444" d="M60.5,46.3c-0.9,1.8-0.6,4.3-0.6,4.3c-0.7,0.4-1.4,0-1.4,0c0-2.4,0.4-4.1,0.4-4.1l8.7-16.5h0.1h0l1.1,0.1l-0.2-0.4l0.6,0.1C69.1,29.7,61.4,44.5,60.5,46.3"></path><path fill="#FCEFBB" d="M69.9,28.8c0,0.7-0.5,1.3-1.2,1.3c-0.7,0-1.2-0.6-1.2-1.3c0-0.7,0.5-1.3,1.2-1.3C69.4,27.5,69.9,28.1,69.9,28.8"></path><linearGradient id="NAV-SH-WFH-17" gradientUnits="userSpaceOnUse" x1="68.0305" y1="28.7683" x2="69.4163" y2="28.7683"><stop offset="0" style="stop-color: #F7A39F;"></stop><stop offset="1" style="stop-color: #FFDF97;"></stop></linearGradient><path fill="url(#NAV-SH-WFH-17)" d="M68,28.8c0,0.4,0.3,0.7,0.7,0.7c0.4,0,0.7-0.3,0.7-0.7c0-0.4-0.3-0.7-0.7-0.7C68.3,28,68,28.4,68,28.8"></path><path fill="#FCEFBB" d="M69.1,28.8c0,0.2-0.2,0.4-0.4,0.4c-0.2,0-0.4-0.2-0.4-0.4c0-0.2,0.2-0.4,0.4-0.4C68.9,28.3,69.1,28.5,69.1,28.8"></path><polygon fill="#F7D0D0" points="11.3,63.1 51.4,61 57,65.5 15.7,67.6"></polygon></g></svg>