<svg xmlns="http://www.w3.org/2000/svg" xmlns:xlink="http://www.w3.org/1999/xlink" x="0px" y="0px" width="65" height="65" viewBox="0 0 75 75" enable-background="new 0 0 75 75" xml:space="preserve"><defs><linearGradient id="NAV-SH-G-1" gradientUnits="userSpaceOnUse" x1="4.1067" y1="41.5787" x2="70.8933" y2="41.5787"><stop offset="0" style="stop-color: #ADA8F0;"></stop><stop offset="1" style="stop-color: #90F5F2;"></stop></linearGradient><linearGradient id="NAV-SH-G-1" gradientUnits="userSpaceOnUse" x1="4.1067" y1="41.5787" x2="70.8933" y2="41.5787"><stop offset="0" style="stop-color: #ADA8F0;"></stop><stop offset="1" style="stop-color: #90F5F2;"></stop></linearGradient></defs><path fill="#444444" d="M60,20.8c-0.5-0.5-3.1-2.3-7.6-3.2c-2.3-0.5-3.3,0-3.7,0.1c-0.4,0.2-1.2,0.9-2.5,0.9h-8.8h0h-8.8c-1.3,0-2.1-0.7-2.5-0.9c-0.4-0.2-1.4-0.6-3.7-0.1c-4.4,0.9-7,2.8-7.6,3.2c-0.5,0.5-0.9,1.9-0.9,1.9l2.4,0.1l9,1l12-3.1l12,3.1l9-1l2.4-0.1C61,22.7,60.5,21.3,60,20.8"></path><linearGradient id="NAV-SH-G-1" gradientUnits="userSpaceOnUse" x1="4.1067" y1="41.5787" x2="70.8933" y2="41.5787"><stop offset="0" style="stop-color: #ADA8F0;"></stop><stop offset="1" style="stop-color: #90F5F2;"></stop></linearGradient><path fill="url(&quot;#NAV-SH-G-1&quot;)" d="M49.1,19.5c-1,0.5-2.5,0.4-2.5,0.4h-9.1h-9.1c0,0-1.6,0.1-2.5-0.4c-1-0.5-3.5-0.4-6.9,0.8c-3.3,1.2-4.8,2.1-5.6,2.8c-0.9,0.7-1.8,2.3-2.6,4.7c-0.9,2.5-4.7,13.5-6,19.8c-1.3,6.3-0.5,11.3,2.1,13.9c1.5,1.5,3.9,2.2,3.9,2.2s0.7,0.1,0.9-0.1c0.3-0.2,3-2.5,4.1-4c1.1-1.5,3.8-5.4,6.1-7.4c1.9-1.6,4.7-1.6,6.4-1.5c0.4,0,0.7,0,0.9,0c1.4,0,8.4,0.1,8.4,0.1s7-0.1,8.4-0.1c0.2,0,0.6,0,0.9,0c1.7-0.1,4.5-0.1,6.4,1.5c2.3,2,5,5.9,6.1,7.4c1.1,1.5,3.8,3.8,4.1,4c0.3,0.2,0.9,0.1,0.9,0.1s2.4-0.7,3.9-2.2c2.6-2.6,3.4-7.6,2.1-13.9c-1.3-6.3-5.1-17.3-6-19.8c-0.9-2.5-1.8-4-2.6-4.7c-0.9-0.7-2.3-1.6-5.6-2.8c-2.2-0.8-4-1.1-5.3-1.1C50,19.3,49.5,19.4,49.1,19.5"></path><path fill="#444444" d="M57.3,25.8c0,1.2-1,2.3-2.3,2.3c-1.2,0-2.3-1-2.3-2.3c0-1.2,1-2.3,2.3-2.3C56.3,23.5,57.3,24.5,57.3,25.8"></path><path fill="#444444" d="M57.3,34.7c0,1.2-1,2.3-2.3,2.3c-1.2,0-2.3-1-2.3-2.3c0-1.2,1-2.3,2.3-2.3C56.3,32.5,57.3,33.5,57.3,34.7"></path><path fill="#444444" d="M59.5,32.5c-1.2,0-2.3-1-2.3-2.3c0-1.2,1-2.3,2.3-2.3c1.2,0,2.3,1,2.3,2.3C61.8,31.5,60.8,32.5,59.5,32.5"></path><path fill="#444444" d="M50.6,32.5c-1.2,0-2.3-1-2.3-2.3c0-1.2,1-2.3,2.3-2.3c1.2,0,2.3,1,2.3,2.3C52.8,31.5,51.8,32.5,50.6,32.5"></path><path fill="#444444" d="M50.6,40.3c0,2.2-1.8,4-4,4c-2.2,0-4-1.8-4-4c0-2.2,1.8-4,4-4C48.8,36.3,50.6,38.1,50.6,40.3"></path><path fill="#444444" d="M24.3,30.1c0,2.2-1.8,4-4,4c-2.2,0-4-1.8-4-4c0-2.2,1.8-4,4-4C22.6,26.1,24.3,27.8,24.3,30.1"></path><path fill="#DFEEF7" d="M63.4,25.9c-0.6-1.3-1.2-2.2-1.8-2.7c-0.9-0.7-2.3-1.6-5.6-2.8c-3.3-1.2-5.9-1.3-6.9-0.8c-1,0.5-2.5,0.4-2.5,0.4h-9.1h-9.1c0,0-1.6,0.1-2.5-0.4c-1-0.5-3.5-0.4-6.9,0.8c-3.3,1.2-4.8,2.1-5.6,2.8c-0.6,0.5-1.2,1.4-1.8,2.7c0,0,1.3-1.8,2.3-2.3c2.5-1.4,6.8-3.1,9.3-3.3c2.5-0.3,3.4,1.5,4.1,2.1c0.7,0.6,3.8,4,4.8,4.3c1,0.3,5.6,0.3,5.6,0.3s5.5-0.1,6.5-0.6s2.7-2.6,3.7-3.9c1-1.3,2.2-2.1,3.2-2.2c1-0.1,3.1,0.1,6.9,1.7C61.7,23.5,63.4,25.9,63.4,25.9"></path><path fill="#ADA8F0" d="M49.2,40.3c0,1.4-1.2,2.6-2.6,2.6c-1.4,0-2.6-1.2-2.6-2.6c0-1.4,1.2-2.6,2.6-2.6C48,37.7,49.2,38.9,49.2,40.3"></path><path fill="#89EAE1" d="M22.9,30.1c0,1.4-1.2,2.6-2.6,2.6c-1.4,0-2.6-1.2-2.6-2.6c0-1.4,1.2-2.6,2.6-2.6C21.8,27.5,22.9,28.6,22.9,30.1"></path><path fill="#AAA5ED" d="M54,49.5H37.5H21c-6.6,0-9.9,14.3-9.9,14.3c0.2,0,0.4,0,0.6-0.1c0.3-0.2,3-2.5,4.1-4c1.1-1.5,3.8-5.4,6.1-7.4c2.3-2,5.9-1.5,7.3-1.5c1.4,0,8.4,0.1,8.4,0.1c0,0,7-0.1,8.4-0.1c1.4,0,5-0.5,7.3,1.5c2.3,2,5,5.9,6.1,7.4c1.1,1.5,3.8,3.8,4.1,4c0.1,0.1,0.4,0.1,0.6,0.1C63.9,63.9,60.6,49.5,54,49.5"></path><path fill="#FFFFFF" d="M33.1,39.2h-2.5v-2.5c0-0.4-0.4-0.8-0.8-0.8h-1.1v10.3h1.1c0.4,0,0.8-0.4,0.8-0.8v-2.5h2.5c0.4,0,0.8-0.4,0.8-0.8V40C33.9,39.6,33.5,39.2,33.1,39.2"></path><path fill="#DFEEF7" d="M27.7,35.9c-0.4,0-0.8,0.4-0.8,0.8v2.5h-2.5c-0.4,0-0.8,0.4-0.8,0.8v2.1c0,0.4,0.4,0.8,0.8,0.8h2.5v2.5c0,0.4,0.4,0.8,0.8,0.8h1.1V35.9H27.7z"></path><path fill="#DFEEF7" d="M42.6,28.6C42.6,28.6,42.6,28.6,42.6,28.6l0,2.9h0c0.8,0,1.4-0.6,1.4-1.4C44,29.3,43.4,28.6,42.6,28.6"></path><path fill="#DFEEF7" d="M32.7,28.6v2.9c0.8,0,1.4-0.6,1.4-1.4C34.2,29.3,33.5,28.6,32.7,28.6"></path><path fill="#DFEEF7" d="M31.3,30.1c0,0.8,0.6,1.4,1.4,1.4v-2.9C31.9,28.6,31.3,29.3,31.3,30.1"></path><path fill="#DFEEF7" d="M41.2,30.1c0,0.8,0.6,1.4,1.4,1.4v-2.9C41.8,28.6,41.2,29.3,41.2,30.1"></path><g id="NAV-SH-G-O" opacity="0"><rect x="0" y="0" width="100" height="100" fill="#fff"></rect><path fill="#444" d="M60,20.8c-0.5-0.5-3.1-2.3-7.6-3.2c-2.3-0.5-3.3,0-3.7,0.1c-0.4,0.2-1.2,0.9-2.5,0.9h-8.8h0h-8.8c-1.3,0-2.1-0.7-2.5-0.9c-0.4-0.2-1.4-0.6-3.7-0.1c-4.4,0.9-7,2.8-7.6,3.2c-0.5,0.5-0.9,1.9-0.9,1.9l2.4,0.1l9,1l12-3.1l12,3.1l9-1l2.4-0.1C61,22.7,60.5,21.3,60,20.8"></path><linearGradient id="NAV-SH-G-2" gradientUnits="userSpaceOnUse" x1="4.1067" y1="41.5787" x2="70.8933" y2="41.5787"><stop offset="0" style="stop-color: #F7A39F;"></stop><stop offset="1" style="stop-color: #FFDF97;"></stop></linearGradient><path fill="url(#NAV-SH-G-2)" d="M49.1,19.5c-1,0.5-2.5,0.4-2.5,0.4h-9.1h-9.1c0,0-1.6,0.1-2.5-0.4c-1-0.5-3.5-0.4-6.9,0.8c-3.3,1.2-4.8,2.1-5.6,2.8c-0.9,0.7-1.8,2.3-2.6,4.7c-0.9,2.5-4.7,13.5-6,19.8c-1.3,6.3-0.5,11.3,2.1,13.9c1.5,1.5,3.9,2.2,3.9,2.2s0.7,0.1,0.9-0.1c0.3-0.2,3-2.5,4.1-4c1.1-1.5,3.8-5.4,6.1-7.4c1.9-1.6,4.7-1.6,6.4-1.5c0.4,0,0.7,0,0.9,0c1.4,0,8.4,0.1,8.4,0.1s7-0.1,8.4-0.1c0.2,0,0.6,0,0.9,0c1.7-0.1,4.5-0.1,6.4,1.5c2.3,2,5,5.9,6.1,7.4c1.1,1.5,3.8,3.8,4.1,4c0.3,0.2,0.9,0.1,0.9,0.1s2.4-0.7,3.9-2.2c2.6-2.6,3.4-7.6,2.1-13.9c-1.3-6.3-5.1-17.3-6-19.8c-0.9-2.5-1.8-4-2.6-4.7c-0.9-0.7-2.3-1.6-5.6-2.8c-2.2-0.8-4-1.1-5.3-1.1C50,19.3,49.5,19.4,49.1,19.5"></path><path fill="#444" d="M57.3,25.8c0,1.2-1,2.3-2.3,2.3c-1.2,0-2.3-1-2.3-2.3c0-1.2,1-2.3,2.3-2.3C56.3,23.5,57.3,24.5,57.3,25.8"></path><path fill="#444" d="M57.3,34.7c0,1.2-1,2.3-2.3,2.3c-1.2,0-2.3-1-2.3-2.3c0-1.2,1-2.3,2.3-2.3C56.3,32.5,57.3,33.5,57.3,34.7"></path><path fill="#444" d="M59.5,32.5c-1.2,0-2.3-1-2.3-2.3c0-1.2,1-2.3,2.3-2.3c1.2,0,2.3,1,2.3,2.3C61.8,31.5,60.8,32.5,59.5,32.5"></path><path fill="#444" d="M50.6,32.5c-1.2,0-2.3-1-2.3-2.3c0-1.2,1-2.3,2.3-2.3c1.2,0,2.3,1,2.3,2.3C52.8,31.5,51.8,32.5,50.6,32.5"></path><path fill="#444" d="M50.6,40.3c0,2.2-1.8,4-4,4c-2.2,0-4-1.8-4-4c0-2.2,1.8-4,4-4C48.8,36.3,50.6,38.1,50.6,40.3"></path><path fill="#444" d="M24.3,30.1c0,2.2-1.8,4-4,4c-2.2,0-4-1.8-4-4c0-2.2,1.8-4,4-4C22.6,26.1,24.3,27.8,24.3,30.1"></path><path fill="#FCEFBB" d="M63.4,25.9c-0.6-1.3-1.2-2.2-1.8-2.7c-0.9-0.7-2.3-1.6-5.6-2.8c-3.3-1.2-5.9-1.3-6.9-0.8c-1,0.5-2.5,0.4-2.5,0.4h-9.1h-9.1c0,0-1.6,0.1-2.5-0.4c-1-0.5-3.5-0.4-6.9,0.8c-3.3,1.2-4.8,2.1-5.6,2.8c-0.6,0.5-1.2,1.4-1.8,2.7c0,0,1.3-1.8,2.3-2.3c2.5-1.4,6.8-3.1,9.3-3.3c2.5-0.3,3.4,1.5,4.1,2.1c0.7,0.6,3.8,4,4.8,4.3c1,0.3,5.6,0.3,5.6,0.3s5.5-0.1,6.5-0.6s2.7-2.6,3.7-3.9c1-1.3,2.2-2.1,3.2-2.2c1-0.1,3.1,0.1,6.9,1.7C61.7,23.5,63.4,25.9,63.4,25.9"></path><path fill="#F7A39F" d="M49.2,40.3c0,1.4-1.2,2.6-2.6,2.6c-1.4,0-2.6-1.2-2.6-2.6c0-1.4,1.2-2.6,2.6-2.6C48,37.7,49.2,38.9,49.2,40.3"></path><path fill="#FCEFBB" d="M22.9,30.1c0,1.4-1.2,2.6-2.6,2.6c-1.4,0-2.6-1.2-2.6-2.6c0-1.4,1.2-2.6,2.6-2.6C21.8,27.5,22.9,28.6,22.9,30.1"></path><path fill="#F7A39F" d="M54,49.5H37.5H21c-6.6,0-9.9,14.3-9.9,14.3c0.2,0,0.4,0,0.6-0.1c0.3-0.2,3-2.5,4.1-4c1.1-1.5,3.8-5.4,6.1-7.4c2.3-2,5.9-1.5,7.3-1.5c1.4,0,8.4,0.1,8.4,0.1c0,0,7-0.1,8.4-0.1c1.4,0,5-0.5,7.3,1.5c2.3,2,5,5.9,6.1,7.4c1.1,1.5,3.8,3.8,4.1,4c0.1,0.1,0.4,0.1,0.6,0.1C63.9,63.9,60.6,49.5,54,49.5"></path><path fill="#FFF6D2" d="M33.1,39.2h-2.5v-2.5c0-0.4-0.4-0.8-0.8-0.8h-1.1v10.3h1.1c0.4,0,0.8-0.4,0.8-0.8v-2.5h2.5c0.4,0,0.8-0.4,0.8-0.8V40C33.9,39.6,33.5,39.2,33.1,39.2"></path><path fill="#FCEFBB" d="M27.7,35.9c-0.4,0-0.8,0.4-0.8,0.8v2.5h-2.5c-0.4,0-0.8,0.4-0.8,0.8v2.1c0,0.4,0.4,0.8,0.8,0.8h2.5v2.5c0,0.4,0.4,0.8,0.8,0.8h1.1V35.9H27.7z"></path><path fill="#FFF6D2" d="M42.6,28.6C42.6,28.6,42.6,28.6,42.6,28.6l0,2.9h0c0.8,0,1.4-0.6,1.4-1.4C44,29.3,43.4,28.6,42.6,28.6"></path><path fill="#FFF6D2" d="M32.7,28.6v2.9c0.8,0,1.4-0.6,1.4-1.4C34.2,29.3,33.5,28.6,32.7,28.6"></path><path fill="#FCEFBB" d="M31.3,30.1c0,0.8,0.6,1.4,1.4,1.4v-2.9C31.9,28.6,31.3,29.3,31.3,30.1"></path><path fill="#FCEFBB" d="M41.2,30.1c0,0.8,0.6,1.4,1.4,1.4v-2.9C41.8,28.6,41.2,29.3,41.2,30.1"></path></g></svg>