<svg xmlns="http://www.w3.org/2000/svg" xmlns:xlink="http://www.w3.org/1999/xlink" x="0px" y="0px" width="65" height="65" viewBox="0 0 75 75" enable-background="new 0 0 75 75" xml:space="preserve"><defs><linearGradient id="NAV-SH_ST-2" gradientUnits="userSpaceOnUse" x1="4.7276" y1="37.9838" x2="70.7785" y2="37.9838"><stop offset="0" style="stop-color: #ADA8F0;"></stop><stop offset="1" style="stop-color: #90F5F2;"></stop></linearGradient><linearGradient id="NAV-SH_ST-2" gradientUnits="userSpaceOnUse" x1="4.7276" y1="37.9838" x2="70.7785" y2="37.9838"><stop offset="0" style="stop-color: #ADA8F0;"></stop><stop offset="1" style="stop-color: #90F5F2;"></stop></linearGradient><linearGradient id="NAV-SH_ST-3" gradientUnits="userSpaceOnUse" x1="4.2215" y1="35.4414" x2="68.3507" y2="35.4414"><stop offset="0" style="stop-color: #DCFAEA;"></stop><stop offset="1" style="stop-color: #DFEEF7;"></stop></linearGradient></defs><linearGradient id="NAV-SH_ST-2" gradientUnits="userSpaceOnUse" x1="4.7276" y1="37.9838" x2="70.7785" y2="37.9838"><stop offset="0" style="stop-color: #ADA8F0;"></stop><stop offset="1" style="stop-color: #90F5F2;"></stop></linearGradient><path fill="url(&quot;#NAV-SH_ST-2&quot;)" d="M4.7,52.2L8.5,56h0.1c0.4,0.8,1.3,1.4,2.3,1.4h57.4c1.4,0,2.6-1.1,2.6-2.6V24.3c0-0.5-0.2-1.1-0.5-1.5c-0.1-0.2-0.3-0.4-0.4-0.6c-0.4-0.6-0.8-1.3-1.2-1.9l-0.9-1.7C46.8,29.8,25.8,41,4.7,52.2z"></path><linearGradient id="NAV-SH_ST-3" gradientUnits="userSpaceOnUse" x1="4.2215" y1="35.4414" x2="68.3507" y2="35.4414"><stop offset="0" style="stop-color: #DCFAEA;"></stop><stop offset="1" style="stop-color: #DFEEF7;"></stop></linearGradient><path fill="url(&quot;#NAV-SH_ST-3&quot;)" d="M6.8,17.6c-1.4,0-2.6,1.1-2.6,2.6v30.6c0,1.4,1.1,2.6,2.6,2.6h59c1.4,0,2.6-1.1,2.6-2.6V20.2c0-1.4-1.1-2.6-2.6-2.6H6.8z"></path><path fill="#444444" d="M11.2,47.3h-0.5c-0.3,0-0.5-0.2-0.5-0.5V24.1c0-0.3,0.2-0.5,0.5-0.5h0.5c0.3,0,0.5,0.2,0.5,0.5v22.7C11.6,47,11.4,47.3,11.2,47.3"></path><path fill="#AAA5ED" d="M7.7,26.9v-1.1c0-0.6,0.5-1,1-1H13c0.6,0,1,0.5,1,1v1.1c0,0.6-0.5,1-1,1H8.7C8.2,27.9,7.7,27.5,7.7,26.9"></path><path fill="#444444" d="M18.1,47.3h-0.5c-0.3,0-0.5-0.2-0.5-0.5V24.1c0-0.3,0.2-0.5,0.5-0.5h0.5c0.3,0,0.5,0.2,0.5,0.5v22.7C18.6,47,18.3,47.3,18.1,47.3"></path><path fill="#444444" d="M25,47.3h-0.5c-0.3,0-0.5-0.2-0.5-0.5V24.1c0-0.3,0.2-0.5,0.5-0.5H25c0.3,0,0.5,0.2,0.5,0.5v22.7C25.5,47,25.2,47.3,25,47.3"></path><path fill="#444444" d="M31.9,47.3h-0.5c-0.3,0-0.5-0.2-0.5-0.5V24.1c0-0.3,0.2-0.5,0.5-0.5h0.5c0.3,0,0.5,0.2,0.5,0.5v22.7C32.4,47,32.2,47.3,31.9,47.3"></path><path fill="#444444" d="M38.8,47.3h-0.5c-0.3,0-0.5-0.2-0.5-0.5V24.1c0-0.3,0.2-0.5,0.5-0.5h0.5c0.3,0,0.5,0.2,0.5,0.5v22.7C39.3,47,39.1,47.3,38.8,47.3"></path><path fill="#444444" d="M45.7,47.3h-0.5c-0.3,0-0.5-0.2-0.5-0.5V24.1c0-0.3,0.2-0.5,0.5-0.5h0.5c0.3,0,0.5,0.2,0.5,0.5v22.7C46.2,47,46,47.3,45.7,47.3"></path><path fill="#AAA5ED" d="M14.6,34.2v-1.1c0-0.6,0.5-1,1-1H20c0.6,0,1,0.5,1,1v1.1c0,0.6-0.5,1-1,1h-4.3C15.1,35.2,14.6,34.8,14.6,34.2"></path><path fill="#AAA5ED" d="M21.6,38.6v-1.1c0-0.6,0.5-1,1-1h4.3c0.6,0,1,0.5,1,1v1.1c0,0.6-0.5,1-1,1h-4.3C22,39.6,21.6,39.1,21.6,38.6"></path><path fill="#AAA5ED" d="M28.5,30v-1.1c0-0.6,0.5-1,1-1h4.3c0.6,0,1,0.5,1,1V30c0,0.6-0.5,1-1,1h-4.3C28.9,31,28.5,30.5,28.5,30"></path><path fill="#AAA5ED" d="M35.4,44.5v-1.1c0-0.6,0.5-1,1-1h4.3c0.6,0,1,0.5,1,1v1.1c0,0.6-0.5,1-1,1h-4.3C35.8,45.6,35.4,45.1,35.4,44.5"></path><path fill="#AAA5ED" d="M42.3,33.7v-1.1c0-0.6,0.5-1,1-1h4.3c0.6,0,1,0.5,1,1v1.1c0,0.6-0.5,1-1,1h-4.3C42.8,34.8,42.3,34.3,42.3,33.7"></path><path fill="#444444" d="M61.9,36h-7c-0.9,0-1.7-0.8-1.7-1.7v-8.9c0-0.9,0.8-1.7,1.7-1.7h7c0.9,0,1.7,0.8,1.7,1.7v8.9C63.6,35.2,62.8,36,61.9,36"></path><path fill="#444444" d="M55.7,46.3c-2.1-1.5-2.6-4.4-1.1-6.6c1.5-2.1,4.4-2.6,6.6-1.1c2.1,1.5,2.6,4.4,1.1,6.6C60.7,47.3,57.8,47.8,55.7,46.3"></path><path fill="#89EAE1" d="M54.8,41.1c0.8-2,3-3,5-2.2c2,0.8,3,3,2.2,5c-0.8,2-3,3-5,2.2C55,45.3,54,43.1,54.8,41.1"></path><path fill="#444444" d="M60.8,44.4c-0.3,0.1-0.6-0.1-0.6-0.4c-0.1-0.3,0.1-0.6,0.4-0.6c0.3-0.1,0.6,0.1,0.6,0.4C61.2,44,61,44.3,60.8,44.4"></path><g id="NAV-SH-ST-O" opacity="0"><rect width="100" height="100" fill="#fff" x="0" y="0"></rect><linearGradient id="NAV-SH_ST-4" gradientUnits="userSpaceOnUse" x1="4.7276" y1="37.9838" x2="70.7785" y2="37.9838"><stop offset="0" style="stop-color: #F7A39F;"></stop><stop offset="1" style="stop-color: #FFDF97;"></stop></linearGradient><path fill="url(#NAV-SH_ST-4)" d="M4.7,52.2L8.5,56h0.1c0.4,0.8,1.3,1.4,2.3,1.4h57.4c1.4,0,2.6-1.1,2.6-2.6V24.3c0-0.5-0.2-1.1-0.5-1.5c-0.1-0.2-0.3-0.4-0.4-0.6c-0.4-0.6-0.8-1.3-1.2-1.9l-0.9-1.7C46.8,29.8,25.8,41,4.7,52.2z"></path><path fill="#FCEFBB" d="M6.8,17.6c-1.4,0-2.6,1.1-2.6,2.6v30.6c0,1.4,1.1,2.6,2.6,2.6h59c1.4,0,2.6-1.1,2.6-2.6V20.2c0-1.4-1.1-2.6-2.6-2.6H6.8z"></path><path fill="#444" d="M11.2,47.3h-0.5c-0.3,0-0.5-0.2-0.5-0.5V24.1c0-0.3,0.2-0.5,0.5-0.5h0.5c0.3,0,0.5,0.2,0.5,0.5v22.7C11.6,47,11.4,47.3,11.2,47.3"></path><path fill="#F7A39F" d="M7.7,26.9v-1.1c0-0.6,0.5-1,1-1H13c0.6,0,1,0.5,1,1v1.1c0,0.6-0.5,1-1,1H8.7C8.2,27.9,7.7,27.5,7.7,26.9"></path><path fill="#444" d="M18.1,47.3h-0.5c-0.3,0-0.5-0.2-0.5-0.5V24.1c0-0.3,0.2-0.5,0.5-0.5h0.5c0.3,0,0.5,0.2,0.5,0.5v22.7C18.6,47,18.3,47.3,18.1,47.3"></path><path fill="#444" d="M25,47.3h-0.5c-0.3,0-0.5-0.2-0.5-0.5V24.1c0-0.3,0.2-0.5,0.5-0.5H25c0.3,0,0.5,0.2,0.5,0.5v22.7C25.5,47,25.2,47.3,25,47.3"></path><path fill="#444" d="M31.9,47.3h-0.5c-0.3,0-0.5-0.2-0.5-0.5V24.1c0-0.3,0.2-0.5,0.5-0.5h0.5c0.3,0,0.5,0.2,0.5,0.5v22.7C32.4,47,32.2,47.3,31.9,47.3"></path><path fill="#444" d="M38.8,47.3h-0.5c-0.3,0-0.5-0.2-0.5-0.5V24.1c0-0.3,0.2-0.5,0.5-0.5h0.5c0.3,0,0.5,0.2,0.5,0.5v22.7C39.3,47,39.1,47.3,38.8,47.3"></path><path fill="#444" d="M45.7,47.3h-0.5c-0.3,0-0.5-0.2-0.5-0.5V24.1c0-0.3,0.2-0.5,0.5-0.5h0.5c0.3,0,0.5,0.2,0.5,0.5v22.7C46.2,47,46,47.3,45.7,47.3"></path><path fill="#F7A39F" d="M14.6,34.2v-1.1c0-0.6,0.5-1,1-1H20c0.6,0,1,0.5,1,1v1.1c0,0.6-0.5,1-1,1h-4.3C15.1,35.2,14.6,34.8,14.6,34.2"></path><path fill="#F7A39F" d="M21.6,38.6v-1.1c0-0.6,0.5-1,1-1h4.3c0.6,0,1,0.5,1,1v1.1c0,0.6-0.5,1-1,1h-4.3C22,39.6,21.6,39.1,21.6,38.6"></path><path fill="#F7A39F" d="M28.5,30v-1.1c0-0.6,0.5-1,1-1h4.3c0.6,0,1,0.5,1,1V30c0,0.6-0.5,1-1,1h-4.3C28.9,31,28.5,30.5,28.5,30"></path><path fill="#F7A39F" d="M35.4,44.5v-1.1c0-0.6,0.5-1,1-1h4.3c0.6,0,1,0.5,1,1v1.1c0,0.6-0.5,1-1,1h-4.3C35.8,45.6,35.4,45.1,35.4,44.5"></path><path fill="#F7A39F" d="M42.3,33.7v-1.1c0-0.6,0.5-1,1-1h4.3c0.6,0,1,0.5,1,1v1.1c0,0.6-0.5,1-1,1h-4.3C42.8,34.8,42.3,34.3,42.3,33.7"></path><path fill="#444" d="M61.9,36h-7c-0.9,0-1.7-0.8-1.7-1.7v-8.9c0-0.9,0.8-1.7,1.7-1.7h7c0.9,0,1.7,0.8,1.7,1.7v8.9C63.6,35.2,62.8,36,61.9,36"></path><path fill="#444" d="M55.7,46.3c-2.1-1.5-2.6-4.4-1.1-6.6c1.5-2.1,4.4-2.6,6.6-1.1c2.1,1.5,2.6,4.4,1.1,6.6C60.7,47.3,57.8,47.8,55.7,46.3"></path><path fill="#F7D0D0" d="M54.8,41.1c0.8-2,3-3,5-2.2c2,0.8,3,3,2.2,5c-0.8,2-3,3-5,2.2C55,45.3,54,43.1,54.8,41.1"></path><path fill="#444" d="M60.8,44.4c-0.3,0.1-0.6-0.1-0.6-0.4c-0.1-0.3,0.1-0.6,0.4-0.6c0.3-0.1,0.6,0.1,0.6,0.4C61.2,44,61,44.3,60.8,44.4"></path></g></svg>