<svg xmlns="http://www.w3.org/2000/svg" viewBox="0 0 200 100" width="200px" height="100px"><path d="M12.61,55l-.09,0-.09,0V53.5a.44.44,0,0,0,.2,0A1.07,1.07,0,0,1,12.61,55Z" style="fill:#989898"/><path d="M32.82,51.57a7.94,7.94,0,0,0,0-1.27,11.29,11.29,0,0,0-1.26-4,10.12,10.12,0,0,0-8.45-5.13,10,10,0,0,0-8.88,6,9.94,9.94,0,0,0-.7,3.39,8.73,8.73,0,0,0,0,1.11,0,0,0,0,1,0,0c0,.07-.22.25-.26.28-.44.31-.64,1.44-.67,1.61a5.06,5.06,0,0,0,0,1.54,4.13,4.13,0,0,0,2,2.86,3.88,3.88,0,0,0,2.12.43,1,1,0,0,0,.9.57,1,1,0,0,0,.91-1q-.56-3.8-1.1-7.59a.94.94,0,0,0-1.81-.08L14,51.09a7.92,7.92,0,0,1,.13-1.91,8.74,8.74,0,0,1,.52-1.67,9.34,9.34,0,0,1,2-2.79A12.33,12.33,0,0,1,18,43.49a10,10,0,0,1,6.85-1.2A11.28,11.28,0,0,1,28.53,44a8.33,8.33,0,0,1,2.21,1.91,7.24,7.24,0,0,1,.78,1.25h0a6.19,6.19,0,0,1,.75,2.2,6.61,6.61,0,0,1,0,1.78l-1.57-.84a.87.87,0,0,0-.68-.66,1,1,0,0,0-.89.36,1.08,1.08,0,0,0-.21.55l-1.05,7.28a1.11,1.11,0,0,0,.14.78.86.86,0,0,0,.48.29,1,1,0,0,0,.95-.64,4.26,4.26,0,0,0,3.69-1.33A4,4,0,0,0,34,54,4.12,4.12,0,0,0,32.82,51.57Z" style="fill:#606060"/><path d="M32.61,51.82A7,7,0,0,1,33.4,53l.09.17a1.18,1.18,0,0,0-.47.23,1.34,1.34,0,0,0-.43,1,2.22,2.22,0,0,0,.55,1.62l.2-.45A1.34,1.34,0,0,1,33,54a1.18,1.18,0,0,1,.59-.54,4.1,4.1,0,0,1-1.38,3.7,3.64,3.64,0,0,1-1.69.82c-.44.1-.77.12-.67-.53q.47-3.06.87-6.13c.07-.53.36-.47.67-.29S32.2,51.54,32.61,51.82Z" style="fill:#939393"/><path d="M179.92,45.66c-.52.68,0,1.69-.77,2a4.65,4.65,0,0,1-2,0c-.62-.06-.77.21-.86.76-.39,2.39-.85,4.77-1.24,7.16-.11.68-.35,1-1.09.91-1-.08-2,0-3.11,0l1.54-8.79c-.83,0-1.59-.05-2.33,0s-.72-.21-.64-.78c.38-2.6.36-2.6,3-2.6,3.51,0,7,0,10.52,0a1.05,1.05,0,0,1,1.23.86c.27.92.62,1.82,1,2.93.75-1.07,1.45-2,2.06-3a1.58,1.58,0,0,1,1.59-.81c1.19.06,2.39,0,3.6,0,.11.49-.31.69-.54,1-1.49,1.8-3,3.59-4.53,5.34a3.57,3.57,0,0,0-.93,2c0,.35-.1.71-.18,1.06-.21.92.05,2.32-.67,2.67-.9.45-2.19.12-3.31.15-.37,0-.53-.1-.44-.48a3.21,3.21,0,0,1,.07-.43,8.72,8.72,0,0,0-.95-7.82A20.78,20.78,0,0,1,179.92,45.66Z" style="fill:#606060"/><path d="M139.24,50.38c-.32,2-.61,3.72-.87,5.44-.06.37,0,.7-.59.69-1.11,0-2.23,0-3.42,0,.57-3.25,1.12-6.41,1.7-9.57.16-.83,0-1.93.59-2.42s1.74-.06,2.63-.18,1.33.24,1.62,1.08a38.76,38.76,0,0,0,2.15,5c.29-1.77.61-3.54.86-5.32.08-.58.29-.78.88-.74,1,.07,2.41-.32,2.92.19s-.15,1.85-.31,2.83c-.45,2.74-1,5.47-1.45,8.21-.12.74-.37,1-1.16,1-1-.1-2.25.29-3-.18s-.87-1.71-1.25-2.63S139.76,51.67,139.24,50.38Z" style="fill:#606060"/><path d="M49.4,56.5l.81-4.68c-1,0-2,0-3,0-.61,0-.59.41-.66.77-.2,1.08-.39,2.17-.56,3.27-.07.5-.29.71-.84.67a25.05,25.05,0,0,0-2.6,0c-.52,0-.71-.09-.61-.65q1-5.46,2-10.94a.6.6,0,0,1,.72-.59c.57,0,1.15,0,1.73,0,1.7,0,1.7,0,1.39,1.59-.5,2.67-.51,2.64,2.23,2.63.64,0,.87-.18.94-.81.11-1,.37-1.89.51-2.84.07-.45.26-.6.7-.58.69,0,1.38,0,2.06,0,1.4,0,1.39,0,1.15,1.31-.62,3.36-1.24,6.73-1.82,10.1-.09.55-.23.79-.85.76C51.6,56.46,50.52,56.5,49.4,56.5Z" style="fill:#606060"/><path d="M113.22,56.5l.82-4.68c-1,0-2,0-3,0-.53,0-.58.32-.64.66-.19,1-.37,2-.52,3.06-.1.65-.25,1.13-1.12,1a9.66,9.66,0,0,0-2.28,0c-.79.09-.78-.28-.68-.86.65-3.54,1.3-7.08,1.91-10.63.09-.55.32-.72.85-.69s1,0,1.51,0c1.81,0,1.81,0,1.48,1.7-.5,2.51-.5,2.47,2,2.52.83,0,1.14-.23,1.21-1s.34-1.75.46-2.63c.06-.45.26-.61.7-.58s.65,0,1,0c2.47,0,2.47,0,2,2.36-.54,3-1.12,6-1.63,9-.1.56-.24.79-.86.76C115.43,56.46,114.34,56.5,113.22,56.5Z" style="fill:#606060"/><path d="M60.09,56.5c-1.16,0-2.32,0-3.47,0-.68,0-.87-.13-.75-.81q1-5.36,1.93-10.73c.09-.5.3-.64.78-.64q3.36,0,6.72,0c.48,0,.6.14.57.63-.17,2.63-.24,2.72-2.87,2.72-.47,0-.94,0-1.4,0-.66,0-.54.44-.59.78-.09.53.35.34.58.35q1.35,0,2.7,0c.49,0,.7,0,.6.63-.4,2.49-.38,2.5-3,2.5H60.82c-.61,0-.55.45-.61.82-.08.54.33.43.63.44,1,0,2.1,0,3.15,0,.79,0,.87.26.76.92-.37,2.39-.35,2.4-2.82,2.4Z" style="fill:#606060"/><path d="M157.46,48.81c-.16.92-.33,1.76-.44,2.6-.06.49-.36.53-.76.53-.94,0-1.88,0-2.81,0-.64,0-.7.36-.76.8-.08.64.4.47.72.47,1.08,0,2.16,0,3.25,0,.52,0,.74.14.59.67,0,.06,0,.14,0,.21-.33,2.43-.33,2.43-2.78,2.43-1.81,0-3.62,0-5.42,0-.66,0-.78-.19-.67-.78.66-3.57,1.31-7.15,1.92-10.73.1-.57.36-.67.87-.67,2.16,0,4.33,0,6.5,0,.67,0,.76.22.68.81-.32,2.54-.3,2.54-2.92,2.54a7.79,7.79,0,0,1-1.08,0c-.61-.08-.84.19-.84.76s.5.36.77.37C155.3,48.84,156.34,48.81,157.46,48.81Z" style="fill:#606060"/><path d="M157.68,55.08c.45-.42.87-.76,1.23-1.15.81-.86,1.57-1.55,2.8-.57a2.07,2.07,0,0,0,1.69.17c.35-.08.62-.25.67-.6a.69.69,0,0,0-.49-.75c-.56-.24-1.14-.45-1.7-.68a3.46,3.46,0,0,1-1.25-5.83c1.84-1.94,6.13-2.2,8.22-.53.38.31.41.5,0,.82s-.68.64-1,1c-.59.55-1.09,1.42-2.08.46-.2-.2-.69-.14-1-.13s-1,.13-1.05.71.4.69.81.85,1.08.4,1.6.64a3.45,3.45,0,0,1,.82,6C164.64,57.4,160.52,57.25,157.68,55.08Z" style="fill:#606060"/><path d="M16.57,44.72a.39.39,0,0,1,0-.41c1.14-.87,4.12-2.89,7.7-2.36,3,.44,5.81,2.54,5.65,3a.45.45,0,0,1-.35.17.88.88,0,0,1-.57-.31,8.76,8.76,0,0,0-11.62-.13.76.76,0,0,1-.48.24A.41.41,0,0,1,16.57,44.72Z" style="fill:#939393"/><path d="M133.34,47.86a4.76,4.76,0,0,0-2.7-3.16A8,8,0,0,0,122.25,46a7.34,7.34,0,0,0-1.87,7.47c.8,2.09,2.88,3.31,5.66,3.32C131.09,56.8,134.64,52.47,133.34,47.86Zm-6.82,5.29a2.12,2.12,0,0,1-2.3-2.36,3,3,0,0,1,2.91-3.11,2.16,2.16,0,0,1,2.28,2.3A3.13,3.13,0,0,1,126.52,53.15Z" style="fill:#606060"/><path d="M92.6,47.55c-.83-2.2-2.74-3-5-3.14-1.66-.09-3.32,0-5-.07-.42,0-.66.08-.75.55Q81,50.36,80,55.82c-.12.62.13.71.67.69.9,0,1.8,0,2.7,0v0c1,0,2,.06,2.93,0a7.07,7.07,0,0,0,5.13-2.4A6.24,6.24,0,0,0,92.6,47.55ZM86.3,53a4.78,4.78,0,0,1-1.88,0c.28-1.59.56-3.17.85-4.75,0-.19,0-.41.29-.52a2.68,2.68,0,0,1,3.21,1.67A3,3,0,0,1,86.3,53Z" style="fill:#606060"/><path d="M78.43,55.64c-.64-3.44-1.27-6.87-1.83-10.32-.13-.83-.49-.9-1.23-1-2.39-.37-3.76.53-4.89,2.66-1.72,3.23-3.82,6.26-5.86,9.54,1.44,0,2.67,0,3.9,0,.41,0,.72-.08.84-.5.39-1.33,1.38-1.54,2.59-1.39a3.56,3.56,0,0,0,1.08,0c.88-.14,1.3.22,1.25,1.08,0,.66.25.85.9.81a17.24,17.24,0,0,1,2.49,0C78.43,56.58,78.56,56.32,78.43,55.64Zm-6.71-4.11,1.65-3a11.55,11.55,0,0,1,.22,1.25C73.7,51.91,74.33,51.63,71.72,51.53Z" style="fill:#606060"/><path d="M105.35,47.44A3.6,3.6,0,0,0,102,44.49a16.71,16.71,0,0,0-2.9-.15c-.92,0-1.61,0-2.3,0s-.9.2-1,.87c-.5,3-1.06,6-1.62,9.06-.42,2.24-.44,2.24,1.92,2.24h.11c1.57,0,1.56,0,1.84-1.5a18,18,0,0,0,.34-1.78c.05-.56.29-.69.83-.69A9.93,9.93,0,0,0,102.8,52,4.05,4.05,0,0,0,105.35,47.44Zm-5.71,2.12a.65.65,0,0,1-.59-.16c-.31-.3-.17-1,.14-1.41a1,1,0,0,1,.78-.51c.67,0,1.43.05,1.41.92C101.37,49.48,100.41,49.45,99.64,49.56Z" style="fill:#606060"/><path d="M14.23,51.48c.15-.14.8-.75,1.19-.55s.28.64.31.81q.45,3.06.88,6.12A3.58,3.58,0,0,1,14.15,57a3.86,3.86,0,0,1-1-3.47A3.81,3.81,0,0,1,14.23,51.48Z" style="fill:#939393"/><path d="M18,57.84c.05.27,0,.52-.33.57s-.48-.22-.52-.52l-.81-5.61c-.08-.53-.15-1.06-.22-1.59,0-.27,0-.53.33-.59s.47.15.51.43Q17.49,54.18,18,57.84Z" style="fill:#939393"/><path d="M29.06,58.05a.41.41,0,0,1-.8-.15c.38-2.49.77-5,1.15-7.46a.44.44,0,1,1,.85.17Z" style="fill:#939393"/><rect x="18.52" y="52.2" width="0.42" height="2.19" style="fill:#606060"/><rect x="19.16" y="51.79" width="0.4" height="3.02" style="fill:#606060"/><rect x="19.8" y="50.91" width="0.44" height="4.76" style="fill:#606060"/><rect x="20.45" y="50.02" width="0.44" height="6.54" style="fill:#606060"/><rect x="21.09" y="50.91" width="0.44" height="4.98" style="fill:#606060"/><rect x="21.76" y="51.79" width="0.42" height="3.02" style="fill:#606060"/><rect x="22.4" y="52.19" width="0.44" height="2.2" style="fill:#606060"/><rect x="23.06" y="51.79" width="0.42" height="3.02" style="fill:#606060"/><rect x="23.69" y="52.19" width="0.26" height="2.39" style="fill:#606060"/><rect x="24.14" y="51.79" width="0.44" height="3.02" style="fill:#606060"/><rect x="24.79" y="50.91" width="0.44" height="4.74" style="fill:#606060"/><rect x="25.46" y="50.24" width="0.42" height="6.31" style="fill:#606060"/><rect x="26.11" y="50.91" width="0.43" height="4.98" style="fill:#606060"/><rect x="26.84" y="51.79" width="0.34" height="3.02" style="fill:#606060"/><rect x="27.41" y="52.19" width="0.45" height="2.24" style="fill:#606060"/></svg>