<?xml version="1.0" encoding="utf-8"?>
<!-- Generator: Adobe Illustrator 22.0.0, SVG Export Plug-In . SVG Version: 6.00 Build 0)  -->
<svg version="1.1" id="Layer_1" xmlns="http://www.w3.org/2000/svg" xmlns:xlink="http://www.w3.org/1999/xlink" x="0px" y="0px"
	 width="200px" height="100px" viewBox="0 0 200 100" enable-background="new 0 0 200 100" xml:space="preserve">
<g>
	<path fill="#606060" d="M192.1,29.3c-61.4,0-122.8,0-184.3,0c-2.6,0.9-4.4,2.7-5.4,5.4c0,10.2,0,20.5,0,30.7
		c0.9,2.7,2.7,4.5,5.4,5.4c61.4,0,122.8,0,184.3,0c2.7-0.9,4.5-2.7,5.4-5.4c0-10.2,0-20.5,0-30.7C196.6,32,194.8,30.2,192.1,29.3z
		 M185.8,38.8c1.5,0,2.8,1.3,2.9,2.7c0.1,1.5-1.2,2.9-2.8,2.9c-1.5,0-2.8-1.2-2.9-2.7C183,40.2,184.3,38.8,185.8,38.8z M35.9,38.8
		c-4.1,0.1-7.6,1.4-10.6,4.1c-3.4,3.1-5.2,7-5.3,11.6c0,2.6,0,5.2,0,7.8c0,2-0.8,2.6-2.8,2.3c-3.7-0.6-6.5-3.8-6.8-7.7
		c-0.3-3.6,2.2-7.3,5.8-8.4c1.1-0.3,1.6-0.9,2.1-1.9c3.4-7,9-10.8,16.8-11.3c0.2,0,0.5,0,0.8,0C35.9,36.6,35.9,37.6,35.9,38.8z
		 M79.9,67.8c-13.8,0-27.7,0-41.5,0c-1.9,0-2.2-0.3-2.2-2.2c0-8.5,0-17.1,0-25.6c0-0.3,0-0.6,0-1.1c2.2-0.1,4.3,0.4,6.3,1.3
		c6.1,2.9,9.3,7.8,9.5,14.5c0.1,2.6,0,5.2,0,7.8c0,1.7,0.8,2.4,2.6,2.2c3.9-0.5,7-3.8,7.2-7.6c0.3-4.2-2.1-7.8-6.1-8.9
		c-0.8-0.2-1.2-0.6-1.6-1.4c-3.4-7.1-9-11.1-16.9-11.8c-0.3,0-0.6,0-0.9-0.1c-0.4-2.4,0-2.9,2.2-2.9c13.8,0,27.5,0,41.3,0
		c0.2,0,0.5,0,0.7,0c-9.2,3.2-13.1,11.5-13,18.1c0.2,7.9,4.8,14.3,13.2,17.4C80.3,67.8,80.1,67.8,79.9,67.8z M98.2,61.2
		c-1.3,0-2.6,0-3.9,0c-0.8,0-1-0.4-1-1.1c0-2.1,0-4.2,0-6.3c0-0.4,0-0.8,0-1.3c-2.4,0-4.7,0-7.1,0c0,1,0,2,0,3c0,1.5,0,3.1,0,4.6
		c0,0.8-0.3,1.1-1.1,1.1c-1.3,0-2.5,0-3.8,0c-0.9,0-1.1-0.3-1.1-1.2c0-6.7,0-13.4,0-20.1c0-0.9,0.2-1.3,1.2-1.2
		c1.2,0.1,2.4,0.1,3.7,0c0.9,0,1.1,0.3,1.1,1.1c0,2.1,0,4.2,0,6.3c0,0.4,0,0.8,0,1.2c2.4,0,4.6,0,7.1,0c0-2.4,0.1-4.8,0-7.2
		c0-1.2,0.3-1.6,1.5-1.5c1.1,0.1,2.3,0,3.4,0c0.7,0,1,0.3,1,1c0,6.8,0,13.6,0,20.5C99.2,61,98.9,61.3,98.2,61.2z M116,54.6
		c-3.2-0.1-6.3,0-9.5,0c0.3,2.3,3.1,3.5,4.8,2c0.9-0.8,1.8-0.9,2.9-0.9c0.9,0,1.8,0,2.8,0c-1.5,5.5-8.6,7.4-12.9,3.8
		c-2.9-2.5-3.7-6.4-2.1-9.7c1.6-3.3,5.4-5.1,9-4.3c3.7,0.8,6.4,4,6.5,7.7C117.5,54.3,117.1,54.6,116,54.6z M136.3,60.3
		c0,0.7-0.3,1-0.9,0.9c-1.1,0-2.3,0-3.4,0c-0.9,0-1.5-0.1-1.4-1.2c-3.6,2-7.1,1.5-9.5-1.4c-2.5-2.9-2.5-7.5-0.2-10.5
		c2.4-3,5.7-3.6,9.7-1.7c-0.1-1.1,0.6-1.2,1.5-1.2c1.1,0,2.2,0,3.3,0c0.7,0,1,0.2,1,1C136.2,51,136.2,55.6,136.3,60.3z M155.2,60.3
		c0,0.7-0.3,1-1,1c-1.1,0-2.3,0-3.4,0c-1.1,0-1.1,0-1.4-1.2c-3.2,2.4-7.3,1.1-9.2-1c-2.6-2.9-2.9-7.5-0.5-10.7
		c2.3-3.1,5.8-3.7,9.8-1.8c0-2.1,0.1-4.2,0-6.2c-0.1-1.3,0.4-1.7,1.6-1.6c1,0.1,2,0,3,0c0.8,0,1.1,0.2,1.1,1
		C155.2,46.6,155.2,53.4,155.2,60.3z M166,51.6c0,0.3-0.5,0.8-0.8,0.8c-2.3,0.1-4.5,0.1-6.8,0c-0.3,0-0.6-0.5-0.9-0.8
		c0,0,0-0.2,0-0.2c0-1.2,0.1-2.4,0.1-3.6c1.4-0.1,2.8-0.2,4.2-0.4c0,0,0,0.1,0,0.1c1.1,0,2.1,0,3.2,0c0.7,0,1.1,0.2,1.1,1
		C166,49.6,166.1,50.6,166,51.6z M179.5,44.2c-1.7-0.1-3.3,0-5.1,0c0,1.1,0,2,0,3.2c1.6,0,3.1,0,4.6,0c0.9,0,1.2,0.3,1.2,1.2
		c-0.1,1-0.1,2,0,3c0,0.9-0.3,1.1-1.2,1.1c-1.5,0-3.1,0-4.7,0c0,2.5-0.1,4.8,0,7.1c0,1.2-0.4,1.5-1.5,1.4c-1.2-0.1-2.4,0-3.6,0
		c-0.7,0-1-0.3-1-1c0-6.8,0-13.6,0-20.4c0-0.8,0.3-1,1.1-1c3.4,0,6.9,0,10.3,0c0.8,0,1.2,0.3,1.1,1.1c0,1-0.1,2,0,2.9
		C180.8,43.8,180.5,44.2,179.5,44.2z M187.6,61.3c-1.1-0.1-2.3,0-3.4,0c-0.8,0-1.1-0.2-1.1-1c0-3.9,0-7.9,0-11.8
		c0-0.8,0.3-1.1,1.1-1.1c1.2,0,2.4,0,3.5,0c0.9,0,1.1,0.3,1.1,1.2c0,1.9,0,3.9,0,5.8c0,1.9,0,3.8,0,5.7
		C188.8,61,188.4,61.3,187.6,61.3z"/>
	<path fill="#606060" d="M146.7,50.3c-1.6,0-2.9,1.3-2.9,3c0,1.7,1.3,3,3,3c1.6,0,2.9-1.3,2.8-3C149.6,51.6,148.3,50.3,146.7,50.3z"
		/>
	<path fill="#606060" d="M127.7,50.3c-1.6,0-2.9,1.3-3,2.9c0,1.7,1.3,3,3,3c1.6,0,2.9-1.3,2.9-3C130.6,51.6,129.4,50.3,127.7,50.3z"
		/>
	<path fill="#606060" d="M107,51c1.7,0,3.4,0,5.2,0C110.5,48.8,107.9,48.9,107,51z"/>
</g>
</svg>
