<?xml version="1.0" encoding="utf-8"?>
<!-- Generator: Adobe Illustrator 22.0.0, SVG Export Plug-In . SVG Version: 6.00 Build 0)  -->
<svg version="1.1" id="Layer_1" xmlns="http://www.w3.org/2000/svg" xmlns:xlink="http://www.w3.org/1999/xlink" x="0px" y="0px"
	 width="200px" height="100px" viewBox="0 0 200 100" enable-background="new 0 0 200 100" xml:space="preserve">
<g>
	<path fill="#606060" d="M122.2,74.2c0,0.2,0,0.3,0,0.5C122.2,74.5,122.3,74.4,122.2,74.2C122.3,74.2,122.2,74.2,122.2,74.2z"/>
	<path fill="#606060" d="M88.3,74.7c0,0,0,0.1,0,0.1c0-0.1,0-0.2,0-0.3C88.2,74.5,88.2,74.6,88.3,74.7z"/>
	<path fill="#606060" d="M130.3,13.8c0-0.1,0-0.2,0-0.4c-20.2,0-40.4,0-60.6,0c0,0.1,0,0.3,0,0.4c0,24.1,0,48.2,0,72.3
		c0,0.1,0,0.3,0,0.4c20.2,0,40.4,0,60.6,0c0-0.1,0-0.2,0-0.4C130.3,62.1,130.3,37.9,130.3,13.8z M80.6,75.4
		c-0.2,0.8-0.9,1.3-1.8,1.3c-0.3,0-0.6,0-0.9,0c0,1,0,1.9,0,2.9c0,0.4,0,0.4-0.4,0.4c-0.4,0-0.8,0-1.2,0c0-2.9,0-5.8,0-8.6
		c0,0,0,0,0.1,0c0.9,0,1.7,0,2.6,0.1c1,0.1,1.6,0.7,1.8,1.7C80.9,73.9,80.8,74.7,80.6,75.4z M85.8,79.2c-0.2,0.6-0.7,0.9-1.3,1
		c-0.5,0.1-1,0.1-1.5,0c-0.8-0.1-1.2-0.7-1.5-1.5c-0.3-1.1-0.3-2.2-0.3-3.4c0-0.7,0.1-1.5,0.2-2.2c0.3-1.6,1.3-2,2.8-1.8
		c1,0.1,1.5,0.7,1.6,1.8c0.1,0.4,0,0.9,0,1.3c0,0.1-0.1,0.2-0.2,0.2c-0.5,0-0.9,0-1.4,0c0-0.5,0-1.1-0.1-1.6c0-0.2-0.2-0.5-0.3-0.6
		c-0.2-0.2-0.6,0-0.7,0.2c-0.1,0.3-0.2,0.6-0.2,0.9c0,1.5,0,3,0,4.4c0,0.2,0.1,0.4,0.1,0.6c0.1,0.4,0.3,0.5,0.6,0.5
		c0.3,0,0.6-0.1,0.6-0.5c0.1-0.6,0.1-1.2,0.1-1.8c0-0.1,0-0.1,0-0.2c0.5,0,0.9,0,1.4,0c0.1,0,0.1,0.1,0.1,0.2
		C86.1,77.6,86.1,78.4,85.8,79.2z M93,80.1c-0.5,0-0.9,0-1.3,0c-0.1,0-0.2-0.2-0.2-0.3c0-0.6,0-1.3,0-1.9c0-1.2,0-2.5,0-3.2
		c-0.1,0.7-0.3,1.8-0.4,2.9c-0.1,0.8-0.3,1.5-0.4,2.3c0,0.2-0.1,0.3-0.3,0.2c-0.3,0-0.6,0-1,0c-0.2,0-0.2-0.1-0.3-0.2
		c-0.3-1.7-0.6-3.4-0.8-5.1c0,1.7,0,3.3,0,5c0,0.2-0.1,0.3-0.3,0.3c-0.4,0-0.8,0-1.2,0c0-2.9,0-5.8,0-8.7c0.7,0,1.3,0,2,0
		c0.1,0,0.1,0.1,0.2,0.2c0.2,1.3,0.4,2.6,0.7,4c0.1,0.5,0.2,1,0.3,1.5c0.1-0.5,0.2-1,0.3-1.6c0.2-1.3,0.4-2.6,0.7-3.8
		c0-0.2,0.1-0.3,0.3-0.3c0.6,0,1.2,0,1.8,0C93,74.3,93,77.2,93,80.1z M89.6,49.8c-0.9,0-1.9,0-2.8,0c-0.3,0-0.4,0.1-0.4,0.4
		c0,6,0,12,0,18c0,0.1,0,0.2,0,0.4c-3.4,0-6.7,0-10.1,0c0-0.2,0-0.3,0-0.4c0-15.8,0-31.6,0-47.4c0-0.2,0-0.3,0-0.5
		c0-0.1,0.1-0.2,0.2-0.2c0.1,0,0.2,0,0.3,0c4.2,0,8.4,0,12.6,0c1.3,0,2.6,0.1,3.9,0.5c3,0.9,4.7,2.8,5.2,5.8
		c0.2,0.9,0.2,1.8,0.2,2.7c0,4,0,8.1,0,12.1c0,1.5-0.2,3.1-0.9,4.5c-0.9,1.9-2.5,3.1-4.5,3.7C92.1,49.6,90.9,49.8,89.6,49.8z
		 M96.9,80.1c-0.1-0.4-0.2-0.8-0.2-1.3c0-0.2-0.1-0.3-0.4-0.3c-0.2,0-0.5,0-0.7,0c-0.2,0-0.3,0.1-0.3,0.2c0,0.4-0.1,0.7-0.2,1.1
		c0,0.2-0.1,0.2-0.3,0.2c-0.4,0-0.9,0-1.4,0c0.1-0.3,0.1-0.6,0.2-0.9c0.5-2.5,1-5.1,1.4-7.6c0-0.2,0.1-0.2,0.3-0.2
		c0.4,0,0.8,0,1.2,0c0.2,0,0.3,0.1,0.3,0.3c0.4,2.1,0.9,4.2,1.3,6.3c0.1,0.6,0.3,1.2,0.4,1.8c0,0.1,0,0.2,0.1,0.3
		C98,80.1,97.5,80.1,96.9,80.1z M103.6,80.1c-0.2,0-0.5,0.1-0.6,0c-0.2-0.1-0.3-0.4-0.4-0.5c0,0,0,0-0.1,0c-0.9,1.1-2.7,0.9-3.3-0.4
		c-0.3-0.7-0.4-1.4-0.4-2.2c0-1.3-0.1-2.6,0.2-3.8c0.4-1.6,2.1-2.4,3.5-1.6c0.5,0.3,0.8,0.8,0.9,1.3c0.1,0.4,0.1,0.9,0.1,1.4
		c0,0.1-0.1,0.2-0.2,0.2c-0.5,0-0.9,0-1.4,0c0-0.4,0-0.8-0.1-1.2c0-0.1,0-0.3-0.1-0.4c-0.1-0.2-0.2-0.4-0.5-0.4
		c-0.3,0-0.5,0.1-0.6,0.4c-0.1,0.4-0.2,0.8-0.2,1.2c0,1.4,0,2.7,0,4.1c0,0.2,0,0.3,0.1,0.4c0.1,0.4,0.3,0.6,0.7,0.6
		c0.4,0,0.7-0.2,0.8-0.6c0.1-0.6,0.1-1.1,0.2-1.7c-0.3,0-0.6,0-0.9,0c0-0.4,0-0.8,0-1.2c0.8,0,1.5,0,2.3,0
		C103.6,77.1,103.6,78.5,103.6,80.1z M106.1,80.1c-0.6,0-1.1,0-1.7,0c0,0-0.1-0.1-0.1-0.2c0-0.5,0-1,0-1.5c0-0.1,0.1-0.2,0.2-0.2
		c0.5,0,1,0,1.6,0C106.1,78.8,106.1,79.4,106.1,80.1z M111.1,79.2c-0.3,0.7-0.9,1-1.5,1c-0.4,0-0.8,0-1.2-0.1
		c-0.7-0.1-1.1-0.5-1.4-1.1c-0.3-0.8-0.4-1.6-0.4-2.4c0-1.2,0-2.3,0.2-3.5c0.3-1.7,2-2.5,3.6-1.6c0.5,0.3,0.7,0.7,0.8,1.2
		c0.1,0.6,0.1,1.1,0.1,1.7c0,0.1-0.1,0.2-0.2,0.2c-0.4,0-0.9,0-1.4,0c0-0.4,0-0.8,0-1.2c0-0.2-0.1-0.5-0.1-0.7
		c-0.1-0.2-0.2-0.4-0.5-0.4c-0.3,0-0.5,0.1-0.5,0.4c-0.1,0.2-0.1,0.5-0.2,0.8c-0.1,1.6-0.2,3.2,0,4.9c0,0.3,0.1,0.6,0.5,0.7
		c0.4,0.1,0.7,0,0.9-0.4c0.1-0.3,0.1-0.6,0.1-0.8c0-0.4,0-0.8,0-1.2c0,0,0,0,0,0c0.4,0,0.9,0,1.3,0c0.1,0,0.2,0.1,0.2,0.2
		C111.4,77.6,111.4,78.4,111.1,79.2z M116.7,78.3c-0.3,1.6-1.2,2.1-2.8,1.9c-0.9-0.1-1.5-0.6-1.7-1.4c-0.5-2-0.5-4,0-6
		c0.2-0.7,0.6-1.2,1.3-1.4c0.6-0.2,1.3-0.2,1.9,0.1c0.8,0.3,1.2,1,1.3,1.8c0.2,1,0.2,1.9,0.3,2.8C116.9,76.8,116.8,77.6,116.7,78.3z
		 M123.7,80.1c-0.5,0-0.9,0-1.4,0c0,0-0.1-0.2-0.1-0.3c0-1.1,0-2.2,0-3.3c0-0.6,0-1.1,0-1.7c-0.2,1.3-0.4,2.7-0.6,4
		c-0.1,0.4-0.1,0.8-0.2,1.2c0,0.2-0.1,0.2-0.3,0.2c-0.3,0-0.6,0-0.9,0c-0.2,0-0.2-0.1-0.3-0.2c-0.3-1.6-0.5-3.3-0.9-4.9
		c0,0.1,0,0.2,0,0.3c0,1.5,0,3,0,4.5c0,0.3-0.1,0.4-0.4,0.4c-0.4,0-0.7,0-1.1,0c0-2.9,0-5.8,0-8.7c0.7,0,1.3,0,2,0
		c0.1,0,0.1,0.1,0.2,0.2c0.2,1.1,0.4,2.1,0.5,3.2c0.1,0.7,0.3,1.5,0.4,2.3c0-0.1,0-0.2,0-0.3c0.3-1.7,0.6-3.4,0.9-5.1
		c0-0.2,0.1-0.3,0.3-0.3c0.6,0,1.2,0,1.8,0C123.7,74.3,123.7,77.2,123.7,80.1z M114.1,28c-0.1-0.9-0.7-1.3-1.6-1.3
		c-0.9,0-1.4,0.5-1.5,1.4c0,0.1,0,0.3,0,0.4c0,10.5,0,21,0,31.4c0,0.4,0.1,0.8,0.2,1.1c0.1,0.3,0.4,0.6,0.7,0.7
		c0.4,0.1,0.9,0.1,1.3,0c0.6-0.2,0.8-0.7,0.9-1.3c0-0.1,0-0.3,0-0.4c0-3.9,0-7.9,0-11.8c0-0.3,0.1-0.4,0.4-0.4c3,0,5.9,0,8.9,0
		c0.1,0,0.2,0,0.3,0c0,0.1,0,0.2,0,0.3c0,4,0,8.1,0,12.1c0,1.9-0.5,3.8-1.7,5.3c-1,1.3-2.3,2-3.9,2.5c-2,0.6-4,0.7-6.1,0.7
		c-1.8,0-3.5-0.3-5.2-0.8c-1.7-0.5-3.1-1.3-4.2-2.7c-1-1.3-1.5-2.8-1.7-4.4c0-0.5-0.1-1.1-0.1-1.6c0-10.2,0-20.4,0-30.6
		c0-1.8,0.4-3.4,1.4-4.9c1-1.5,2.4-2.4,4.1-3c1.5-0.6,3.1-0.8,4.7-0.9c1.5-0.1,2.9-0.1,4.3,0.1c2.1,0.3,4.2,0.8,5.9,2.3
		c1.3,1.2,2,2.6,2.3,4.3c0.1,0.7,0.2,1.4,0.2,2.1c0,3.5,0,7,0,10.4c0,0.3-0.1,0.4-0.4,0.4c-2.9,0-5.9,0-8.8,0c-0.4,0-0.4,0-0.4-0.4
		c0-3.5,0-7,0-10.5C114.1,28.3,114.1,28.1,114.1,28z"/>
	<path fill="#606060" d="M89.6,29.2c0-1.1-0.6-1.8-1.7-2C87.5,27,87.1,27,86.6,27c-0.1,0-0.2,0-0.2,0c0,5.2,0,10.5,0,15.8
		c0.4,0,0.7,0,1.1-0.1c1.5-0.2,2.1-0.9,2.1-2.5c0-2.8,0-5.6,0-8.5C89.6,30.9,89.6,30,89.6,29.2z"/>
	<path fill="#606060" d="M115.2,74.6c0-0.6-0.1-1.1-0.2-1.7c-0.1-0.4-0.3-0.6-0.7-0.6c-0.3,0-0.5,0.2-0.6,0.6c0,0.2-0.1,0.3-0.1,0.5
		c0,1.3-0.1,2.6,0,3.8c0,0.4,0.1,0.9,0.2,1.3c0.1,0.4,0.4,0.5,0.7,0.5c0.3,0,0.5-0.3,0.6-0.8c0.1-0.8,0.1-1.7,0.2-2.5c0,0,0,0,0,0
		C115.2,75.4,115.2,75,115.2,74.6z"/>
	<path fill="#606060" d="M95.5,77.3c0.3,0,0.5,0,0.8,0c-0.1-1.1-0.3-2.2-0.4-3.2C95.8,75.1,95.7,76.2,95.5,77.3z"/>
	<path fill="#606060" d="M77.9,72.6c0,1,0,1.9,0,2.9c0.7,0.1,1-0.2,1-0.6c0.1-0.5,0.1-1.1,0-1.6C78.9,72.7,78.5,72.5,77.9,72.6z"/>
</g>
</svg>
