<?xml version="1.0" encoding="utf-8"?>
<!-- Generator: Adobe Illustrator 23.0.6, SVG Export Plug-In . SVG Version: 6.00 Build 0)  -->
<svg version="1.1" id="Layer_1" xmlns="http://www.w3.org/2000/svg" xmlns:xlink="http://www.w3.org/1999/xlink" x="0px" y="0px"
	 width="200px" height="100px" viewBox="0 0 200 100" enable-background="new 0 0 200 100" xml:space="preserve">
<g>
	<path fill="#444444" d="M93.5,40.8c3.1-2.3,4-2.3,6.1,0.5c0.6-1.1,1.5-1.8,2.7-2c2.4-0.4,4.3,0.9,4.4,3.3c0.1,2.5,0.1,5,0.1,7.5
		c0,0.3-0.1,0.4-0.4,0.4c-1.5,0.1-1.5,0.1-1.5-1.4c0-2,0-4,0-6c0-1.9-1.6-3-3.3-2.2c-0.9,0.4-1.4,1.3-1.4,2.3c0,2.2,0,4.4,0,6.6
		c0,0.6-0.1,0.8-0.7,0.7c-1.3,0-1.3,0-1.3-1.2c0-2,0-4,0-6c0-1-0.2-2-1.3-2.4c-1.1-0.4-2.1,0-2.9,0.9c-0.3,0.3-0.4,0.7-0.4,1.1
		c0,2.3,0,4.6,0,7c0,0.6-0.1,0.8-0.7,0.7c-1.2,0-1.2,0-1.2-1.3c0-3.1,0-6.2,0-9.3c0-0.3-0.2-0.7,0.4-0.7c0.5,0.1,1.2-0.2,1.3,0.6
		C93.4,40.2,93.4,40.4,93.5,40.8z"/>
	<path fill="#444444" d="M147.8,49.1c-0.5,0.4-1,0.8-1.5,1.1c-2,1.2-4.6,0.5-5.5-1.4c-0.3-0.7-0.5-1.4-0.5-2.1c0-2.3,0-4.5,0-6.8
		c0-0.4,0.1-0.6,0.5-0.5c1.4,0,1.4,0,1.4,1.5c0,1.9,0,3.8,0,5.7c0.1,2.5,2,3.5,4.2,2.1c0.8-0.5,1.2-1.1,1.2-2.1
		c-0.1-2.1,0-4.3,0-6.4c0-0.5,0-0.8,0.7-0.7c1.3,0.1,1.3,0,1.3,1.4c0,3.1,0,6.2,0,9.2c0,0.2,0.2,0.7-0.3,0.6
		c-0.5-0.1-1.1,0.4-1.3-0.5C147.9,49.7,147.8,49.4,147.8,49.1z"/>
	<path fill="#444444" d="M154.3,64.3c0.6-1.5,1.2-2.8,1.7-4c0.1-0.3,0-0.7-0.1-1c-0.4-0.9-0.8-1.9-1.2-2.8c-0.1-0.2-0.4-0.5,0-0.6
		c0.3-0.1,0.8-0.3,1,0.3c0.3,0.8,0.6,1.6,0.9,2.3c0,0.1,0.1,0.2,0.2,0.4c0.5-0.8,0.7-1.7,1.1-2.4c0.1-0.2,0-0.5,0.3-0.5
		c0.3-0.1,0.6-0.1,0.9,0.1c0.2,0.1-0.1,0.4-0.1,0.6c-0.4,0.9-0.7,1.9-1.1,2.8c-0.1,0.3-0.2,0.6-0.1,0.9c0.5,1.3,1.1,2.6,1.6,3.9
		c0.3-0.1,0.4-0.4,0.5-0.6c1-2.4,2-4.7,3-7.1c0.2-0.5,0.4-0.6,0.9-0.6c0.5,0,0.6,0.2,0.4,0.6c-1.1,2.5-2.1,5-3.2,7.4
		c-0.2,0.4-0.4,0.9-0.5,1.3c-0.1,0.4-0.3,0.6-0.8,0.6c-0.5,0-0.7-0.2-0.8-0.6c-0.5-1.3-1.1-2.6-1.6-3.9c-0.1-0.1-0.1-0.3-0.2-0.4
		c-0.5,0.7-0.7,1.6-1,2.3c-0.3,0.6-0.5,1.3-0.8,1.9c-0.1,0.4-0.2,0.7-0.8,0.7c-0.5,0-0.7-0.3-0.9-0.7c-1.1-2.6-2.2-5.1-3.3-7.7
		c-0.1-0.2-0.2-0.5-0.3-0.7c-0.1-0.2-0.5-0.6,0-0.7c0.4-0.1,0.9-0.3,1.1,0.4c0.9,2.3,1.9,4.7,2.9,7C154,63.6,154.1,63.9,154.3,64.3z
		"/>
	<path fill="#444444" d="M79,41.6c0.9-1.6,1.9-2.5,3.5-2.4c0.3,0,0.6,0.1,0.9,0.2c0.4,0.1,0.5,0.3,0.4,0.7c0,0.2-0.1,0.4-0.1,0.7
		c-0.1,0.5-0.3,0.6-0.8,0.5c-1.7-0.4-2.8,0.2-3.6,1.7c-0.2,0.4-0.3,0.8-0.3,1.2c0,2,0,3.9,0,5.9c0,0.5-0.1,0.6-0.6,0.6
		c-1.4,0-1.4,0-1.4-1.3c0-3.1,0-6.2,0-9.2c0-0.2-0.2-0.7,0.3-0.6c0.5,0,1.2-0.3,1.3,0.5C78.9,40.3,78.9,40.8,79,41.6z"/>
	<path fill="#444444" d="M176.5,55.7c1.4,0,2.4,0.2,3.3,0.9c0.3,0.2,0.6,0.4,0.3,0.8c-0.3,0.4-0.5,0.3-0.8,0c-1.1-0.7-2.4-1-3.7-0.6
		c-0.8,0.2-1.2,0.8-1.2,1.6c0,0.8,0.5,1.1,1.2,1.3c1,0.3,2,0.5,3,0.8c1.8,0.5,2.5,1.5,2.1,3.2c-0.2,1.1-1,1.6-2,1.9
		c-1.9,0.6-3.7,0.3-5.4-0.8c-0.4-0.2-0.5-0.5-0.2-0.9c0.3-0.5,0.5-0.2,0.8,0c1.4,0.9,2.8,1.2,4.4,0.7c0.8-0.2,1.2-0.8,1.2-1.6
		c0-0.8-0.5-1.2-1.2-1.4c-1.1-0.4-2.3-0.7-3.5-1c-0.8-0.3-1.5-0.6-1.6-1.6c-0.1-1.1,0.2-2.1,1.1-2.8C175,55.8,175.9,55.7,176.5,55.7
		z"/>
	<path fill="#444444" d="M107.8,63.6c-0.2,0.5-0.4,1-0.6,1.6c-0.2,0.5-0.5,0.6-1,0.7c-0.6,0-0.8-0.2-1-0.7c-1.1-2.8-2.3-5.7-3.4-8.5
		c-0.1-0.2-0.5-0.6,0-0.7c0.4-0.1,0.9-0.3,1.2,0.3c0.6,1.6,1.2,3.1,1.8,4.7c0.3,0.8,0.6,1.6,0.9,2.4c0.2,0.3,0.2,0.7,0.5,1
		c0.3-0.1,0.3-0.4,0.4-0.6c1-2.5,2-5,2.9-7.5c0.2-0.6,0.8-0.4,1.1-0.3c0.5,0.1,0.1,0.5,0,0.7c-0.7,1.7-1.4,3.5-2.1,5.2
		C108.2,62.4,108,63,107.8,63.6z"/>
	<path fill="#444444" d="M86.2,44.8c0-1.6,0-3.3,0-4.9c0-0.5,0.1-0.7,0.6-0.7c1.4,0.1,1.3,0,1.3,1.3c0,3,0,6.1,0,9.1
		c0,0.6-0.1,0.8-0.8,0.8c-1.2,0-1.2,0-1.2-1.2C86.2,47.9,86.2,46.3,86.2,44.8C86.2,44.8,86.2,44.8,86.2,44.8z"/>
	<path fill="#444444" d="M165.4,44.9c0-1.7,0-3.3,0-5c0-0.5,0.1-0.7,0.6-0.7c1.3,0.1,1.3,0,1.3,1.4c0,3,0,6.1,0,9.1
		c0,0.6-0.2,0.7-0.7,0.7c-1.2,0-1.2,0-1.2-1.3C165.4,47.8,165.4,46.4,165.4,44.9z"/>
	<path fill="#444444" d="M120.2,60.8c0-1.4,0-2.9,0-4.3c0-0.6,0.2-0.7,0.7-0.6c0.4,0,0.7,0.1,0.7,0.6c0,2.9,0,5.8,0,8.7
		c0,0.5-0.2,0.7-0.7,0.7c-0.5,0-0.7-0.2-0.7-0.7C120.3,63.7,120.2,62.2,120.2,60.8z"/>
	<path fill="#444444" d="M166.4,37.2c-0.7,0-1.3-0.6-1.4-1.3c0-0.8,0.7-1.5,1.5-1.4c0.7,0,1.3,0.7,1.3,1.5
		C167.8,36.6,167.2,37.2,166.4,37.2z"/>
	<path fill="#444444" d="M88.6,35.8c0,0.8-0.6,1.4-1.3,1.4c-0.8,0-1.4-0.6-1.4-1.4c0-0.7,0.7-1.4,1.4-1.4C88,34.4,88.6,35,88.6,35.8
		z"/>
	<path fill="#444444" d="M121.6,52.8c-0.1,0.3,0.3,1-0.6,1c-0.6,0-0.9-0.1-0.8-0.7c0-0.2,0-0.4,0-0.6c-0.1-0.6,0.3-0.6,0.7-0.6
		c0.5,0,0.7,0.2,0.6,0.6C121.6,52.6,121.6,52.7,121.6,52.8z"/>
	<path fill="#444444" d="M106.6,63.7c0,0.3,0,0.7-0.4,0.8c-0.3,0-0.3-0.4-0.4-0.7c-0.1-0.2-0.1-0.3-0.1-0.5c0.3,0.2,0.2,0.6,0.5,0.8
		C106.3,64,106.4,63.8,106.6,63.7z"/>
	<path fill="#444444" d="M107.8,63.6c0.1-0.7,0.3-1.3,0.7-1.8C108.4,62.4,108.1,63,107.8,63.6z"/>
	<path fill="#444444" d="M42.6,42.2c-0.3-0.1-0.4,0-0.6,0.3c-1.9,5.7-3.9,11.4-5.8,17.1c-0.2,0.5-0.4,0.6-0.9,0.5
		c-1.4-0.2-2.8-0.6-4.2-0.6c-1,0-1.5,0.1-2.4,0.5c-1.4,0.6-1.8,1.9-1,3.3c0.4,0.7,1,1.2,1.6,1.7c1.3,0.9,2.7,1.6,4.3,1.3
		c1.9-0.4,3-1.7,3.7-3.5c2.3-6.2,4.2-12.5,6.2-18.9C44.1,42.5,44.1,42.5,42.6,42.2z M32.8,64.4c-0.9,0-1.4-0.6-1.4-1.5
		c0-0.9,0.6-1.5,1.5-1.4c0.8,0,1.5,0.7,1.5,1.5C34.4,63.8,33.7,64.5,32.8,64.4z"/>
	<path fill="#444444" d="M138.4,49.2c-1.8-4.5-3.6-9-5.4-13.5c-0.3-0.8-0.6-1.3-1.5-1c-0.4,0.2-0.9-0.4-1.2,0.3
		c-1.9,4.9-3.9,9.8-5.8,14.6c-0.3,0.8-0.3,0.8,0.6,0.8c1.3,0,1.3,0,1.7-1.2c0.4-0.9,0.7-1.8,1.1-2.8c0.1-0.4,0.3-0.4,0.6-0.4
		c2,0,4.1,0,6.1,0c0.4,0,0.6,0.1,0.7,0.5c0.4,1,0.8,2.1,1.2,3.1c0.2,0.5,0.5,0.8,1,0.8C139,50.6,138.9,50.6,138.4,49.2z M133.7,44.7
		c-1.5,0-3.1,0-4.6,0c-0.4,0-0.6,0-0.4-0.5c0.9-2.4,1.9-4.8,2.8-7.2c0.9,2.3,1.8,4.6,2.7,6.9C134.4,44.5,134.4,44.7,133.7,44.7z"/>
	<path fill="#444444" d="M74.7,39.4c-0.1-2.5-1.6-4.1-4.2-4.5c-1.9-0.3-3.9-0.1-5.8-0.2c-0.5,0-0.5,0.2-0.5,0.6c0,2.4,0,4.9,0,7.3
		c0,0,0,0,0,0c0,2.1,0,4.2,0,6.4c0,1.7,0,1.7,1.7,1.6c0.4,0,0.5-0.1,0.5-0.5c0-1.6,0-3.2,0-4.8c0-0.5,0.1-0.6,0.6-0.6
		c1.3,0,2.6,0.1,3.9-0.2C73.3,43.8,74.8,42,74.7,39.4z M70.8,42.5c-1.1,0.5-2.3,0.4-3.4,0.4c-1.2,0-1.2,0-1.2-1.1c0-0.7,0-1.4,0-2.1
		c0-0.9,0-1.7,0-2.6c0-0.4,0.1-0.7,0.6-0.6c1.2,0.1,2.5-0.1,3.7,0.3c1.3,0.4,1.9,1.3,2,2.8C72.6,40.8,72,41.9,70.8,42.5z"/>
	<path fill="#444444" d="M161.9,49.8c0-4.7,0-9.4,0-14.1c0-1.4,0-1.4-1.4-1.4c-0.5,0-0.6,0.1-0.6,0.6c0,1.8,0,3.6,0,5.5
		c-0.2-0.1-0.3-0.2-0.4-0.3c-1.4-1.4-4.6-1.4-6.3,0.9c-1.5,2.1-1.5,4.4-0.8,6.8c0.9,3,4.1,3.9,6.6,2c0.3-0.3,0.6-0.5,0.9-0.8
		c0.2,0.3,0.2,0.6,0.2,1c0.1,0.9,0.8,0.6,1.3,0.6C162.1,50.6,161.9,50.1,161.9,49.8z M160,44.8c0,0.5,0,1.1,0,1.6
		c0,1.4-1.1,2.5-2.5,2.7c-1.6,0.2-2.7-0.5-3.1-2c-0.4-1.7-0.5-3.3,0.3-4.9c0.9-1.8,3.8-2.1,5.1-0.5c0.2,0.2,0.2,0.5,0.2,0.8
		C160,43.2,160,44,160,44.8z"/>
	<path fill="#444444" d="M180.5,43.1c-0.5-2-1.7-3.3-3.7-3.8c-2.2-0.5-4.2-0.1-5.6,1.8c-1,1.3-1.2,2.9-1.1,4.5
		c0.3,4.4,4.3,5.9,7.5,4.6c2.3-0.9,3-2.9,3.1-5.2C180.7,44.4,180.6,43.7,180.5,43.1z M177.9,48c-1.3,1.7-4.5,1.4-5.3-0.6
		c-0.6-1.5-0.7-3.1-0.1-4.6c0.5-1.5,1.6-2.2,3.3-2.1c1.4,0.1,2.4,0.9,2.8,2.4c0.2,0.6,0.2,1.2,0.2,1.8
		C178.7,46.1,178.5,47.1,177.9,48z"/>
	<path fill="#444444" d="M112.4,39.4c-2.4,0.8-3.7,3-3.4,5.8c0.2,2.1,0.9,4,3,4.9c2.1,0.9,4.2,0.6,6.1-0.6c0.2-0.2,0.8-0.3,0.4-0.9
		c-0.3-0.5-0.6-0.8-1.2-0.4c-0.2,0.2-0.5,0.3-0.7,0.4c-2.6,1.1-5.3,0.2-5.6-3.1c0-0.4,0.1-0.6,0.5-0.6c1.1,0,2.2,0,3.3,0
		c1.1,0,2.2,0,3.2,0c0.6,0,0.8-0.2,0.8-0.8C119,40.6,115.8,38.3,112.4,39.4z M116.6,43.7c-0.9,0-1.7,0-2.6,0c0,0,0,0,0,0
		c-0.8,0-1.7,0-2.5,0c-0.3,0-0.4-0.1-0.4-0.4c0.1-1.5,1.5-2.7,3.2-2.7c1.6,0,2.7,1.1,2.8,2.7C117.1,43.7,116.9,43.7,116.6,43.7z"/>
	<path fill="#444444" d="M73.5,64.9c-0.8-1.3-1.6-2.5-2.4-3.7c-0.2-0.3-0.3-0.6,0.2-0.8c1.6-0.7,2.4-2,2.4-3.7
		c0.1-2.3-1.5-4.2-3.8-4.4c-1.8-0.1-3.5,0-5.3-0.1c-0.6,0-0.6,0.2-0.6,0.7c0,2,0,4.1,0,6.1c0,2,0,4.1,0,6.1c0,0.5,0.1,0.6,0.6,0.6
		c0.5,0,0.8-0.1,0.7-0.6c0-1,0-2,0-3c0-1.6-0.3-1.3,1.4-1.5c2-0.3,3.2,0.5,4,2.3c0.4,0.9,1,1.6,1.5,2.4c0.4,0.5,1,0.5,1.4,0.3
		C74.2,65.5,73.7,65.2,73.5,64.9z M69.7,59.6c-1.3,0-2.5,0-3.8,0c-0.5,0-0.6-0.2-0.6-0.6c0-0.8,0-1.6,0-2.4c0,0,0,0,0,0
		c0-0.9,0-1.7,0-2.6c0-0.4,0.1-0.5,0.5-0.5c1.3,0,2.7,0,4,0c1.5,0.1,2.6,1.5,2.6,3.2C72.4,58.3,71.3,59.5,69.7,59.6z"/>
	<path fill="#444444" d="M93.1,59.8c-0.3-3.1-4-5.1-6.9-3.8c-2.9,1.4-3.6,5-2.2,7.5c1.6,2.9,6.1,3.3,8.1,0.7
		c0.2-0.2,0.5-0.5,0.2-0.7c-0.3-0.2-0.7-0.5-1.1,0.1c-0.9,1.3-2.2,1.7-3.7,1.3c-1.5-0.4-2.3-1.5-2.7-3c-0.1-0.5,0.1-0.5,0.5-0.5
		c1.2,0,2.4,0,3.6,0c0,0,0,0,0,0c0.9,0,1.9,0,2.8,0c0,0,0.1,0,0.1,0C93.4,61.3,93.3,61.4,93.1,59.8z M91.3,60.3c-1,0-2.1,0-3.1,0
		c0,0,0,0,0,0c-1,0-2,0-3,0c-0.5,0-0.7-0.1-0.6-0.6c0.4-1.6,1.7-3,3.6-3c1.7,0,3.3,1.3,3.5,3C92,60.2,91.8,60.3,91.3,60.3z"/>
	<path fill="#444444" d="M135.3,55.8c-3.1,0.7-4.8,3.9-3.5,7.1c0.6,1.6,1.9,2.7,3.7,3c1.8,0.3,3.5-0.2,4.7-1.7
		c0.2-0.2,0.4-0.4,0.2-0.7c-0.2-0.2-0.5-0.2-0.8-0.2c-0.2,0-0.3,0.3-0.4,0.5c-0.9,1-2.5,1.5-3.8,1c-1.4-0.5-2.1-1.5-2.4-2.9
		c-0.1-0.4,0.1-0.6,0.5-0.6c1.2,0,2.5,0,3.7,0c0,0,0,0,0,0c1.2,0,2.4,0,3.5,0c0.5,0,0.7-0.1,0.7-0.7
		C141.3,57.5,138.3,55.1,135.3,55.8z M139.3,60.3c-1,0-2,0-3,0c0,0,0,0,0,0c-1,0-2.1,0-3.1,0c-0.4,0-0.5-0.1-0.4-0.5
		c0.3-1.8,1.7-3,3.5-3.1c1.7-0.1,3.2,1.2,3.6,2.9C140,60.1,139.9,60.3,139.3,60.3z"/>
	<path fill="#444444" d="M39.1,39.4c-1.8-3.7-6.5-6.2-10.7-5.7c-0.9,0.1-1.8,0.3-2.6,0.6c-1.8,0.7-2.9,2.1-2.8,4.2
		c0.1,6.6,0.1,13.2,0.1,19.7c0,1.4,0,1.4-1.3,1.7c0,0-0.1,0-0.1,0c-1.3,0.3-2.3,1.5-2.3,2.9c0,1.4,1,2.7,2.2,3.1
		c1.4,0.4,2.8-0.2,3.5-1.4c0.4-0.7,0.5-1.4,0.5-2.1c0-3.2,0-6.4,0-9.6c0,0,0,0,0,0c0-3.3,0-6.6,0-9.9c0-0.5,0.1-0.7,0.7-0.6
		c3.1,0.5,5.3-1.8,4.9-4.8c-0.2-1.3-0.1-1.3,1.2-0.9c0,0,0.1,0,0.1,0c3,1.1,4.9,3.2,5.3,6.3c0.4,3.1-0.8,5.6-3.4,7.3
		c-1.3,0.9-2.8,1.3-4.4,1.4c-1,0.1-1.4,0.5-1.4,1.3c0,0.8,0.4,1.1,1.4,1.1c1.3,0,2.6-0.3,3.8-0.8C39.2,51,41.7,44.7,39.1,39.4z
		 M22.3,64.4c-0.8,0-1.5-0.8-1.5-1.6c0-0.8,0.8-1.4,1.6-1.4c0.9,0,1.5,0.7,1.5,1.5C23.9,63.9,23.2,64.5,22.3,64.4z M27.2,40.5
		c-1.3,0-2.3-0.8-2.3-2.1c0-1.3,0.9-2.3,2.2-2.3c1.2,0,2.2,1,2.2,2.2C29.3,39.6,28.4,40.5,27.2,40.5z"/>
	<path fill="#444444" d="M53.1,64c-1.8-6.8-3.6-13.6-5.3-20.4c-0.4-1.7-0.4-1.7,1.2-2.3c0.9-0.4,1.9-0.7,2.4-1.5
		c1.1-1.6,0.5-4-1.2-5.1c-1.5-0.9-3.9-0.2-5.1,1.4c-1,1.4-1,3-0.6,4.7c1.1,4.6,2.3,9.2,3.4,13.7c0.2,0.6,0.1,0.9-0.6,0.9
		c-1.3,0.1-2.5,0.2-3.8,0.3c-0.2,0-0.4-0.1-0.5,0.2c0,0.2,0.1,0.3,0.3,0.4c0.9,0.9,1.8,1.7,2.7,2.6c2.5,2.4,5,4.7,7.4,7.1
		c0,0,0.1,0,0.1-0.1C53.4,65.2,53.2,64.6,53.1,64z M45.9,38c0-0.9,0.5-1.8,1.4-2.1c0.8-0.3,1.5-0.1,1.7,0c1.2,0.4,1.6,1.6,1.4,2.6
		c-0.3,1.2-1.3,1.9-2.5,1.8C46.7,40.1,45.9,39,45.9,38z"/>
</g>
<g>
</g>
<g>
</g>
<g>
</g>
<g>
</g>
<g>
</g>
<g>
</g>
<g>
</g>
<g>
</g>
<g>
</g>
<g>
</g>
<g>
</g>
<g>
</g>
<g>
</g>
<g>
</g>
<g>
</g>
</svg>
