<?xml version="1.0" encoding="utf-8"?>
<!-- Generator: Adobe Illustrator 22.0.0, SVG Export Plug-In . SVG Version: 6.00 Build 0)  -->
<svg version="1.1" id="Layer_1" xmlns="http://www.w3.org/2000/svg" xmlns:xlink="http://www.w3.org/1999/xlink" x="0px" y="0px"
	 width="200px" height="100px" viewBox="0 0 200 100" enable-background="new 0 0 200 100" xml:space="preserve">
<g>
	<path fill="#929292" d="M38.4,50c-1.6,1-3,1-4.5-0.2c-1.9-1.4-2.8-3.3-3.2-5.5c-0.5-3.1,0.2-4.4,2.9-5.8c-1-0.6-2.1-0.8-3.2-0.5
		c-1.8,0.5-2.5,1.9-3,3.7c-2.1-0.8-4.2-1.7-6.2-2.4c-0.7-0.3-1.5-0.6-2.3-0.6c-1.4,0.1-3,0.3-4.2,0.9c-3.2,1.5-6.3,3.3-9.4,5
		c-1.2,0.7-2.2,1.6-2.7,3c0,0.8,0,1.7,0,2.5C3,51.1,3.3,52.2,4,53c1.2,1.7,3.3,1.5,4.4-0.3c0.4-0.7,0.1-1.3,0.3-1.9
		c0.3-1.7,0.7-3.5,1.2-5.2c0.1-0.2,0.8-0.4,1.2-0.4c0.3,0,0.5,0.4,0.8,0.6c1.4,1.3,3.1,2.2,5,2.6c3.2,0.6,6.2-1.4,6.5-4.5
		c0.1-0.5,0-1.1,0-1.7c0.5,0.1,1,0.3,1.4,0.4c1.8,0.2,2.5,1.1,2.7,3c0.4,3.3,2.2,6,5.3,7.5C35.6,54.4,38,52.9,38.4,50z"/>
	<path fill="#606060" d="M193.2,48.2c-1-0.4-2-0.7-2.9-1.1c-0.7-0.3-1.4-0.5-2.1-0.9c-1.6-1-1.6-3.1,0-4.2c2-1.3,5.1-0.8,6.5,1.2
		c0.1,0.2,0.3,0.4,0.4,0.6c0.7-0.3,1.3-0.5,2-0.8c-0.2-0.4-0.3-0.6-0.5-0.9c-1.9-2.9-6-3.8-9.2-2.2c-1.6,0.8-2.7,2.1-2.8,4
		c-0.1,2,0.9,3.3,2.5,4.2c0.8,0.4,1.7,0.8,2.6,1.1c1.2,0.5,2.4,0.9,3.5,1.4c1.1,0.5,1.8,1.5,1.7,2.8c-0.1,1.3-0.9,2.1-2,2.6
		c-2.6,1.1-5.4,0.2-6.9-2.2c-0.1-0.2-0.2-0.3-0.4-0.6c-0.6,0.3-1.2,0.6-1.9,0.9c0.2,0.4,0.3,0.8,0.5,1.1c1.8,2.7,4.4,3.6,7.5,3.3
		c2.9-0.3,5-1.8,5.7-4.7c0-0.3,0-0.6,0-1C197.1,50.4,195.4,49.1,193.2,48.2z"/>
	<path fill="#929292" d="M28.3,54.5c-0.1,0-0.4,0.1-0.5,0.3c-0.3,0.6-0.6,1.3-0.9,1.9c-0.9,1.6-1.6,3.3-2.8,4.7
		c-2.4,3-5.7,4.1-9.4,4.1c-1.2,0-1.9-0.6-2.4-1.7c-0.3-0.9-0.8-1.8-1.3-2.6c-1.1-1.7-2.2-3.4-3.3-5.1c-0.1-0.2-0.4-0.3-0.6-0.3
		c-0.7,0-1.5,0-2.4,0c0.3,0.5,0.5,0.9,0.8,1.3c0.9,1,1.8,2,2.8,2.9c1.7,1.5,2.6,3.3,3.2,5.4c0.1,0.5,0.4,0.9,0.7,1.3
		c1,1.4,2.4,1.3,3.9,1c0.7-0.1,1.5-0.5,2-0.3c0.5,0.3,0.7,1.2,1.2,1.8c0.5,0.7,1,1.3,1.5,1.9c0.1-0.1,0.2-0.1,0.3-0.2
		c0-0.4,0-0.7,0-1.1c-0.1-1-0.2-2-0.3-3c0-0.3,0.2-0.6,0.5-0.8c0.8-0.4,1.6-0.8,2.4-1.2c0,0.4,0.1,0.7,0.1,1.1c-0.2,2-0.4,4-0.6,6.1
		c0,0.5,0.1,1.1,0.2,1.6c0.2,0,0.4,0,0.6,0c0.2-0.5,0.6-1.1,0.7-1.6c1.3-5.4,2.7-10.8,4-16.2c0.1-0.2,0.1-0.5,0-0.8
		C28.5,54.8,28.4,54.5,28.3,54.5z"/>
	<path fill="#929292" d="M19.8,27.4c2.7,0.3,4.8,1.6,6.3,3.8c0.8,1.1,3,1.4,4.5,0.6c-0.3-0.4-0.5-0.8-0.9-1.1
		c-2.2-2-4.6-3.7-7.6-4.2c-0.7,0-1.4,0-2.1,0c-0.4,0.2-0.8,0.3-1.2,0.5c0.2,0.2,0.2,0.2,0.3,0.2C19.3,27.3,19.5,27.4,19.8,27.4z"/>
	<path fill="#929292" d="M3.7,44c0.6-0.3,1.1-0.8,1-1.6c-0.1-1.4-0.2-2.8-0.3-4.1c0-0.2-0.1-0.4-0.1-0.7c-0.1,0-0.2-0.1-0.3-0.1
		c-0.3,0.7-0.7,1.3-0.9,2c-0.3,0.8-0.4,1.6-0.6,2.5c0,0.7,0,1.4,0,2.1C2.9,44,3.4,44.2,3.7,44z"/>
	<path fill="#606060" d="M183.1,39.4c-1.1-0.2-1.7,0.3-2.2,1.2c-1.4,2.1-2.9,4.1-4.3,6.2c-0.1,0.2-0.3,0.4-0.5,0.6
		c-0.2-0.3-0.4-0.5-0.6-0.7c-1.5-2.2-3.1-4.4-4.6-6.5c-0.2-0.2-0.4-0.6-0.7-0.6c-1.6-0.1-3.2,0-4.9,0c0,0.5,0,0.8,0,1.2
		c0,3.6,0,7.3,0,10.9c0,2.6-1.2,4.3-3.4,4.9c-3.6,1-6.6-1.2-6.6-4.9c0-3.7,0-7.4,0-11c0-0.3,0-0.7,0-1c-0.9,0-1.6,0-2.4,0
		c0,3.2,0,6.4,0,9.7c-2.3,0-4.5,0-6.7,0c0,0.7,0,1.3,0,2c1.4,0,2.6,0,4,0c-0.4,2.3-1.6,3.9-3.7,4.7c-3.4,1.3-7.3-0.3-8.9-3.6
		c-1.7-3.5-0.6-7.6,2.6-9.6c2.8-1.8,5.8-1.4,8.9,1c0.5-0.5,1-1.1,1.5-1.6c-1.2-1.3-2.7-2.2-4.3-2.6c-4.4-1-9,1.3-10.9,5.5
		c-1.9,4.3-0.5,9.4,3.4,12c4.8,3.3,11.1,1.7,13.2-3.4c0.4-0.9,0.5-1.9,0.8-2.9c0.1,0.7,0.1,1.3,0.2,2c0.2,1.7,0.9,3.2,2.2,4.3
		c2.6,2.1,5.6,2.4,8.6,1.1c2.8-1.2,3.9-3.6,4-6.6c0-3.6,0-7.1,0-10.7c0-0.3,0-0.6,0.1-1.2c2.4,3.4,4.6,6.5,6.8,9.7
		c0.2,0.3,0.2,0.7,0.2,1.1c0,2.4,0,4.8,0,7.2c0,0.3,0,0.7,0,1c0.8,0,1.5,0,2.3,0c0-0.4,0-0.8,0-1.1c0-2.4,0-4.8,0-7.1
		c0-0.4,0.2-0.9,0.4-1.3c1.5-2.2,3-4.3,4.6-6.5c0.7-0.9,1.3-1.9,2.1-3C183.8,39.4,183.4,39.4,183.1,39.4z"/>
	<path fill="#606060" d="M74.9,39.2c-5.4,0-9.7,4.3-9.7,9.8c0,5.4,4.3,9.8,9.8,9.8c5.4,0,9.7-4.3,9.7-9.7
		C84.6,43.5,80.3,39.2,74.9,39.2z M74.1,54.9c-0.5-0.1-1-0.3-1.5-0.5c-2.3-1.2-3.4-3.9-2.9-6.8c0.5-2.5,2.4-4.3,4.8-4.6
		c2.6-0.3,5,1.5,5.6,4.3c0.1,0.6,0.2,1.1,0.2,1.7C80.3,52.8,77.6,55.5,74.1,54.9z"/>
	<path fill="#606060" d="M113,49.6c-0.1,0-0.2,0.1-0.2,0.1c-3.7-3.5-7.4-7-11.1-10.5c-0.1,0.1-0.1,0.1-0.2,0.2c0,6.3,0,12.6,0,19
		c1.3,0,2.6,0,3.9,0c0-3.5,0-6.9,0-10.5c3.8,3.7,7.5,7.1,11.2,10.6c0.1-0.1,0.1-0.1,0.2-0.2c0-6.3,0-12.7,0-19c-1.3,0-2.5,0-3.8,0
		C113,42.9,113,46.2,113,49.6z"/>
	<path fill="#606060" d="M124.9,39.4c-2,0-4,0-6,0c-0.3,0-0.7,0-1,0c0,6.4,0,12.7,0,19.1c2.6,0,5.1,0.1,7.5,0
		c5.2-0.2,9-4.6,8.9-10.1C134.2,43.5,129.9,39.4,124.9,39.4z M125.9,55.1c-1.3,0.2-2.6,0-4.1,0c0-4.2,0-8.3,0-12.4
		c1.4,0,2.8-0.2,4.2,0c2.5,0.4,3.9,2,4.4,4.4C131.3,51.1,129.3,54.6,125.9,55.1z"/>
	<path fill="#606060" d="M100.7,40.4c0-0.3,0-0.6,0-0.9c-1.3,0-2.6,0-3.8,0c0,0.5,0,0.8,0,1.2c0,3.6,0,7.2,0,10.9
		c0,1.4-0.5,2.6-1.7,3.3c-1.4,0.8-2.9,0.8-4.4,0.1c-1.4-0.7-1.9-2-1.9-3.5c0-3.6,0-7.3,0-10.9c0-0.3,0-0.7,0-1c-1.3,0-2.5,0-3.7,0
		c0,0.2-0.1,0.3-0.1,0.4c0,4.1,0,8.1,0,12.2c0,1.7,0.7,3.3,2,4.5c2.3,2.2,6,2.9,9.1,1.6c3.1-1.3,4.4-3.8,4.4-7.1
		C100.7,47.4,100.7,43.9,100.7,40.4z"/>
	<path fill="#606060" d="M63.4,48.8c-1.2-0.9-2.8-1.5-4.2-2.2c-0.7-0.3-1.5-0.5-2.2-0.9c-0.4-0.3-0.9-1-0.9-1.5
		c0-0.5,0.6-1.1,1.1-1.4c1.3-0.7,2.9-0.3,3.9,0.8c0.2,0.2,0.5,0.4,0.8,0.3c1-0.3,1.9-0.6,2.9-1c-1.8-3.8-7.1-5-10.5-2.6
		c-2.8,2-3,5.8-0.2,7.8c0.9,0.7,2.1,1.2,3.2,1.7c1,0.5,2.2,0.8,3.1,1.4c1.5,0.9,1.4,3.1-0.3,3.7c-0.7,0.3-1.5,0.4-2.3,0.3
		c-1.6-0.1-2.6-1.1-3.4-2.5c-1.1,0.5-2.1,0.9-3.3,1.5c0.6,0.8,1,1.6,1.6,2.2c2.4,2.5,7,3,10.1,1.1C66.1,55.6,66.4,51.2,63.4,48.8z"
		/>
	<path fill="#929292" d="M33.8,57c-0.1-0.4,0-0.8-0.2-1.2c-0.1-0.3-0.5-0.5-0.7-0.7c-0.2,0.3-0.5,0.6-0.5,0.9
		c0.4,2.6,0.7,5.3,1.4,7.8c0.7,2.6,5,3.8,7.6,2.2c-0.5-0.3-0.8-0.6-1.2-0.7C36.4,63.7,34.4,60.9,33.8,57z"/>
	<path fill="#929292" d="M31.7,42.3c0,0.4-0.1,0.8,0,1.1c0.3,2.4,1.3,4.4,3.5,5.6c1.6,0.9,3.5-0.1,3.5-1.7c-0.9,0.5-1.7,0.8-2.7,0.4
		c-2-0.8-3.5-4.2-2.7-6.2c0.3-0.8,1-1.3,1.8-0.9c0.8,0.4,1.6,0.9,2.2,1.6c1.1,1.4,1.3,3,0.8,4.9c1-0.6,1.2-1,1.2-2.1
		c0-1.5-0.5-2.8-1.2-4c-0.8-1.4-2.4-1.9-4.2-1.5C32.7,39.7,31.8,40.8,31.7,42.3z"/>
	<path fill="#929292" d="M28.1,32.7c-0.8,0-1,0.3-0.7,1c0.4,0.9,0.7,1.9,1.2,2.7c0.3,0.4,0.9,0.6,1.4,0.8c0.4,0.1,0.8,0,1.2,0
		c0,0,0,0,0,0c0.3,0,0.7,0,1,0c1.2,0,1.4-0.3,0.9-1.4C31.8,32.9,31,32.6,28.1,32.7z"/>
</g>
</svg>
