<?xml version="1.0" encoding="utf-8"?>
<!-- Generator: Adobe Illustrator 22.0.0, SVG Export Plug-In . SVG Version: 6.00 Build 0)  -->
<svg version="1.1" id="Layer_1" xmlns="http://www.w3.org/2000/svg" xmlns:xlink="http://www.w3.org/1999/xlink" x="0px" y="0px"
	 width="200px" height="100px" viewBox="0 0 200 100" enable-background="new 0 0 200 100" xml:space="preserve">
<g>
	<path fill="#939393" d="M19,60.1c-0.5,0-0.9,0-1.3,0c-0.7,0.1-1.5,0-2.2-0.2c-0.7-0.2-1.1-0.8-1.3-1.5c-0.1-0.3-0.1-0.6-0.1-1
		c0-3.3,0-6.6,0-9.9c0-0.7,0.1-0.7,0.8-0.7c1.1,0,2.3,0,3.4,0c0.7,0,0.7,0,0.7-0.7c0-1.1,0-2.3,0-3.4c0-0.7,0-0.7-0.7-0.7
		c-1.2,0-2.3,0-3.5,0c-0.6,0-0.6-0.1-0.7-0.6c0-0.2,0-0.3,0-0.5c0-1.8,0-3.5,0-5.3c0-0.7,0-0.7-0.7-0.7c-2,0-4,0-6,0
		c-0.7,0-0.7,0-0.7,0.7c0,1.8,0,3.6,0,5.3c0,0.2,0,0.4,0,0.6c0,0.3-0.2,0.4-0.5,0.4c-1.2,0-2.5,0-3.7,0c0,1.6,0,3.3,0,4.9
		c1,0,2-0.1,3-0.1c1,0,1.1-0.3,1.1,1.1c0,3.7,0,7.4,0,11c0,0.8,0.1,1.6,0.3,2.4c0.4,2.1,1.7,3.5,3.8,4c1.5,0.4,3.1,0.4,4.6,0.4
		c1,0,2-0.1,3-0.2c0.6,0,0.6-0.1,0.6-0.7c0-1.4,0-2.9,0-4.3C19.1,60.4,19,60.2,19,60.1z"/>
	<path fill="#606060" d="M197.2,41.5c-1-0.2-2-0.1-3,0c-2.4,0.4-4.2,1.6-5.3,3.8c-0.1,0.2-0.2,0.3-0.3,0.5c0,0-0.1,0-0.1,0
		c0-1.3,0-2.6,0-3.9c-0.8-0.2-7-0.1-7.5,0c-0.1,0.9-0.1,23.1,0.1,23.5c0.9,0.1,7.1,0.1,7.6-0.1c0-0.2,0-0.5,0-0.7
		c0-3.6,0-7.1,0-10.7c0-0.3,0-0.6,0-0.9c0.3-2.1,1.3-3.7,3.3-4.5c1.8-0.7,3.6-0.6,5.4,0c0-2.4,0-4.8,0-7.2
		C197.4,41.5,197.3,41.5,197.2,41.5z"/>
	<path fill="#939393" d="M191.1,58.2c-0.2,0-0.3,0-0.5,0c-0.3,0-0.4,0.2-0.4,0.4c0,0.1,0,0.2,0,0.3c0,1.9,0,3.8,0,5.7
		c0,0.7,0,0.7,0.7,0.7c1.9,0,3.9,0,5.8,0c0.3,0,0.6,0,0.8,0c0-0.1,0-0.2,0-0.3c0-2.2,0-4.4,0-6.6c0-0.1,0-0.3,0-0.4
		c-0.3,0-0.6,0-0.8,0C194.8,58.2,192.9,58.2,191.1,58.2z"/>
	<path fill="#606060" d="M179.8,60.8c0-3.8,0-7.6,0-11.4c0-0.6,0-1.3-0.1-1.9c-0.3-2.2-1.4-3.9-3.4-5c-0.8-0.4-1.6-0.7-2.5-0.9
		c-2.5-0.6-5-0.6-7.6-0.4c-1.6,0.2-3.2,0.6-4.7,1.3c-2.2,1.1-3.5,2.9-3.9,5.3c-0.1,0.4-0.1,0.8-0.1,1.2c2.5,0,4.8,0,7.2,0
		c0.1-0.3,0.1-0.5,0.2-0.7c0.3-0.8,0.7-1.4,1.5-1.7c1.7-0.8,3.4-0.7,5,0.3c0.8,0.5,1.1,1.2,1,2.2c-0.1,0.9-0.7,1.4-1.5,1.6
		c-0.7,0.2-1.4,0.3-2.1,0.4c-1.7,0.3-3.4,0.5-5.1,0.8c-1.3,0.2-2.6,0.6-3.8,1.3c-1.7,0.9-2.8,2.3-3.2,4.2c-0.1,0.3-0.1,0.6-0.2,0.9
		c0,0-0.1,0-0.1,0c0-8.4,0-16.9,0-25.3c-1-0.1-7.3-0.1-7.7,0c0,0,0,0,0,0.1c0,3.6,0,7.3,0,10.9c0,0.1,0,0.1,0,0.2c0,0,0,0,0,0.1
		c0,0,0,0-0.1,0c-0.1-0.1-0.2-0.3-0.4-0.4c-0.6-0.5-1.1-1.1-1.7-1.5c-1.1-0.8-2.5-1.1-3.8-1.2c-2.8-0.2-5.4,0.6-7.4,2.6
		c-1.1,1.1-1.9,2.4-2.5,3.9c-1.4,4-1.3,8,0.2,12c1.5,3.9,4.3,6.2,8.6,6.6c2.9,0.2,5.3-0.7,7.1-3c0.1-0.1,0.2-0.2,0.4-0.4
		c0.1,1,0,1.9,0.1,2.7c2.5,0,4.8,0,7.3,0c0.1-1.9,0-3.7,0.1-5.7c0.1,0.2,0.1,0.2,0.1,0.3c0.4,3.4,2.6,5.2,5.3,5.9
		c1.5,0.4,3,0.4,4.5,0.2c2.2-0.3,4.1-1,5.8-2.5c0.1-0.1,0.2-0.2,0.3-0.3c0.2,0.7,0.3,1.4,0.5,2.1c2.6,0,5.1,0,7.7,0
		c0-0.1,0-0.2,0-0.3C180,63.8,179.8,62.3,179.8,60.8z M148.5,56.8c-0.1,0.3-0.2,0.7-0.3,1c-0.7,1.5-1.8,2.4-3.5,2.5
		c-1.7,0.1-3.1-0.5-4-2c-0.7-1.1-1-2.4-1.1-3.8c0-0.4,0-0.7,0-1.1c-0.1-1.4,0.1-2.7,0.7-3.9c1-2,2.9-2.9,5.1-2.4
		c1,0.2,1.8,0.8,2.4,1.6c0.5,0.8,0.8,1.7,1,2.6C149,53.2,149,55,148.5,56.8z M172.3,56.8c-0.1,0.7-0.2,1.4-0.4,2.1
		c-0.4,1.3-1.4,2.1-2.7,2.4c-0.9,0.2-1.8,0.2-2.6,0.1c-1.3-0.3-2-1-2.2-2.2c-0.2-1.1,0.3-2.2,1.4-2.8c0.8-0.5,1.8-0.7,2.7-0.9
		c0.8-0.2,1.7-0.3,2.5-0.5c0.5-0.1,0.9-0.3,1.4-0.4C172.3,55.3,172.3,56.1,172.3,56.8z"/>
	<path fill="#939393" d="M91.2,46.3c-0.6-2.1-1.9-3.7-4-4.4c-1.9-0.7-3.9-0.8-5.8-0.4c-2.1,0.5-3.9,1.4-5.1,3.3
		c-0.1,0.1-0.2,0.2-0.2,0.3c-0.1,0-0.1,0-0.2,0c0-0.3-0.1-0.6-0.1-0.9c0-3.5,0-6.9,0-10.4c0-0.7,0-0.7-0.7-0.7c-2,0-4.1,0-6.1,0
		c-0.6,0-0.7,0-0.7,0.7c0,0.1,0,0.2,0,0.3c0,10.2,0,20.5,0,30.7c0,0.2,0,0.4,0,0.6c0,0.1,0.2,0.3,0.3,0.3c0.2,0.1,0.3,0,0.5,0
		c1.9,0,3.8,0,5.7,0c0.9,0,0.9,0,0.9-0.9c0-3.8,0-7.6,0-11.4c0-0.7,0.1-1.5,0.2-2.2c0.3-1.3,0.9-2.3,2-3c1.2-0.7,2.4-0.7,3.7-0.3
		c1.1,0.3,1.8,1,2.1,2.1c0.2,0.7,0.3,1.5,0.3,2.3c0,4.2,0,8.4,0,12.5c0,0.2,0,0.4,0,0.6c0,0.2,0.1,0.3,0.3,0.3c0.1,0,0.3,0,0.4,0
		c2,0,4.1,0,6.1,0c0.1,0,0.3,0,0.4,0c0.2,0,0.3-0.1,0.3-0.3c0-0.2,0-0.3,0-0.5c0-5,0-10,0-14.9C91.7,48.6,91.6,47.4,91.2,46.3z"/>
	<path fill="#939393" d="M35.5,42.1c-2.5-0.9-5.1-1.1-7.7-0.5c-4.3,1-7.4,3.5-9,7.6c-1,2.6-1,5.2-0.5,7.9c1,4.4,3.7,7.2,8,8.6
		c1.7,0.5,3.4,0.6,5.2,0.6c1.8,0,3.5-0.4,5.1-1.1c2.7-1.1,4.6-3,5.6-5.7c0.1-0.2,0.1-0.5,0.2-0.8c-0.2,0-0.4-0.1-0.5-0.1
		c-2,0-4,0-6,0c-0.4,0-0.5,0.2-0.7,0.5c-0.6,0.9-1.4,1.5-2.4,1.8c-0.4,0.1-0.9,0.2-1.3,0.3c-1.5,0.2-2.9-0.2-4.1-1.1
		c-1.1-0.9-1.6-2.1-1.8-3.4c-0.2-1-0.1-1.1,0.9-1.1c0.5,0,1,0,1.4,0c4.8,0,9.5,0,14.3,0c0.7,0,0.7,0,0.8-0.7c0-2.1-0.3-4.2-1-6.2
		C40.8,45.5,38.7,43.2,35.5,42.1z M34.7,51.4c-1.1,0-2.2,0-3.3,0c-0.3,0-0.6,0-0.9,0c-1.3,0-2.6,0-4,0c-0.2,0-0.3,0-0.5,0
		c-0.4,0-0.5-0.2-0.4-0.5c0.4-2.1,1.7-4.4,4.8-4.6c1.9-0.1,3.5,0.9,4.4,2.7c0.2,0.5,0.4,1.1,0.5,1.6C35.5,51.2,35.4,51.4,34.7,51.4z
		"/>
	<path fill="#939393" d="M61,56.4c-0.3,0-0.5,0.1-0.6,0.5c-0.1,0.3-0.1,0.5-0.2,0.8c-0.4,1.2-1.2,2.2-2.5,2.6
		c-0.5,0.2-1.1,0.2-1.6,0.3c-1.5,0.1-2.8-0.5-3.6-1.8c-0.3-0.5-0.6-1-0.8-1.6c-0.8-2.3-0.7-4.7,0.1-7c0.5-1.6,1.6-2.7,3.3-3
		c0.3-0.1,0.6-0.1,1-0.1c1-0.1,2,0.2,2.8,0.8c0.9,0.6,1.3,1.5,1.5,2.5c0.7,0.1,6.7,0.1,7.2,0c0-0.2,0-0.5,0-0.7
		c-0.1-0.4-0.2-0.9-0.3-1.3c-1-3-3-5-5.9-6.1c-2.7-1.1-5.5-1.2-8.4-0.6c-3.6,0.8-6.3,2.8-7.9,6.1c-1.4,3-1.8,6.1-1.1,9.3
		c0.8,3.7,2.9,6.4,6.3,7.9c3.2,1.5,6.5,1.6,9.8,0.7c4.3-1.2,6.9-4.1,7.7-8.5c0-0.2,0-0.4,0-0.7c-0.2,0-0.2-0.1-0.3-0.1
		C65.3,56.4,63.2,56.4,61,56.4z"/>
	<path fill="#606060" d="M131.5,60.8c0-3.9,0-7.8,0-11.6c0-0.6,0-1.3-0.1-1.9c-0.3-2.1-1.4-3.7-3.3-4.7c-0.8-0.4-1.7-0.7-2.5-1
		c-2.5-0.6-5.1-0.7-7.6-0.4c-1.5,0.2-2.9,0.5-4.3,1.1c-2.2,1-3.7,2.7-4.2,5c0,0.2-0.1,0.4-0.2,0.6c-0.1-2.2-0.1-4.3-0.1-6.5
		c-4-0.5-7.1,0.5-8.9,4.4c0,0-0.1-0.1-0.1-0.1c0-1.3,0-2.6,0-3.9c-0.7-0.2-6.9-0.1-7.5,0c0,7.8,0,15.7,0,23.5
		c0.9,0.2,7.2,0.1,7.7-0.1c0-0.2,0-0.5,0-0.8c0-3.4,0-6.9,0-10.3c0-0.3,0-0.6,0-0.9c0.1-2.5,1.8-4.5,4.3-5.1
		c1.4-0.3,2.7-0.2,4.1,0.1c0.4,0.1,0.6,0.3,0.6,0.6c2.4,0,4.8,0,7.1,0c0.1-0.2,0.2-0.5,0.2-0.7c0.3-0.7,0.7-1.4,1.4-1.7
		c1.8-0.9,3.5-0.8,5.2,0.3c0.8,0.5,1,1.3,0.9,2.2c-0.1,0.9-0.7,1.3-1.5,1.5c-0.7,0.2-1.4,0.3-2.1,0.4c-1.7,0.3-3.5,0.5-5.2,0.8
		c-1.3,0.2-2.7,0.6-3.9,1.3c-1.5,0.8-2.6,2.1-3,3.8c-0.2,0.7-0.2,1.4-0.2,2.1c0,3.6,1.9,5.9,5.4,6.8c1.5,0.4,3,0.4,4.5,0.2
		c2.2-0.3,4.1-1,5.8-2.5c0.1-0.1,0.2-0.1,0.4-0.3c0.1,0.5,0.2,1,0.3,1.4c0.1,0.7,0.2,0.7,0.9,0.7c2.1,0,4.3,0,6.4,0
		c0.2,0,0.4,0,0.6,0c0-0.1,0-0.2,0-0.3C131.6,63.8,131.5,62.3,131.5,60.8z M123.8,58c-0.4,2.3-1.7,3.3-4.1,3.5c-0.7,0-1.3,0-2-0.2
		c-0.9-0.3-1.5-0.9-1.7-1.9c-0.2-1.1,0.1-2.1,1-2.7c0.6-0.4,1.2-0.6,1.9-0.8c0.6-0.2,1.3-0.3,1.9-0.4c1-0.2,2.1-0.5,3.2-0.8
		c0,0,0.1,0.1,0.1,0.2C123.9,55.9,124,57,123.8,58z"/>
</g>
</svg>
