<?xml version="1.0" encoding="utf-8"?>
<!-- Generator: Adobe Illustrator 24.3.0, SVG Export Plug-In . SVG Version: 6.00 Build 0)  -->
<svg version="1.1" id="Layer_1" xmlns="http://www.w3.org/2000/svg" xmlns:xlink="http://www.w3.org/1999/xlink" x="0px" y="0px"
	 width="200px" height="100px" viewBox="0 0 200 100" style="enable-background:new 0 0 200 100;" xml:space="preserve">
<style type="text/css">
	.st0{fill-rule:evenodd;clip-rule:evenodd;fill:#D8383B;}
	.st1{fill-rule:evenodd;clip-rule:evenodd;fill:#221F1F;}
	.st2{fill-rule:evenodd;clip-rule:evenodd;fill:#939393;}
	.st3{fill-rule:evenodd;clip-rule:evenodd;fill:#606060;}
</style>
<g id="Symbols">
	<g transform="translate(-240.000000, -16.000000)">
		<g id="Header">
			<g id="logo" transform="translate(240.000000, 12.000000)">
				<polygon class="st0" points="-204.8,-251.1 -204.8,-241.3 -212.9,-241.3 -212.9,-251.1 -217.6,-251.1 -217.6,-227.1 
					-212.9,-227.1 -212.9,-237.2 -204.8,-237.2 -204.8,-227.1 -200.1,-227.1 -200.1,-251.1 				"/>
				<path class="st0" d="M-187.2-244.1l2.9,8.8h-6L-187.2-244.1z M-189.2-251.1l-8.8,24h4.9l1.5-4.2h8.5l1.4,4.2h4.9l-8.8-24H-189.2
					z"/>
				<path class="st0" d="M-141.6-245.5c-0.9-1-2.2-1.6-3.5-1.5h-3.6v15.7h3.6c1.3,0.1,2.6-0.5,3.5-1.5c0.9-1.1,1-2.8,1-6.5
					C-140.6-242.9-140.8-244.4-141.6-245.5 M-138.4-229.4c-1.7,1.6-4,2.4-6.4,2.3h-8.7v-24h8.7c2.3-0.1,4.6,0.7,6.4,2.3
					c2.7,2.7,2.4,6,2.4,9.6S-135.7-232.1-138.4-229.4"/>
				<polygon class="st0" points="-110.3,-251.1 -114,-236 -118.4,-251.1 -121.9,-251.1 -126.3,-236 -130,-251.1 -134.9,-251.1 
					-128.5,-227.1 -124.6,-227.1 -120.2,-241.7 -115.8,-227.1 -111.8,-227.1 -105.4,-251.1 				"/>
				<path class="st0" d="M-95.7-244.1l2.9,8.8h-6L-95.7-244.1z M-97.7-251.1l-8.8,24h4.9l1.5-4.2h8.5l1.4,4.2h4.9l-8.8-24H-97.7z"/>
				<path class="st0" d="M-74-246.9h-4.4v6.3h4.4c1.7,0.2,3.2-1.1,3.4-2.9c0-0.1,0-0.2,0-0.3c0-1.7-1.4-3.2-3.1-3.2
					C-73.7-247-73.8-247-74-246.9 M-70.3-227.1l-4.7-9.6h-3.4v9.6h-4.7v-24h9.4c4.9,0,7.8,3.3,7.8,7.4c0.1,2.8-1.7,5.4-4.4,6.3
					l5.4,10.4L-70.3-227.1z"/>
				<polygon class="st0" points="-61.8,-251.1 -61.8,-227.1 -46,-227.1 -46,-231.3 -57.1,-231.3 -57.1,-237.1 -47.7,-237.1 
					-47.7,-241.3 -57.1,-241.3 -57.1,-247 -46,-247 -46,-251.1 				"/>
				<path class="st0" d="M-161.8-237.5c2.7-0.9,4.5-3.5,4.4-6.3c0.1-3.3-2.2-6.3-5.4-7v5c0.5,0.6,0.7,1.3,0.7,2
					c0,1.7-1.4,3.2-3.1,3.2c-0.1,0-0.2,0-0.3,0h-3.1v3.9h2.1l4.7,9.6h5.4L-161.8-237.5z"/>
				<path class="st0" d="M-164.5-250.4v2.7c0,0.6-0.5,1-1,1c0,0,0,0,0,0h-0.6c-0.4,0-0.9-0.3-0.9-0.6c0-0.3-0.4-0.8-1.2-0.8
					c-1.2,0-2,0.7-2,1.3c0,0.2,0,1.1,0,1.1h-3.7v-0.6c0,0,0-0.1,0-0.5c0-1.2-1.2-1.2-1.2-1.2c-2.1,0-4.1,0.8-5.6,2.2l-0.6-0.6
					c3.5-5.7,7.2-5.3,8.5-5.3h2.6c0.6,0,1.2,1.2,2.2,1.4c0.4,0,0.8-0.1,1.1-0.4c0.1-0.5,0.5-0.8,0.9-0.8h0.6
					C-165-251.4-164.5-250.9-164.5-250.4 M-174.1-244.1l3.6,0.1l0.5,16.2c0,0.7-0.6,1.3-1.4,1.3c0,0,0,0,0,0h-2
					c-0.7,0-1.3-0.6-1.3-1.4c0,0,0,0,0-0.1L-174.1-244.1z"/>
				<path class="st1" d="M-289.1-227.2c-2.6,0.2-4.9-1.8-5.1-4.4c0-0.2,0-0.4,0-0.6v-8.7h-1.9v-3.3h1.9v-5.2h4.4v5.2h3v3.3h-3v8.4
					c0,1,0.5,1.6,1.5,1.6h1.5v3.8L-289.1-227.2z"/>
				<path class="st1" d="M-275-240.2c-0.5-0.5-1.3-0.8-2.1-0.8c-0.7,0-1.5,0.2-2,0.8c-0.9,0.9-1,2.4-1,4.2s0.1,3.3,1,4.3
					c0.5,0.5,1.3,0.8,2,0.8c0.8,0,1.5-0.2,2.1-0.8c0.9-0.9,1-2.5,1-4.3S-274.1-239.3-275-240.2 M-271.6-229.2
					c-1.4,1.4-3.4,2.2-5.4,2.1c-2,0.1-4-0.7-5.4-2.1c-1.6-1.6-2-3.7-2-6.8c0-3.2,0.4-5.1,2-6.8c1.4-1.4,3.4-2.2,5.4-2.1
					c2-0.1,4,0.7,5.4,2.1c1.6,1.7,2,3.6,2,6.8C-269.6-232.9-270-230.8-271.6-229.2"/>
				<path class="st1" d="M-246.6-227.2v-10.6c0.2-1.6-1-3-2.6-3.2c-1.6-0.2-3,1-3.2,2.6c0,0.2,0,0.4,0,0.5v10.7h-4.4v-10.6
					c0.1-1.6-1-3-2.6-3.2c-1.6-0.1-3,1-3.2,2.6c0,0.2,0,0.4,0,0.5v10.6h-4.4v-17.5h4.3v1.6c1.2-1.2,2.7-1.8,4.4-1.8
					c1.8-0.1,3.6,0.7,4.6,2.2c1.3-1.5,3.2-2.3,5.2-2.2c1.6-0.1,3.1,0.5,4.3,1.6c1.3,1.3,2,3.1,1.9,5v11.2L-246.6-227.2z"/>
				<polygon class="st1" points="-239.9,-251.1 -239.9,-243.5 -235.4,-247 -235.4,-251.1 				"/>
				<path class="st1" d="M-229.2-227.1c-2.8,0-5.2-0.3-7.5-2.5l2.9-2.9c1.3,1.2,2.9,1.8,4.7,1.7c1.5,0,3.1-0.5,3.1-1.8
					c0-0.9-0.5-1.5-1.9-1.6l-2.8-0.3c-3.2-0.3-5.1-1.7-5.1-4.9c0-3.6,3.2-5.6,6.8-5.6c2.7,0,5,0.5,6.7,2.1l-2.6,2.7
					c-1.2-0.9-2.6-1.3-4.1-1.2c-1.8,0-2.5,0.8-2.5,1.7c0,0.6,0.3,1.4,1.8,1.5l2.8,0.3c3.5,0.3,5.2,2.2,5.2,5.1
					C-221.9-228.9-225.1-227.1-229.2-227.1"/>
			</g>
		</g>
	</g>
</g>
<g>
	<g>
		<polygon class="st2" points="40.7,51.5 40.7,59.5 34.1,59.5 34.1,51.5 30.3,51.5 30.3,71.2 34.1,71.2 34.1,62.9 40.7,62.9 
			40.7,71.2 44.6,71.2 44.6,51.5 		"/>
		<path class="st2" d="M55.1,57.3l2.4,7.1h-4.9L55.1,57.3z M53.5,51.5l-7.1,19.6h4l1.2-3.5h7l1.2,3.5h4l-7.2-19.6H53.5z"/>
		<path class="st2" d="M92.3,56.1c-0.7-0.8-1.8-1.3-2.9-1.2h-2.9v12.8h2.9c1.1,0.1,2.2-0.4,2.9-1.2c0.7-0.9,0.8-2.3,0.8-5.3
			C93.2,58.3,93,57,92.3,56.1 M95,69.3c-1.4,1.3-3.3,2-5.2,1.9h-7.1V51.5h7.1c1.9-0.1,3.8,0.6,5.2,1.9c2.2,2.2,1.9,4.9,1.9,7.9
			C96.9,64.2,97.2,67.1,95,69.3"/>
		<polygon class="st2" points="118,51.5 114.9,63.9 111.3,51.5 108.4,51.5 104.9,63.9 101.8,51.5 97.8,51.5 103.1,71.2 106.3,71.2 
			109.9,59.2 113.5,71.2 116.7,71.2 122,51.5 		"/>
		<path class="st2" d="M129.9,57.3l2.4,7.1h-4.9L129.9,57.3z M128.3,51.5l-7.1,19.6h4l1.2-3.5h7l1.2,3.5h4l-7.1-19.6H128.3z"/>
		<path class="st2" d="M147.6,54.9H144v5.2h3.6c1.4,0.1,2.7-0.9,2.8-2.3c0-0.1,0-0.2,0-0.3c0-1.4-1.1-2.6-2.5-2.6
			C147.8,54.9,147.7,54.9,147.6,54.9 M150.6,71.2l-3.8-7.8H144v7.8h-3.8V51.5h7.7c4,0,6.4,2.7,6.4,6c0.1,2.3-1.4,4.4-3.6,5.2
			l4.4,8.5L150.6,71.2z"/>
		<polygon class="st2" points="157.5,51.5 157.5,71.2 170.5,71.2 170.5,67.7 161.4,67.7 161.4,63 169.1,63 169.1,59.5 161.4,59.5 
			161.4,54.9 170.5,54.9 170.5,51.5 		"/>
		<path class="st2" d="M75.9,62.7c2.2-0.7,3.7-2.8,3.6-5.2c0.1-2.7-1.8-5.1-4.4-5.8v4.1c0.4,0.5,0.6,1,0.6,1.6
			c0,1.4-1.1,2.6-2.5,2.6c-0.1,0-0.2,0-0.3,0h-2.6v3.2H72l3.8,7.8h4.4L75.9,62.7z"/>
		<path class="st2" d="M73.6,52.2v2.2c0,0.5-0.4,0.8-0.8,0.8c0,0,0,0,0,0h-0.5c-0.3,0-0.7-0.2-0.8-0.5c0-0.2-0.4-0.6-1-0.6
			c-1,0-1.7,0.6-1.7,1.1c0,0.2,0,0.9,0,0.9h-3v-0.5c0,0,0-0.1,0-0.4c0-0.9-1-1-1-1c-1.7,0-3.3,0.7-4.6,1.8l-0.5-0.5
			c2.9-4.6,5.9-4.4,6.9-4.4h2.2c0.5,0,1,1,1.8,1.1c0.3,0,0.6-0.1,0.9-0.3c0.1-0.4,0.4-0.6,0.8-0.6h0.5
			C73.3,51.3,73.6,51.7,73.6,52.2 M65.8,57.3l3,0.1l0.4,13.3c0,0.6-0.5,1.1-1.1,1.1c0,0,0,0,0,0h-1.6c-0.6,0-1.1-0.5-1.1-1.1
			c0,0,0,0,0-0.1L65.8,57.3z"/>
	</g>
	<g>
		<path class="st3" d="M35.2,47.8c-2.1,0.2-4-1.5-4.1-3.6c0-0.2,0-0.3,0-0.5v-7.1h-1.5v-2.7H31v-4.2h3.6v4.2h2.5v2.7h-2.5v6.9
			c0,0.8,0.4,1.3,1.2,1.3h1.3v3.1L35.2,47.8z"/>
		<path class="st3" d="M46.7,37.2c-0.4-0.4-1.1-0.7-1.7-0.6c-0.6,0-1.2,0.2-1.6,0.6c-0.7,0.7-0.8,2-0.8,3.5c0,1.5,0.1,2.7,0.8,3.5
			c0.4,0.4,1,0.7,1.6,0.6c0.6,0,1.2-0.2,1.7-0.6c0.7-0.7,0.8-2,0.8-3.5C47.5,39.2,47.4,37.9,46.7,37.2 M49.5,46.2
			C48.3,47.4,46.7,48,45,48c-1.7,0.1-3.3-0.6-4.4-1.8c-1.3-1.3-1.6-3-1.6-5.6c0-2.6,0.3-4.2,1.6-5.5c1.2-1.2,2.8-1.8,4.4-1.8
			c1.7-0.1,3.3,0.6,4.4,1.8c1.3,1.3,1.6,3,1.6,5.5C51.1,43.2,50.7,44.9,49.5,46.2"/>
		<path class="st3" d="M69.8,47.8v-8.7c0.1-1.3-0.8-2.5-2.1-2.6s-2.5,0.8-2.6,2.1c0,0.1,0,0.3,0,0.4v8.7h-3.6v-8.6
			c0.1-1.3-0.8-2.5-2.1-2.6c-1.3-0.1-2.5,0.8-2.6,2.1c0,0.1,0,0.3,0,0.4v8.6h-3.6V33.5h3.5v1.3c0.9-1,2.2-1.5,3.6-1.5
			c1.5-0.1,2.9,0.6,3.8,1.8c1.1-1.2,2.6-1.9,4.3-1.8c1.3-0.1,2.6,0.4,3.5,1.3c1.1,1.1,1.6,2.6,1.6,4.1v9.1L69.8,47.8z"/>
		<polygon class="st3" points="75.3,28.3 75.3,34.5 79.1,31.7 79.1,28.3 		"/>
		<path class="st3" d="M84.1,48c-2.2,0-4.3-0.2-6.1-2l2.3-2.3c1,0.9,2.4,1.4,3.8,1.3c1.2,0,2.5-0.4,2.5-1.5c0-0.7-0.4-1.2-1.5-1.3
			l-2.2-0.2c-2.6-0.2-4.2-1.4-4.2-4c0-3,2.6-4.6,5.5-4.6c2.2,0,4.1,0.4,5.5,1.7l-2.2,2.2c-1-0.7-2.1-1-3.3-1c-1.4,0-2,0.7-2,1.4
			c0,0.5,0.2,1.1,1.5,1.2l2.2,0.2c2.8,0.3,4.2,1.8,4.2,4.2C90.1,46.5,87.4,48,84.1,48"/>
	</g>
</g>
</svg>
